<?xml version="1.0" encoding="UTF-8"?>
<svg width="88px" height="47px" viewBox="0 0 88 47" version="1.1" xmlns="http://www.w3.org/2000/svg" xmlns:xlink="http://www.w3.org/1999/xlink">
    <!-- Generator: Sketch 53.2 (72643) - https://sketchapp.com -->
    <title>Group 218</title>
    <desc>Created with Sketch.</desc>
    <g id="Mobile" stroke="none" stroke-width="1" fill="none" fill-rule="evenodd">
        <g id="Mobile---Choose-Membership" transform="translate(-96.000000, -259.000000)">
            <g id="Premium-Plus" transform="translate(65.000000, 163.000000)">
                <g id="Group-12" transform="translate(0.000000, 11.000000)">
                    <g id="Memberships">
                        <g id="Group-3" transform="translate(0.000000, 0.935927)">
                            <g id="Premium" transform="translate(0.000000, 16.654462)">
                                <g id="Group-4">
                                    <g id="Group-6" transform="translate(29.391304, 33.930206)">
                                        <g id="Group-8" transform="translate(1.456522, 32.479405)">
                                            <g id="Group">
                                                <g id="Group-9" transform="translate(0.000000, 0.595347)">
                                                    <g id="Group-10">
                                                        <g id="Group-14">
                                                            <g id="Group-22">
                                                                <g id="Group-24" transform="translate(0.152174, 0.000000)">
                                                                    <g id="Group-25" transform="translate(0.000000, 0.404653)">
                                                                        <g id="Group-28">
                                                                            <g id="Group-218">
                                                                                <g id="Group-217">
                                                                                    <path d="M87.7858533,38.9482027 C87.7858533,43.0815894 68.1342496,46.4323671 43.8930465,46.4323671 C19.6516037,46.4323671 0,43.0815894 0,38.9482027 C0,34.814816 19.6516037,31.4640383 43.8930465,31.4640383 C68.1342496,31.4640383 87.7858533,34.814816 87.7858533,38.9482027" id="Fill-1" fill="#EDF2FA"></path>
                                                                                    <polygon id="Fill-3" fill="#141832" points="14.7332901 24.7435641 15.3471772 24.7435641 15.3471772 22.2997553 14.7332901 22.2997553"></polygon>
                                                                                    <polygon id="Fill-4" fill="#272B4C" points="10.1291369 27.1873729 13.8124594 27.1873729 13.8124594 26.2709446 10.1291369 26.2709446"></polygon>
                                                                                    <polygon id="Fill-5" fill="#272B4C" points="11.0499676 29.0202295 13.5055159 29.0202295 13.5055159 28.1038012 11.0499676 28.1038012"></polygon>
                                                                                    <polygon id="Fill-6" fill="#616786" points="15.3471772 24.438088 16.5749513 24.438088 16.5749513 22.6052314 15.3471772 22.6052314"></polygon>
                                                                                    <g id="Group-216">
                                                                                        <path d="M14.4929213,26.1928334 L7.91908637,26.1928334 C7.59311902,26.1928334 7.32884063,25.9293177 7.32884063,25.6042912 L7.32884063,21.8585873 C7.32884063,21.5335608 7.59311902,21.2700451 7.91908637,21.2700451 L14.4929213,21.2700451 C14.8188887,21.2700451 15.0831671,21.5335608 15.0831671,21.8585873 L15.0831671,25.6042912 C15.0831671,25.9293177 14.8188887,26.1928334 14.4929213,26.1928334" id="Fill-7" fill="#363B5B"></path>
                                                                                        <polygon id="Fill-9" fill="#141832" points="18.8128529 25.7180026 16.2636826 24.2931991 16.2636826 22.5273331 18.8128529 21.1295752"></polygon>
                                                                                        <path d="M10.910809,19.3170136 C10.910809,20.3512108 10.0699668,21.1898655 9.03253612,21.1898655 C7.99534545,21.1898655 7.15450331,20.3512108 7.15450331,19.3170136 C7.15450331,18.282577 7.99534545,17.4441617 9.03253612,17.4441617 C10.0699668,17.4441617 10.910809,18.282577 10.910809,19.3170136" id="Fill-11" fill="#363B5B"></path>
                                                                                        <path d="M9.03260813,19.7451009 C8.79593375,19.7451009 8.60342578,19.5531485 8.60342578,19.3169178 C8.60342578,19.0809265 8.79593375,18.8889742 9.03260813,18.8889742 C9.26928251,18.8889742 9.46203051,19.0809265 9.46203051,19.3169178 C9.46203051,19.5531485 9.26928251,19.7451009 9.03260813,19.7451009" id="Fill-13" fill="#141832"></path>
                                                                                        <path d="M9.03260813,19.5845262 C8.88450662,19.5845262 8.76424915,19.4646158 8.76424915,19.3169418 C8.76424915,19.169507 8.88450662,19.0493573 9.03260813,19.0493573 C9.18046961,19.0493573 9.30096711,19.169507 9.30096711,19.3169418 C9.30096711,19.4646158 9.18046961,19.5845262 9.03260813,19.5845262" id="Fill-15" fill="#616786"></path>
                                                                                        <path d="M9.58264803,20.5075251 C9.40526226,20.5075251 9.26076127,20.3634412 9.26076127,20.1865674 C9.26076127,20.0094542 9.40526226,19.8653703 9.58264803,19.8653703 C9.76027384,19.8653703 9.90477483,20.0094542 9.90477483,20.1865674 C9.90477483,20.3634412 9.76027384,20.5075251 9.58264803,20.5075251" id="Fill-17" fill="#141832"></path>
                                                                                        <path d="M9.58264803,20.38716 C9.47175192,20.38716 9.38149881,20.2971673 9.38149881,20.1865913 C9.38149881,20.0757759 9.47175192,19.9857833 9.58264803,19.9857833 C9.69354414,19.9857833 9.78379725,20.0757759 9.78379725,20.1865913 C9.78379725,20.2971673 9.69354414,20.38716 9.58264803,20.38716" id="Fill-19" fill="#616786"></path>
                                                                                        <path d="M14.3722078,19.3704108 C14.3722078,20.4048473 13.5313656,21.2432627 12.4939349,21.2432627 C11.4567443,21.2432627 10.6156621,20.4048473 10.6156621,19.3704108 C10.6156621,18.3362136 11.4567443,17.4975589 12.4939349,17.4975589 C13.5313656,17.4975589 14.3722078,18.3362136 14.3722078,19.3704108" id="Fill-21" fill="#363B5B"></path>
                                                                                        <path d="M12.4938869,19.7986177 C12.2572126,19.7986177 12.0644646,19.606426 12.0644646,19.3704347 C12.0644646,19.1344434 12.2572126,18.9424911 12.4938869,18.9424911 C12.7305613,18.9424911 12.9233093,19.1344434 12.9233093,19.3704347 C12.9233093,19.606426 12.7305613,19.7986177 12.4938869,19.7986177" id="Fill-23" fill="#141832"></path>
                                                                                        <path d="M12.4938869,19.6380431 C12.3460255,19.6380431 12.225528,19.5181327 12.225528,19.3704587 C12.225528,19.2230239 12.3460255,19.1028742 12.4938869,19.1028742 C12.6419885,19.1028742 12.7622459,19.2230239 12.7622459,19.3704587 C12.7622459,19.5181327 12.6419885,19.6380431 12.4938869,19.6380431" id="Fill-25" fill="#616786"></path>
                                                                                        <path d="M11.2462577,21.1897937 L10.4949486,21.1897937 C10.2505931,21.1897937 10.0520842,20.9473402 10.0520842,20.6484019 L10.0520842,19.9921258 C10.0520842,19.6931876 10.2505931,19.450734 10.4949486,19.450734 L11.2462577,19.450734 C11.4908532,19.450734 11.688882,19.6931876 11.688882,19.9921258 L11.688882,20.6484019 C11.688882,20.9473402 11.4908532,21.1897937 11.2462577,21.1897937" id="Fill-27" fill="#616786"></path>
                                                                                        <polygon id="Fill-29" fill="#616786" points="7.18112317 21.270093 12.6548783 21.270093 12.6548783 20.8687163 7.18112317 20.8687163"></polygon>
                                                                                        <polygon id="Fill-31" fill="#616786" points="7.54141551 23.1893773 5.64802047 22.4342529 5.82732651 21.9871619 7.72072156 22.7422862"></polygon>
                                                                                        <polygon id="Fill-32" fill="#363B5B" points="5.64809248 22.4343008 5.09985284 22.5039494 5.49855075 21.510201 5.82739852 21.9869704"></polygon>
                                                                                        <path d="M13.5000891,27.4503128 C13.5000891,27.9526919 13.0915498,28.3600522 12.5879566,28.3600522 C12.0841234,28.3600522 11.6755841,27.9526919 11.6755841,27.4503128 C11.6755841,26.9479338 12.0841234,26.5405735 12.5879566,26.5405735 C13.0915498,26.5405735 13.5000891,26.9479338 13.5000891,27.4503128" id="Fill-33" fill="#363B5B"></path>
                                                                                        <polygon id="Fill-34" fill="#363B5B" points="8.6702995 28.005419 12.5072569 28.005419 12.5072569 27.6844612 8.6702995 27.6844612"></polygon>
                                                                                        <path d="M8.84893345,28.2596242 L7.9550436,28.2596242 C7.72773058,28.2596242 7.5433838,28.0758095 7.5433838,27.8491525 L7.5433838,27.8407755 C7.5433838,27.6141186 7.72773058,27.4303038 7.9550436,27.4303038 L8.84893345,27.4303038 C9.07624647,27.4303038 9.58272004,27.6141186 9.58272004,27.8407755 L9.58272004,27.8491525 C9.58272004,28.0758095 9.07624647,28.2596242 8.84893345,28.2596242" id="Fill-35" fill="#5C5F6D"></path>
                                                                                        <path d="M12.5878846,27.8784001 C12.3509702,27.8784001 12.1584622,27.6864478 12.1584622,27.4502171 C12.1584622,27.2142258 12.3509702,27.0222734 12.5878846,27.0222734 C12.824559,27.0222734 13.017307,27.2142258 13.017307,27.4502171 C13.017307,27.6864478 12.824559,27.8784001 12.5878846,27.8784001" id="Fill-36" fill="#616786"></path>
                                                                                        <path d="M11.6755601,22.3135767 C11.4979343,22.3135767 11.3534333,22.4574213 11.3534333,22.6345344 L11.3534333,24.7747315 C11.3534333,24.9518446 11.4979343,25.0959285 11.6755601,25.0959285 L13.526949,25.0959285 C13.7045748,25.0959285 13.8488358,24.9518446 13.8488358,24.7747315 L13.8488358,22.6345344 C13.8488358,22.4574213 13.7045748,22.3135767 13.526949,22.3135767 L11.6755601,22.3135767 Z M13.526949,25.2565271 L11.6755601,25.2565271 C11.4091214,25.2565271 11.1926099,25.0404012 11.1926099,24.7747315 L11.1926099,22.6345344 C11.1926099,22.3688647 11.4091214,22.1529781 11.6755601,22.1529781 L13.526949,22.1529781 C13.7931477,22.1529781 14.0098992,22.3688647 14.0098992,22.6345344 L14.0098992,24.7747315 C14.0098992,25.0404012 13.7931477,25.2565271 13.526949,25.2565271 L13.526949,25.2565271 Z" id="Fill-37" fill="#616786"></path>
                                                                                        <path d="M7.81507927,23.4672774 C7.57840488,23.4672774 7.38589692,23.275325 7.38589692,23.0390944 C7.38589692,22.803103 7.57840488,22.6111507 7.81507927,22.6111507 C8.05175365,22.6111507 8.24450165,22.803103 8.24450165,23.0390944 C8.24450165,23.275325 8.05175365,23.4672774 7.81507927,23.4672774" id="Fill-38" fill="#141832"></path>
                                                                                        <path d="M7.81507927,23.2264274 C7.7113842,23.2264274 7.627372,23.1424183 7.627372,23.0392619 C7.627372,22.9358661 7.7113842,22.851857 7.81507927,22.851857 C7.91877433,22.851857 8.00302657,22.9358661 8.00302657,23.0392619 C8.00302657,23.1424183 7.91877433,23.2264274 7.81507927,23.2264274" id="Fill-39" fill="#616786"></path>
                                                                                        <path d="M4.36681035,43.0886623 L4.35144812,43.1200161 C4.23863173,42.8220352 4.14789855,42.5391328 4.08812987,42.4716384 L3.88938099,44.0577585 C3.74584014,44.3497558 4.16638123,44.6340942 4.74174481,44.6340942 L6.43639099,44.6340942 C6.9224616,44.6340942 7.31659885,44.6824413 7.31659885,44.427542 L7.31659885,44.4237125 C7.31659885,44.200885 7.17113772,44.0048638 6.95750669,43.9395235 C6.17091242,43.6989846 4.36681035,43.0886623 4.36681035,43.0886623" id="Fill-40" fill="#05101C"></path>
                                                                                        <path d="M5.93407002,43.4952327 L3.57668757,43.4952327 C3.57668757,43.4952327 -0.305636399,34.3863511 0.193876164,32.235623 C0.515762923,30.8498323 0.604335789,32.6444193 2.88490708,30.7560102 L5.22908761,36.8910662 L5.93407002,43.4952327 Z" id="Fill-41" fill="#1D283E"></path>
                                                                                        <path d="M1.11004125,43.0886623 L1.09467902,43.1200161 C0.981862631,42.8220352 0.891129451,42.5391328 0.831360768,42.4716384 L0.632611897,44.0577585 C0.489071045,44.3497558 0.909612136,44.6340942 1.48497572,44.6340942 L3.17962189,44.6340942 C3.6656925,44.6340942 4.05982976,44.6824413 4.05982976,44.427542 L4.05982976,44.4237125 C4.05982976,44.200885 3.91436862,44.0048638 3.70073759,43.9395235 C2.91414333,43.6989846 1.11004125,43.0886623 1.11004125,43.0886623" id="Fill-42" fill="#05101C"></path>
                                                                                        <path d="M2.67542865,43.4952327 L0.318046201,43.4952327 C0.318046201,43.4952327 -0.305564388,34.3863511 0.193948174,32.235623 C0.515594898,30.8498323 0.859324831,32.6731404 3.61780554,28.1416764 L3.8612009,36.1522171 L2.67542865,43.4952327 Z" id="Fill-43" fill="#1D283E"></path>
                                                                                        <path d="M1.7836271,23.3449257 C1.7836271,23.3449257 1.46870135,24.7347853 1.2569906,26.2129621 C1.15065515,26.9554012 1.67153082,31.3956759 1.67153082,31.3956759 L3.71998839,31.3956759 C3.71998839,31.3956759 4.01307096,28.3579459 3.94850158,27.5001439 C3.81120164,25.6785112 3.09733794,25.5291617 2.81433683,25.0152942 C2.73488529,24.8709709 2.86426408,23.6414706 2.86426408,23.6414706 L1.7836271,23.3449257 Z" id="Fill-44" fill="#EAA563"></path>
                                                                                        <path d="M1.49095258,24.7946447 C1.49095258,24.7946447 2.06703627,24.8470606 2.5360644,24.8712342 C3.00557261,24.8951684 3.40715094,25.5820802 3.40715094,25.5820802 C3.40715094,25.5820802 4.31952348,27.4994498 4.25183365,28.0003928 C4.18414381,28.5010965 3.73719889,32.2621182 3.73719889,32.2621182 L0.193804153,32.2355512 C0.193804153,32.2355512 0.195484397,28.6076037 1.49095258,24.7946447" id="Fill-45" fill="#8EBCE1"></path>
                                                                                        <path d="M4.4394689,21.4775308 C4.4394689,20.9069392 3.75440939,20.2334305 3.11375632,20.2334305 L2.85235835,20.2334305 C2.21170529,20.2334305 1.26716808,20.9069392 1.26716808,21.4775308 L1.49328092,23.050487 C1.58617442,23.6981468 3.31706586,24.0990448 4.01652746,24.2945873 L4.0174876,24.3003315 L4.0174876,24.2948266 C4.71718925,24.0995235 4.40970458,22.9844286 4.50283811,22.3365296 L4.4394689,21.4775308 Z" id="Fill-46" fill="#FCCA9B"></path>
                                                                                        <path d="M4.3664503,22.9882581 L4.3664503,21.9306054 L4.84772021,22.7075098 C4.89572718,22.8446528 4.79323229,22.9882581 4.64753113,22.9882581 L4.3664503,22.9882581 Z" id="Fill-47" fill="#FCCA9B"></path>
                                                                                        <path d="M4.20353863,20.6491678 C4.20353863,20.6491678 4.64088216,20.9560043 4.26090696,21.2267002 C3.88093177,21.4973962 3.44286813,21.2807916 3.43134646,21.6237688 C3.40110206,22.5349442 2.83197939,22.9054457 2.83197939,23.004294 C2.83197939,23.0634115 2.53001553,23.221138 2.43376154,23.6198819 C2.38167398,23.8357685 2.11115468,23.9102039 1.95753236,23.749366 C1.54467239,23.3173535 0.921781904,23.3111306 0.921781904,22.1371576 L0.921781904,22.0316077 C0.921781904,20.9940597 1.76526443,20.1530116 2.80581559,20.1530116 L2.95439717,20.1530116 C3.66370021,20.1530116 4.20353863,20.6491678 4.20353863,20.6491678" id="Fill-48" fill="#082238"></path>
                                                                                        <path d="M3.13475937,22.5240541 C3.11075589,22.2923709 2.91656768,22.1109496 2.67797302,22.1109496 C2.42305599,22.1109496 2.36040689,22.3258788 2.36040689,22.5800601 C2.36040689,22.7093049 2.61892444,23.1937333 2.75046355,23.1937333 L3.14916147,23.1705171 L3.22933311,22.6614365 L3.13475937,22.5240541 Z" id="Fill-49" fill="#FCCA9B"></path>
                                                                                        <path d="M4.12547929,20.5037914 L1.15312751,23.2231963 L0.885008562,22.9316776 C0.142340677,22.1246161 0.197068627,20.8587357 1.00622617,20.1184506 L1.03599049,20.0911656 C1.84514804,19.3508805 3.11469246,19.4054505 3.85712031,20.2122727 L4.12547929,20.5037914 Z" id="Fill-50" fill="#F26522"></path>
                                                                                        <path d="M0.125298202,24.323787 C0.125298202,24.323787 0.176185594,24.4573399 0.535517793,24.3003315 C0.86124511,24.1581623 1.01822791,23.8247587 1.09047841,23.7407497 C1.16296894,23.6569799 1.59743205,22.8168892 1.59743205,22.8168892 L0.921733897,22.9882581 L0.125298202,24.323787 Z" id="Fill-51" fill="#F26522"></path>
                                                                                        <path d="M7.68884493,27.5005747 L5.10702988,27.8023851 C5.10702988,27.8023851 3.69130422,26.1650458 3.55400428,25.9099071 C3.35789579,25.5449104 2.99472303,25.3003028 2.58258316,25.2498016 L2.57658229,25.2490836 C2.57658229,25.2490836 2.45800506,25.2608113 2.39679617,25.2667949 C1.80679047,25.3244763 1.53675124,26.4192271 1.81447158,26.9414715 C2.70572105,28.6171056 4.36652231,29.4799338 4.36652231,29.4799338 C4.53622696,29.6635092 7.80574191,28.7829696 7.80574191,28.7829696 L7.68884493,27.5005747 Z" id="Fill-52" fill="#AED8F4"></path>
                                                                                        <path d="M8.71885855,28.4873822 L7.68886893,28.7882352 L7.68886893,27.5005747 L8.46154117,27.2748751 C8.75462375,27.1891906 9.04818639,27.408428 9.04818639,27.7131105 L9.04818639,28.0491468 C9.04818639,28.2518695 8.9140069,28.4304187 8.71885855,28.4873822" id="Fill-53" fill="#FCCA9B"></path>
                                                                                        <polygon id="Fill-54" fill="#05101C" points="12.1822497 44.0925588 12.879791 44.0925588 12.879791 28.789025 12.1822497 28.789025"></polygon>
                                                                                        <polygon id="Fill-55" fill="#05101C" points="16.5460116 44.0926545 15.8302276 44.0926545 12.879719 31.7380547 12.5091051 30.180177 12.1893787 28.8470415 12.4291735 28.7891207 12.5091051 28.7709307 12.8689174 28.6840496"></polygon>
                                                                                        <polygon id="Fill-56" fill="#05101C" points="12.8252311 28.8469937 12.5091051 30.1801291 12.1821777 31.5388742 9.18462221 44.0926067 8.46883823 44.0926067 12.1456924 28.6840017 12.5091051 28.7708829 12.5854362 28.7890729"></polygon>
                                                                                        <path d="M24.9651626,17.227222 C25.0837398,17.2111861 25.2181593,17.2626446 25.3472981,17.3509618 C25.3573796,17.309795 25.3641005,17.2674314 25.3641005,17.2241105 C25.3641005,16.8397271 24.9582016,16.5290611 24.4570088,16.5288217 L24.4570088,17.1056362 C24.6840818,17.0927117 24.8792301,17.1307671 24.9651626,17.227222" id="Fill-57" fill="#6D0C05"></path>
                                                                                        <path d="M24.4570808,16.5288217 L24.4570808,16.5288217 C23.956368,16.5288217 23.550229,16.8397271 23.550229,17.2241105 C23.550229,17.2884936 23.5651112,17.3495258 23.5867143,17.4086433 C23.8337102,17.2214778 24.1714393,17.1221508 24.4570808,17.1056362 L24.4570808,16.5288217 Z" id="Fill-58" fill="#6D0C05"></path>
                                                                                        <polygon id="Fill-59" fill="#E09C5F" points="24.4629376 23.5290994 24.9674909 21.7596433 24.4571768 21.250084"></polygon>
                                                                                        <path d="M24.4570808,21.2499882 L24.1015891,20.8948046 C23.9803715,20.8500476 23.8682752,20.7827925 23.7677006,20.6966293 L23.7677006,21.2475948 L24.4628416,23.5290037 L24.4570808,21.2499882 Z" id="Fill-60" fill="#F7B56D"></path>
                                                                                        <path d="M24.1014691,20.8948285 L24.4569608,21.2500122 L24.4569608,20.9616049 C24.3331028,20.9613656 24.2140455,20.936474 24.1014691,20.8948285" id="Fill-61" fill="#EAA663"></path>
                                                                                        <path d="M24.4570808,20.9615571 L24.4570808,21.2499643 L24.9673949,21.759763 L25.1049349,21.2435021 L25.1049349,20.7289166 C24.9184278,20.8746759 24.6968756,20.9615571 24.4575609,20.9615571 L24.4570808,20.9615571 Z" id="Fill-62" fill="#DD9452"></path>
                                                                                        <path d="M24.4570808,20.9615571 L24.4570808,18.3316661 L24.4570808,18.3319054 C24.0989488,18.6047554 23.329637,18.8893332 23.1743344,18.9453392 L23.199058,19.0288696 L23.1448102,18.9558703 C23.0975233,18.8898119 23.0485562,18.8510384 23.0154314,18.8510384 C23.0137511,18.8510384 23.0115908,18.8517565 23.0077502,18.8551073 C22.9724651,18.8914873 22.9669443,19.0683611 22.9892676,19.3816599 C23.0091905,19.6561853 23.1817755,19.914196 23.2768293,19.914196 C23.2857106,19.9132387 23.2921916,19.9106059 23.2989125,19.9058191 L23.3190755,19.8909799 L23.3243562,19.9149141 C23.3891656,20.24018 23.5509492,20.5108759 23.7677006,20.6966054 C23.8682752,20.7827685 23.9803715,20.8500237 24.1015891,20.8947806 C24.2141655,20.9366655 24.3329828,20.9615571 24.4570808,20.9615571" id="Fill-63" fill="#FFC988"></path>
                                                                                        <path d="M24.7082533,18.032297 C24.6403234,18.1490959 24.5575114,18.2556032 24.4571768,18.331714 L24.4571768,20.9616049 L24.4574168,20.9616049 C24.6967316,20.9616049 24.9185238,20.8744844 25.1050309,20.7289644 C25.3424254,20.5434743 25.5210113,20.2605719 25.5894213,19.9149619 L25.5949421,19.8910277 L25.6158251,19.9058669 C25.622066,19.9106538 25.628787,19.9132865 25.6395886,19.9142439 C25.7332022,19.9142439 25.9053072,19.6562331 25.9252301,19.3817077 C25.9480334,19.0684089 25.9417925,18.8915351 25.9065073,18.8551551 C25.9026668,18.8518043 25.9005065,18.850847 25.8983461,18.850847 C25.8659414,18.850847 25.8176944,18.8898597 25.7694474,18.9552001 L25.7156796,19.0289175 L25.7411233,18.941797 C25.7411233,18.941797 25.3493864,18.6071967 24.9187638,18.3178321 C24.8064275,18.2422 24.7430583,18.140719 24.7082533,18.032297" id="Fill-64" fill="#F7B56D"></path>
                                                                                        <path d="M23.7381283,39.2760145 C23.5302581,39.2760145 23.3735154,39.100098 23.2669399,38.9205914 L23.212692,39.0950718 C23.1538835,39.281998 23.1666053,39.5026714 23.301985,39.6431652 C23.6183509,39.9703459 24.2287596,39.8008917 24.2287596,39.8008917 C24.3122917,39.6651847 24.3408559,39.5036288 24.3082112,39.3482958 L24.2328402,38.9866499 C24.1531486,39.1613696 24.0144085,39.2760145 23.7381283,39.2760145" id="Fill-65" fill="#355C4B"></path>
                                                                                        <path d="M22.9833387,35.7438516 C23.2447367,36.9017887 23.4091606,38.464932 23.4091606,38.464932 L23.2670599,38.9204 C23.3733954,39.0999065 23.5301381,39.2760623 23.7382484,39.2760623 C24.0142885,39.2760623 24.1530286,39.1611781 24.2329602,38.9866977 L24.1158232,38.4297487 L24.3090513,34.006946 L23.0207841,34.006946 C22.9230899,34.5737081 22.8669218,35.2278301 22.9833387,35.7438516" id="Fill-66" fill="#FFC988"></path>
                                                                                        <path d="M25.1899552,39.2760145 C24.9139151,39.2760145 24.774935,39.1613696 24.6952434,38.9866499 L24.6198724,39.3482958 C24.5872277,39.5036288 24.6157918,39.6651847 24.699804,39.8008917 C24.699804,39.8008917 25.3097326,39.9703459 25.6260986,39.6431652 C25.7619583,39.5026714 25.7742001,39.281998 25.7156316,39.0950718 L25.6613837,38.9205914 C25.5548082,39.100098 25.3985455,39.2760145 25.1899552,39.2760145" id="Fill-67" fill="#02331E"></path>
                                                                                        <path d="M24.8123084,38.4296769 L24.6951714,38.9866259 C24.775103,39.1613457 24.9138431,39.2759905 25.1898832,39.2759905 C25.3984735,39.2759905 25.5547362,39.1000741 25.6615518,38.9205675 L25.518971,38.4648602 C25.518971,38.4648602 25.683635,36.9019563 25.9447929,35.7437798 C26.0614498,35.2277583 26.0052817,34.5738757 25.9075875,34.0068742 L24.6193203,34.0068742 L24.8123084,38.4296769 Z" id="Fill-68" fill="#F9C478"></path>
                                                                                        <path d="M31.549127,23.13598 C31.4708756,22.9248803 31.232521,23.5431009 30.26182,23.5584188 C30.0599507,23.5612909 30.1605253,23.4009317 30.3635948,23.3401388 C30.5657042,23.279346 30.8446247,23.2544544 30.7459703,23.1122852 C30.7459703,23.1122852 30.0889949,23.0203778 29.7414244,23.4308495 C29.5887622,23.6110741 29.5431556,23.6835948 29.5229927,23.7142305 L29.5565976,24.2070359 C29.5565976,24.2070359 30.7579721,24.1582101 31.1535496,23.6472148 C31.549127,23.13598 31.5827319,23.2283661 31.549127,23.13598" id="Fill-69" fill="#F9C478"></path>
                                                                                        <path d="M29.4572471,23.6890996 L27.6951512,23.7034602 C27.6951512,23.7034602 26.5156198,21.2435021 26.0825969,21.2435021 L25.1049349,21.2435021 L24.9673949,21.759763 L24.4628416,23.5292191 L24.4628416,34.0068982 L24.6193444,34.0068982 L25.9076115,34.0068982 L26.5086588,34.0068982 C26.5086588,34.0068982 26.213896,31.6723553 26.4692931,30.7365277 L26.4798546,30.6967969 C26.8595898,27.5092389 26.3048692,27.2806672 25.6651763,25.9587807 L26.2940676,23.4229512 L27.2146014,24.7460343 C27.5895358,25.1699092 29.9159538,24.2493995 29.9159538,24.2493995 L29.5098148,23.7496532 L29.4572471,23.6890996 Z" id="Fill-70" fill="#E5541A"></path>
                                                                                        <path d="M29.2090031,19.3810615 C29.4192736,19.4629165 28.7949429,19.6895735 28.7622982,20.6569943 C28.7553372,20.8580416 28.9180808,20.7606294 28.9828902,20.5593427 C29.0474596,20.358774 29.077464,20.0811372 29.2181244,20.1823789 C29.2181244,20.1823789 29.2985361,20.8388942 28.8806354,21.178042 C28.6972487,21.3269128 28.623558,21.3709517 28.5925935,21.3905778 L28.0988418,21.3479749 C28.0988418,21.3479749 28.1694121,20.1512644 28.6893276,19.7664023 C29.2090031,19.3810615 29.1170697,19.3461176 29.2090031,19.3810615" id="Fill-71" fill="#F9C478"></path>
                                                                                        <path d="M22.8325008,21.2434303 L23.7676766,21.2434303 L24.4628176,23.5291473 L24.4628176,34.0068264 L24.2957533,34.0068264 L23.0074862,34.0068264 L22.4064389,34.0068264 C22.4064389,34.0068264 22.7012017,31.6722835 22.4458046,30.7364559 L22.4352431,30.6969645 C22.0555079,27.5094064 22.6099885,27.2805954 23.2499214,25.9589483 L22.6210301,23.4228794 C22.6210301,23.4228794 21.8990052,21.7596912 22.8325008,21.2434303" id="Fill-72" fill="#F26522"></path>
                                                                                        <path d="M24.9811009,17.243234 C24.9811009,17.243234 24.9112508,17.6836234 24.7081813,18.0323449 C24.7429863,18.1407668 24.8063555,18.2422479 24.9186918,18.31788 C25.3495544,18.6072446 25.7412913,18.9418448 25.7412913,18.9418448 C25.7412913,18.9418448 25.9494016,18.3765188 25.8867525,18.0739904 C25.8397056,17.8447007 25.6039914,17.5256576 25.3473941,17.3509379 C25.2180153,17.26286 25.0838358,17.2111621 24.9652586,17.227198 C24.9700593,17.2327029 24.9767803,17.2372504 24.9811009,17.243234" id="Fill-73" fill="#891809"></path>
                                                                                        <path d="M24.4569608,18.3319533 L24.4569608,18.331714 L24.4569608,17.1055644 C24.1713193,17.122079 23.8338302,17.221406 23.5865943,17.4088108 C23.480979,17.4889904 23.3919261,17.5842486 23.3319173,17.6953033 C22.9749855,18.3525367 23.1446901,18.9559182 23.1446901,18.9559182 C23.1446901,18.9559182 23.1564518,18.9518493 23.1744545,18.9453871 C23.329517,18.889381 24.0988287,18.6048033 24.4569608,18.3319533" id="Fill-74" fill="#A0210C"></path>
                                                                                        <path d="M24.7082533,18.032297 C24.9113228,17.6835756 24.9811729,17.2431861 24.9811729,17.2431861 C24.9768523,17.2372025 24.9701313,17.232655 24.9650906,17.2271502 C24.8791581,17.1306953 24.6840097,17.0926399 24.4571768,17.1055644 L24.4571768,18.331714 C24.5575114,18.2556032 24.6403234,18.1490959 24.7082533,18.032297" id="Fill-75" fill="#A0210C"></path>
                                                                                        <path d="M23.205803,21.315544 L25.4398075,22.471327 L28.1401998,20.9615571 L28.4534453,21.477818 C28.4534453,21.477818 26.1143055,23.5641631 25.5029367,23.5431009 C24.8918079,23.5220388 22.503221,22.8102354 22.503221,22.8102354 C22.503221,22.8102354 21.952581,20.9584456 23.205803,21.315544" id="Fill-76" fill="#F6921E"></path>
                                                                                        <polygon id="Fill-77" fill="#363B5B" points="30.9905179 15.5700412 29.0419148 19.7812654 29.4394125 19.9641228 31.3880156 15.7528986"></polygon>
                                                                                        <polygon id="Fill-78" fill="#FFFFFF" points="29.5971875 18.5812281 29.3638736 19.0852826 29.9125933 18.9411986 30.1459072 18.4371442"></polygon>
                                                                                        <polygon id="Fill-79" fill="#FFFFFF" points="30.2378405 17.1967059 30.0045266 17.7007603 30.5532463 17.5566764 30.7865602 17.0526219"></polygon>
                                                                                        <polygon id="Fill-80" fill="#FFFFFF" points="30.7889366 16.005955 30.5553827 16.5100094 31.1043424 16.3659255 31.3376563 15.861871"></polygon>
                                                                                        <polygon id="Fill-81" fill="#363B5B" points="34.5289199 22.39457 30.0249056 23.5525071 29.2603945 20.5956748 33.7644088 19.4377377"></polygon>
                                                                                        <polygon id="Fill-82" fill="#363B5B" points="33.7645288 19.4377377 29.2602745 20.5956748 29.1510587 20.1729967 33.6550729 19.0150596"></polygon>
                                                                                        <path d="M29.7654999,20.4658078 L29.2604665,20.5955312 L29.0417948,19.7501749 L29.2808695,19.688664 C29.3415983,19.6731068 29.4061677,19.6929721 29.4474537,19.7398832 L29.849032,20.1958299 C29.9306439,20.2886946 29.8855173,20.4349327 29.7654999,20.4658078" id="Fill-83" fill="#616786"></path>
                                                                                        <path d="M29.3534081,19.9005296 C29.3603691,19.9278146 29.3440467,19.9555783 29.3166827,19.9625192 C29.2893187,19.9696995 29.2614747,19.9531849 29.2545137,19.9258999 C29.2475527,19.8986149 29.263875,19.8708512 29.290999,19.8639103 C29.318363,19.85673 29.346447,19.8732446 29.3534081,19.9005296" id="Fill-84" fill="#FFFFFF"></path>
                                                                                        <path d="M29.4743616,20.3679887 C29.4813226,20.3952737 29.4647602,20.4230373 29.4376363,20.4299783 C29.4100323,20.4371585 29.3821882,20.4206439 29.3752272,20.3933589 C29.3682662,20.3660739 29.3845886,20.3383102 29.4119526,20.3313693 C29.4393165,20.3241891 29.4671606,20.3407037 29.4743616,20.3679887" id="Fill-85" fill="#FFFFFF"></path>
                                                                                        <path d="M29.7959843,20.2852481 C29.8029454,20.3125331 29.786623,20.3402968 29.759259,20.3472377 C29.731895,20.354418 29.704051,20.3379034 29.69709,20.3106184 C29.690129,20.2833334 29.7064513,20.2555697 29.7335753,20.2486288 C29.7609393,20.2414485 29.7890233,20.2579631 29.7959843,20.2852481" id="Fill-86" fill="#FFFFFF"></path>
                                                                                        <polygon id="Fill-87" fill="#FFFFFF" points="30.543981 20.2657417 30.0048627 20.4043208 30.2453776 19.89165 30.7844959 19.7530709"></polygon>
                                                                                        <polygon id="Fill-88" fill="#FFFFFF" points="32.0247321 19.8849724 31.4856138 20.0235515 31.7261287 19.51112 32.265247 19.3723016"></polygon>
                                                                                        <polygon id="Fill-89" fill="#FFFFFF" points="33.2982851 19.5576481 32.7591668 19.6962272 32.9994417 19.1837958 33.5388 19.0449773"></polygon>
                                                                                        <polygon id="Fill-90" fill="#9FA8D6" points="33.8027184 19.5857948 29.6866005 20.6441655 29.2521373 20.5979725 33.7645528 19.437642"></polygon>
                                                                                        <path d="M31.6527261,20.5767189 C31.1796173,20.6983047 30.8942159,21.1810577 31.0161536,21.652801 C31.1380913,22.1243049 31.6222416,22.4093614 32.0953504,22.2875362 C32.5682191,22.1661898 32.8538605,21.6834368 32.7319228,21.2114542 C32.6099851,20.7399502 32.1258348,20.4551331 31.6527261,20.5767189 M32.120554,22.3863845 C31.5931974,22.5218521 31.053119,22.2042452 30.9172592,21.6781712 C30.7811595,21.1520973 31.0996857,20.6138169 31.6275224,20.47811 C32.154879,20.342403 32.6949575,20.66001 32.8308172,21.1860839 C32.967157,21.7123972 32.6481507,22.2506775 32.120554,22.3863845" id="Fill-91" fill="#9FA8D6"></path>
                                                                                        <polygon id="Fill-92" fill="#9FA8D6" points="32.3104696 21.3507273 31.7780723 21.877998 31.5886848 21.1458505"></polygon>
                                                                                        <path d="M54.1313914,6.18335525 L54.3402218,6.16013907 L54.6006596,6.30518038 L54.3438223,6.4667363 C54.2742122,6.5105359 54.0188151,6.55529287 53.9477648,6.51364735 L52.8049588,5.70275632 C52.7622326,5.6776254 52.7478305,5.62281606 52.7730341,5.58021316 L52.7739943,5.57853777 C52.7989579,5.53593487 52.8541659,5.52157435 52.8966521,5.54670527 L53.8980776,6.1335721 C53.9686478,6.17473894 54.0502597,6.19221091 54.1313914,6.18335525" id="Fill-93" fill="#141832"></path>
                                                                                        <path d="M46.8222817,16.3795919 C46.8254021,16.3743264 51.5248048,8.71657596 51.9131812,7.90592427 C52.2182655,7.26927429 52.1985827,6.9418543 52.1628175,6.34756787 C52.1517759,6.16662524 52.1395341,5.96150906 52.1337733,5.7133113 C52.1088096,4.66188146 52.4979062,4.53622686 52.6176836,4.52258436 C52.7153778,4.51181397 52.9702948,4.6700191 53.0603079,4.73176936 L53.0895921,4.68916646 C53.0550271,4.66523225 52.7463422,4.45604726 52.6116827,4.47136515 C52.4438983,4.49027318 52.0567221,4.64919633 52.0816857,5.71450801 C52.0879266,5.96366314 52.0999283,6.169258 52.11097,6.35067931 C52.1476953,6.95573614 52.1656979,7.25922192 51.8666145,7.88366546 C51.4787181,8.69264175 46.7800355,16.3487168 46.7771551,16.3542217 L46.8222817,16.3795919 Z" id="Fill-94" fill="#363B5B"></path>
                                                                                        <path d="M55.5842505,5.41635956 L57.2349703,6.61307006 C57.3161021,6.67194821 57.3194626,6.81890426 57.2428914,6.94910636 L57.1403966,7.12286873 L54.8389422,5.77369732 L55.0412916,5.42976272 C55.1255439,5.28711483 55.4954376,5.35197654 55.5842505,5.41635956" id="Fill-95" fill="#404766"></path>
                                                                                        <path d="M57.0385258,7.29591306 C56.9617146,7.42611517 56.8313757,7.49480635 56.7404024,7.45268214 L54.8882934,6.59703414 C54.7886789,6.55084111 54.5520045,6.2602798 54.6360168,6.11763191 L54.8388462,5.77369732 L57.1405406,7.12286873 L57.0385258,7.29591306 Z" id="Fill-96" fill="#363B5B"></path>
                                                                                        <polygon id="Fill-97" fill="#272B4C" points="53.4492604 4.70055915 53.4310177 4.69313954 53.4372586 4.68236915 54.9345961 5.55979728 54.8162589 5.7606053 53.3304431 4.88963941"></polygon>
                                                                                        <polygon id="Fill-98" fill="#141832" points="53.3303951 4.88951973 54.8162109 5.76048563 54.6981138 5.96105431 53.2010163 5.08362618 53.2062971 5.07429183 53.2115778 5.07836065"></polygon>
                                                                                        <path d="M52.7884444,4.57188884 L52.7922849,4.5654266 C52.8290103,4.50295831 52.9065415,4.47710936 52.9737513,4.50463371 L53.4310177,4.69299594 L53.3191615,4.88303356 L52.7884444,4.57188884 Z" id="Fill-99" fill="#404766"></path>
                                                                                        <path d="M53.3191615,4.8829857 L53.2063451,5.07422003 L52.8198889,4.76355399 C52.7637208,4.71831833 52.7490786,4.63861741 52.7855639,4.57638847 L52.7884444,4.57184097 L53.3191615,4.8829857 Z" id="Fill-100" fill="#363B5B"></path>
                                                                                        <polygon id="Fill-101" fill="#231F20" points="53.3303951 4.88951973 53.3191135 4.8830575 53.4309697 4.69301987 53.4492124 4.70043948"></polygon>
                                                                                        <polygon id="Fill-102" fill="#231F20" points="53.3303951 4.88951973 53.2115778 5.07836065 53.2062971 5.07429183 53.3191135 4.8830575"></polygon>
                                                                                        <polygon id="Fill-103" fill="#404766" points="54.3106975 6.21035304 54.589378 6.29867027 55.2065076 5.25154859 54.9081443 5.19649991"></polygon>
                                                                                        <path d="M53.3688487,5.92086877 L53.5699979,6.03862508 L54.3481909,4.71841407 L54.1439213,4.59874302 C54.0510278,4.54417302 53.9312504,4.58390381 53.8894843,4.68323078 L53.3688487,5.92086877 Z" id="Fill-104" fill="#404766"></path>
                                                                                        <path d="M53.2689942,6.91902106 C53.3832508,6.98603685 53.4214163,7.13275355 53.3542066,7.24668039 L53.2430704,7.43552131 C53.1756206,7.54944815 53.0284792,7.58750354 52.9142226,7.5207271 L52.8138881,7.46184894 L53.1686596,6.8601429 L53.2689942,6.91902106 Z" id="Fill-105" fill="#F6921E"></path>
                                                                                        <path d="M53.068349,6.80145622 L53.1686836,6.86033438 L52.8139121,7.46180107 L52.7135775,7.40316226 C52.5993209,7.33614647 52.5611553,7.18942976 52.6283651,7.07550292 L52.7397413,6.88642267 C52.806711,6.77249583 52.9538524,6.73444043 53.068349,6.80145622" id="Fill-106" fill="#F16522"></path>
                                                                                        <polygon id="Fill-107" fill="#272B4C" points="46.7995264 16.2906524 46.7995264 26.6936567 47.1298144 26.6936567 47.1298144 16.3976383 53.7516563 6.26724466 53.4319298 6.07864308 46.8374519 16.2655215 46.8458531 16.2906524"></polygon>
                                                                                        <polygon id="Fill-108" fill="#272B4C" points="46.0470891 27.0578636 47.8811955 27.0578636 47.8811955 26.6440411 46.0470891 26.6440411"></polygon>
                                                                                        <path d="M64.3544285,14.2807771 L44.0770029,14.2807771 C43.3295343,14.2807771 42.7236863,14.8851159 42.7236863,15.6304272 L42.7236863,32.1048226 L65.7079851,32.1048226 L65.7079851,15.6304272 C65.7079851,14.8851159 65.1018971,14.2807771 64.3544285,14.2807771 L64.3544285,14.2807771 Z M64.3544285,14.6771277 C64.8815451,14.6771277 65.3104874,15.104832 65.3104874,15.6304272 L65.3104874,31.7084721 L43.120944,31.7084721 L43.120944,15.6304272 C43.120944,15.104832 43.5498863,14.6771277 44.0770029,14.6771277 L64.3544285,14.6771277 Z" id="Fill-109" fill="#363B5B"></path>
                                                                                        <polygon id="Fill-110" fill="#363B5B" points="42.9885648 17.6545912 65.3106074 17.6545912 65.3106074 17.2584801 42.9885648 17.2584801"></polygon>
                                                                                        <polygon id="Fill-111" fill="#363B5B" points="42.9885648 22.272697 65.3106074 22.272697 65.3106074 21.8765858 42.9885648 21.8765858"></polygon>
                                                                                        <polygon id="Fill-112" fill="#363B5B" points="42.9885648 26.8910422 65.3106074 26.8910422 65.3106074 26.494931 42.9885648 26.494931"></polygon>
                                                                                        <polygon id="Fill-113" fill="#4CB64A" points="43.9158195 32.1048704 64.5156119 32.1048704 64.5156119 14.280825 43.9158195 14.280825"></polygon>
                                                                                        <polygon id="Fill-114" fill="#141832" points="37.3563866 32.2073089 37.7452431 32.2073089 37.7452431 19.9635245 37.3563866 19.9635245"></polygon>
                                                                                        <polygon id="Fill-115" fill="#141832" points="36.0968997 33.8986437 35.8218197 33.624597 37.5402293 31.5478256 37.7593812 31.9166518"></polygon>
                                                                                        <polygon id="Fill-116" fill="#141832" points="39.0047301 33.8986437 39.27981 33.624597 37.5614004 31.5478256 37.3283265 31.8802718"></polygon>
                                                                                        <polygon id="Fill-117" fill="#141832" points="35.5597256 33.903287 36.5621112 33.903287 36.5621112 33.5217757 35.5597256 33.5217757"></polygon>
                                                                                        <polygon id="Fill-118" fill="#141832" points="38.5392784 33.903287 39.5416641 33.903287 39.5416641 33.5217757 38.5392784 33.5217757"></polygon>
                                                                                        <polygon id="Fill-119" fill="#231F20" points="36.7114129 19.1306139 38.460787 19.1306139 38.460787 14.7513716 36.7114129 14.7513716"></polygon>
                                                                                        <path d="M36.808387,19.0339197 L38.364293,19.0339197 L38.364293,14.8475871 L36.808387,14.8475871 L36.808387,19.0339197 Z M36.6146789,19.2270688 L38.5577611,19.2270688 L38.5577611,14.6546774 L36.6146789,14.6546774 L36.6146789,19.2270688 Z" id="Fill-120" fill="#141832"></path>
                                                                                        <polygon id="Fill-121" fill="#231F20" points="35.390261 17.8130357 39.782179 17.8130357 39.782179 16.0687105 35.390261 16.0687105"></polygon>
                                                                                        <path d="M35.4869951,17.7165808 L39.6854449,17.7165808 L39.6854449,16.1651653 L35.4869951,16.1651653 L35.4869951,17.7165808 Z M35.2935269,17.9094906 L39.8791531,17.9094906 L39.8791531,15.9720163 L35.2935269,15.9720163 L35.2935269,17.9094906 Z" id="Fill-122" fill="#141832"></path>
                                                                                        <path d="M35.9121688,16.9136599 C35.9121688,16.0118189 36.6478757,15.2782353 37.5523271,15.2782353 C38.4570185,15.2782353 39.1924853,16.0118189 39.1924853,16.9136599 C39.1924853,17.8155009 38.4570185,18.5490845 37.5523271,18.5490845 C36.6478757,18.5490845 35.9121688,17.8155009 35.9121688,16.9136599 Z" id="Fill-123" fill="#FBB03A"></path>
                                                                                        <path d="M37.5523271,15.0965029 C36.5461009,15.0965029 35.7299824,15.9100267 35.7299824,16.9135881 C35.7299824,17.9171495 36.5461009,18.7306733 37.5523271,18.7306733 C38.5587933,18.7306733 39.3749118,17.9171495 39.3749118,16.9135881 C39.3749118,15.9100267 38.5587933,15.0965029 37.5523271,15.0965029 M37.5523271,15.4600635 C38.3564439,15.4600635 39.0102989,16.1120314 39.0102989,16.9135881 C39.0102989,17.7151448 38.3564439,18.367352 37.5523271,18.367352 C36.7484503,18.367352 36.0945953,17.7151448 36.0945953,16.9135881 C36.0945953,16.1120314 36.7484503,15.4600635 37.5523271,15.4600635" id="Fill-124" fill="#363B5B"></path>
                                                                                        <path d="M36.5045269,17.0181327 C36.4464384,17.0181327 36.3996316,16.9712217 36.3996316,16.9135402 C36.3996316,16.2797623 36.9166667,15.7642195 37.5522791,15.7642195 C37.6101275,15.7642195 37.6574143,15.8108912 37.6574143,15.8685726 C37.6574143,15.9262541 37.6101275,15.9731651 37.5522791,15.9731651 C37.0323635,15.9731651 36.6094221,16.3948859 36.6094221,16.9135402 C36.6094221,16.9712217 36.5623753,17.0181327 36.5045269,17.0181327" id="Fill-125" fill="#FFCF9F"></path>
                                                                                        <polygon id="Fill-126" fill="#272B4C" points="37.5877322 13.3383676 37.5831716 15.0101722 36.4350848 15.0101722 36.0707118 14.6128643 36.0829536 14.6128643 36.5205372 13.3383676"></polygon>
                                                                                        <polygon id="Fill-127" fill="#272B4C" points="37.5877322 13.3383676 37.5920528 15.0101722 38.7401396 15.0101722 39.1045126 14.6128643 39.0922708 14.6128643 38.6546872 13.3383676"></polygon>
                                                                                        <polygon id="Fill-128" fill="#272B4C" points="41.138088 16.9487235 39.4614444 16.944176 39.4614444 15.7996421 39.8599023 15.4360814 39.8599023 15.4485272 41.138088 15.8846085"></polygon>
                                                                                        <polygon id="Fill-129" fill="#272B4C" points="41.138088 16.9487235 39.4614444 16.9530317 39.4614444 18.0978049 39.8599023 18.4613656 39.8599023 18.4489198 41.138088 18.0128385"></polygon>
                                                                                        <polygon id="Fill-130" fill="#272B4C" points="37.517162 20.4888325 37.5217226 18.8170279 38.6698094 18.8170279 39.0341823 19.2143358 39.0219406 19.2143358 38.584357 20.4888325"></polygon>
                                                                                        <polygon id="Fill-131" fill="#272B4C" points="37.517162 20.4888325 37.5128413 18.8170279 36.3647546 18.8170279 36.0003816 19.2143358 36.0126234 19.2143358 36.450207 20.4888325"></polygon>
                                                                                        <polygon id="Fill-132" fill="#272B4C" points="33.9668062 16.8785963 35.6434498 16.8829044 35.6434498 18.0276777 35.2449919 18.390999 35.2449919 18.3787925 33.9668062 17.9427112"></polygon>
                                                                                        <polygon id="Fill-133" fill="#272B4C" points="33.9668062 16.8785963 35.6434498 16.8740488 35.6434498 15.7292755 35.2449919 15.3659542 35.2449919 15.3781607 33.9668062 15.8144813"></polygon>
                                                                                        <path d="M64.5126595,3.14026407 L64.1554876,3.10077263 L63.7102229,3.34897038 L64.1494867,3.62493182 C64.268544,3.6998459 64.7054075,3.77619603 64.8268651,3.70511142 L66.7814691,2.3183633 C66.8546797,2.27552107 66.8789232,2.18169897 66.836197,2.10869963 L66.8345168,2.10606686 C66.7915505,2.03306752 66.6974569,2.00865463 66.6242462,2.05149686 L64.9113574,3.05529763 C64.7910999,3.1256642 64.6511596,3.15534262 64.5126595,3.14026407" id="Fill-134" fill="#141832"></path>
                                                                                        <path d="M77.0134594,20.5785858 C77.0084187,20.5692514 68.9708511,7.47293048 68.3064346,6.0864217 C67.7848388,4.99765449 67.8182037,4.43783333 67.8796526,3.42110809 C67.8981353,3.11163876 67.9194984,2.76100258 67.9293398,2.3364097 C67.971826,0.538232512 67.3069294,0.323303307 67.1019396,0.299847781 C66.9346353,0.281179098 66.498492,0.551875011 66.3446296,0.657903561 L66.2944623,0.584904221 C66.353991,0.543976722 66.8818277,0.185920942 67.1120211,0.212009231 C67.3986227,0.244559756 68.061119,0.516452381 68.0179127,2.33880312 C68.0078312,2.76459271 67.9869482,3.1164256 67.9679854,3.42661296 C67.9058164,4.46104951 67.8746119,4.98018252 68.3866062,6.04812697 C69.0493425,7.43176364 77.0854699,20.5259305 77.0905106,20.5350255 L77.0134594,20.5785858 Z" id="Fill-135" fill="#363B5B"></path>
                                                                                        <path d="M62.0281546,1.82857363 L59.2046244,3.87542726 C59.0658843,3.97595094 59.0601234,4.22749949 59.1914225,4.45008764 L59.3664079,4.74711119 L63.3029798,2.43961401 L62.9563694,1.85155048 C62.8125885,1.60766088 62.1800967,1.71847627 62.0281546,1.82857363" id="Fill-136" fill="#404766"></path>
                                                                                        <path d="M59.5408413,5.04308163 C59.6721403,5.26566978 59.8953728,5.38294741 60.0509154,5.31114478 L63.2179354,3.84756784 C63.3886002,3.76882429 63.793539,3.27171075 63.6497581,3.02782115 L63.3029078,2.43951828 L59.3663359,4.74701545 L59.5408413,5.04308163 Z" id="Fill-137" fill="#363B5B"></path>
                                                                                        <polygon id="Fill-138" fill="#272B4C" points="65.679541 0.604266997 65.7105055 0.591581865 65.699944 0.573391866 63.1390119 2.07406682 63.3413613 2.41728339 65.8828505 0.92737883"></polygon>
                                                                                        <polygon id="Fill-139" fill="#141832" points="65.8827785 0.927402764 63.3412893 2.41730733 63.5433987 2.76004521 66.1040907 1.25937025 66.0949693 1.24357368 66.0860881 1.2505146"></polygon>
                                                                                        <path d="M66.8096252,0.384215871 L66.8033843,0.373445477 C66.7400151,0.266220216 66.6075158,0.221941928 66.4925391,0.269331664 L65.7105055,0.591486129 L65.9020533,0.916273356 L66.8096252,0.384215871 Z" id="Fill-140" fill="#404766"></path>
                                                                                        <path d="M65.9020053,0.916201554 L66.0949934,1.24362154 L66.7558093,0.712042744 C66.8520633,0.634735246 66.877027,0.49831025 66.8143779,0.392042358 L66.8095772,0.384144068 L65.9020053,0.916201554 Z" id="Fill-141" fill="#363B5B"></path>
                                                                                        <polygon id="Fill-142" fill="#231F20" points="65.8827785 0.927402764 65.9019813 0.916153685 65.7104335 0.5916058 65.679469 0.604290931"></polygon>
                                                                                        <polygon id="Fill-143" fill="#231F20" points="65.8827785 0.927402764 66.0860881 1.2505146 66.0949693 1.24357368 65.9019813 0.916153685"></polygon>
                                                                                        <polygon id="Fill-144" fill="#404766" points="64.206039 3.18655283 63.7295697 3.3375777 62.6736563 1.54634143 63.1839705 1.45251933"></polygon>
                                                                                        <path d="M65.816913,2.69137797 L65.472703,2.89290401 L64.1417096,0.634711312 L64.4912004,0.430073817 C64.6503435,0.336969741 64.8550932,0.404942897 64.9266236,0.574636445 L65.816913,2.69137797 Z" id="Fill-145" fill="#404766"></path>
                                                                                        <path d="M65.9877938,4.39846155 C65.7926454,4.51310642 65.7271159,4.76393694 65.8420926,4.9587614 L66.0324403,5.28187324 C66.1471769,5.47693705 66.3989735,5.5420381 66.5943619,5.42763258 L66.7659868,5.32686955 L66.1594187,4.29793787 L65.9877938,4.39846155 Z" id="Fill-146" fill="#F6921E"></path>
                                                                                        <path d="M66.3309716,4.19743812 L66.1593467,4.2979618 L66.7659148,5.32689349 L66.9375397,5.2263698 C67.1331682,5.11196428 67.1984576,4.86089442 67.0834809,4.66606995 L66.8931333,4.34295812 C66.7781566,4.14789431 66.52636,4.08279326 66.3309716,4.19743812" id="Fill-147" fill="#F16522"></path>
                                                                                        <polygon id="Fill-148" fill="#272B4C" points="77.0521291 20.426436 77.0521291 38.2184096 76.487087 38.2184096 76.487087 20.6095327 65.1624819 3.28379753 65.7092813 2.96092504 76.9873196 20.3833544 76.9729175 20.426436"></polygon>
                                                                                        <polygon id="Fill-149" fill="#272B4C" points="75.2024444 38.8413931 78.33922 38.8413931 78.33922 38.1336586 75.2024444 38.1336586"></polygon>
                                                                                        <polygon id="Fill-150" fill="#272B4C" points="62.0946202 42.6100738 63.6651684 42.6100738 63.6651684 42.1550845 62.0946202 42.1550845"></polygon>
                                                                                        <polygon id="Fill-151" fill="#272B4C" points="68.316324 42.6100738 69.8868722 42.6100738 69.8868722 42.1550845 68.316324 42.1550845"></polygon>
                                                                                        <path d="M70.3304566,37.0438861 C67.5477324,38.3892281 64.4342401,38.3892281 61.6515159,37.0438861 L61.6515159,36.5802805 C64.5177722,37.0860103 67.4639602,37.0860103 70.3304566,36.5802805 L70.3304566,37.0438861 Z" id="Fill-152" fill="#272B4C"></path>
                                                                                        <polygon id="Fill-153" fill="#141832" points="62.4318692 36.7911887 62.9462639 36.7911887 62.9462639 32.6713932 62.4318692 32.6713932"></polygon>
                                                                                        <polygon id="Fill-154" fill="#141832" points="69.0352285 36.7911887 69.5496232 36.7911887 69.5496232 32.6713932 69.0352285 32.6713932"></polygon>
                                                                                        <path d="M69.5496232,33.0670257 C67.1917607,33.439442 64.7899718,33.439442 62.4321093,33.0670257 L62.4321093,29.3373577 C64.7899718,29.7097741 67.1917607,29.7097741 69.5496232,29.3373577 L69.5496232,33.0670257 Z" id="Fill-155" fill="#272B4C"></path>
                                                                                        <polygon id="Fill-156" fill="#272B4C" points="61.6860809 36.9350333 62.2038361 36.9350333 62.2038361 34.278336 61.6860809 34.278336"></polygon>
                                                                                        <polygon id="Fill-157" fill="#5C5F6D" points="60.9890196 34.659608 62.9611461 34.659608 62.9611461 34.1632125 60.9890196 34.1632125"></polygon>
                                                                                        <polygon id="Fill-158" fill="#272B4C" points="69.6694246 42.3826749 68.9555609 42.3826749 61.9736667 37.6472915 62.6872903 37.6472915"></polygon>
                                                                                        <polygon id="Fill-159" fill="#363B5B" points="61.3147469 37.6473154 62.8178453 37.6473154 62.8178453 36.2643968 61.3147469 36.2643968"></polygon>
                                                                                        <polygon id="Fill-160" fill="#272B4C" points="69.7778964 36.9350333 70.2956516 36.9350333 70.2956516 34.278336 69.7778964 34.278336"></polygon>
                                                                                        <polygon id="Fill-161" fill="#5C5F6D" points="69.0205863 34.659608 70.9927128 34.659608 70.9927128 34.1632125 69.0205863 34.1632125"></polygon>
                                                                                        <polygon id="Fill-162" fill="#272B4C" points="62.3122599 42.3826749 63.0261236 42.3826749 70.0082578 37.6472915 69.2943941 37.6472915"></polygon>
                                                                                        <polygon id="Fill-163" fill="#363B5B" points="69.1638872 37.6473154 70.6672255 37.6473154 70.6672255 36.2643968 69.1638872 36.2643968"></polygon>
                                                                                        <path d="M63.9062528,31.949681 C64.0796495,31.9539892 64.1635767,31.8898455 64.1635767,31.7687384 L64.1635767,31.0873314 C64.1635767,30.9662243 64.0796495,30.8982512 63.9034817,30.8937037 C63.8163874,30.8915496 63.730085,30.8893955 63.6433867,30.8870021 L63.6433867,31.9427401 C63.7312726,31.9451335 63.8183669,31.9475269 63.9062528,31.949681 M63.9098158,30.7594328 C64.247108,30.7678097 64.4018981,30.8958578 64.4018981,31.1002559 L64.4018981,31.7682597 C64.4018981,31.9707431 64.247108,32.0925683 63.9098158,32.0841913 C63.7403779,32.0798831 63.5709401,32.0753356 63.4018981,32.0705488 L63.4018981,30.7460296 C63.5709401,30.7508164 63.7403779,30.7553639 63.9098158,30.7594328" id="Fill-164" fill="#FBB03A"></path>
                                                                                        <path d="M64.2916114,30.7805427 L64.2916114,32.1053013 C64.2428843,32.1036259 64.1941572,32.1019505 64.1451901,32.1005144 L64.1451901,30.7757559 C64.1941572,30.7774313 64.2428843,30.7791067 64.2916114,30.7805427" id="Fill-165" fill="#FBB03A"></path>
                                                                                        <path d="M64.8577566,31.4160678 C65.0472838,31.4189399 65.1606093,31.3823206 65.1606093,31.238476 L65.1606093,31.111864 C65.1606093,30.9924323 65.0902693,30.929246 64.9128563,30.9268526 C64.8350915,30.9256559 64.7577176,30.9244591 64.6803436,30.9232624 L64.6803436,31.413435 C64.739351,31.4143924 64.7987492,31.4153498 64.8577566,31.4160678 M64.918718,30.7925816 C65.2555683,30.7971291 65.3962482,30.9043544 65.3962482,31.101333 L65.3962482,31.2090369 C65.3962482,31.3547962 65.3134034,31.4447889 65.1297379,31.4785361 C65.3255175,31.5168308 65.3993745,31.6159185 65.3993745,31.7578483 L65.3993745,31.9641612 C65.3993745,32.0228 65.4025007,32.0776094 65.4419692,32.1235631 C65.361469,32.1226057 65.2809688,32.1218877 65.2004686,32.1206909 C65.1731142,32.0826356 65.1606093,32.0484096 65.1606093,31.9596137 L65.1606093,31.7513861 C65.1606093,31.6017973 65.0472838,31.5532108 64.8487688,31.5503387 C64.7924968,31.5493814 64.7362248,31.5486633 64.6803436,31.547706 L64.6803436,32.1135107 C64.6010157,32.112314 64.5212971,32.1108779 64.4419692,32.1096812 L64.4419692,30.7849227 C64.6010157,30.7877948 64.7600622,30.7901882 64.918718,30.7925816" id="Fill-166" fill="#FBB03A"></path>
                                                                                        <path d="M65.6500167,31.3924687 L65.6500167,31.5248249 C65.5429612,31.5243462 65.4356656,31.5231495 65.32861,31.5219528 L65.32861,31.9932173 C65.4601491,31.9946534 65.5916882,31.9958501 65.7232273,31.9965681 L65.7232273,32.1308391 C65.5429612,32.130121 65.3624549,32.1282063 65.1819487,32.1255735 L65.1819487,30.800815 C65.3624549,30.8036871 65.5429612,30.8053625 65.7232273,30.8063199 L65.7232273,30.9405908 C65.5916882,30.9398728 65.4601491,30.9389154 65.32861,30.93724 L65.32861,31.3895966 C65.4356656,31.3907933 65.5429612,31.3917507 65.6500167,31.3924687" id="Fill-167" fill="#FBB03A"></path>
                                                                                        <path d="M66.4387953,31.124956 L66.4387953,31.2441484 C66.3927086,31.2446271 66.3461418,31.2448664 66.2998151,31.2451057 L66.2998151,31.1184938 C66.2998151,30.9990621 66.2530083,30.9274988 66.1457127,30.9279775 C66.0405774,30.9282168 65.9918504,31.0000194 65.9918504,31.1192118 L65.9918504,31.8192874 C65.9918504,31.9384798 66.0405774,32.0105218 66.1457127,32.0102824 C66.2530083,32.0100431 66.2998151,31.9377618 66.2998151,31.8185694 L66.2998151,31.6462431 C66.3461418,31.6460038 66.3927086,31.6457644 66.4387953,31.6452857 L66.4387953,31.8099531 C66.4387953,32.0105218 66.3449417,32.1440747 66.1421122,32.1445534 C65.940963,32.145032 65.8468693,32.0121972 65.8468693,31.8116285 L65.8468693,31.1266314 C65.8468693,30.9258234 65.940963,30.7939459 66.1421122,30.7934672 C66.3449417,30.7929885 66.4387953,30.9243873 66.4387953,31.124956" id="Fill-168" fill="#FBB03A"></path>
                                                                                        <path d="M66.7636825,32.1262676 L66.7636825,30.9360194 C66.6830308,30.9372161 66.602139,30.9381734 66.5212473,30.9388915 L66.5212473,30.8046206 C66.7317579,30.8024665 66.9422684,30.799355 67.152779,30.7948075 L67.152779,30.9293178 C67.0718873,30.9309932 66.9909955,30.9324292 66.9103438,30.9338653 L66.9103438,32.1241135 C66.8613767,32.1248316 66.8126496,32.1257889 66.7636825,32.1262676" id="Fill-169" fill="#FBB03A"></path>
                                                                                        <path d="M67.4824323,31.8019591 C67.4824323,31.9230662 67.5667936,31.9917574 67.7410873,31.9888853 C67.9185644,31.9860132 67.9997423,31.9144499 67.9997423,31.7933428 L67.9997423,31.0930278 C67.9997423,30.9738354 67.9185644,30.9034688 67.7410873,30.9065803 C67.5667936,30.9094524 67.4824323,30.9826911 67.4824323,31.1018834 L67.4824323,31.8019591 Z M67.24248,31.1128932 C67.24248,30.9101704 67.4080192,30.7778142 67.7410873,30.7723094 C68.0773388,30.7665652 68.24248,30.8934165 68.24248,31.0958999 L68.24248,31.7811363 C68.24248,31.9814657 68.0773388,32.1176513 67.7410873,32.1233955 C67.4080192,32.1289004 67.24248,31.9984589 67.24248,31.7978903 L67.24248,31.1128932 Z" id="Fill-170" fill="#FBB03A"></path>
                                                                                        <path d="M68.4001549,31.38615 C68.5897561,31.3813632 68.7031259,31.3404357 68.7031259,31.1965911 L68.7031259,31.0697398 C68.7031259,30.9505474 68.6327585,30.8902332 68.455667,30.8945414 C68.3778718,30.8966955 68.3004676,30.8983709 68.2230634,30.9002856 L68.2230634,31.3904582 C68.2820939,31.3890222 68.3411244,31.3875861 68.4001549,31.38615 M68.461531,30.7600311 C68.798122,30.7514148 68.9384661,30.8531352 68.9384661,31.0501137 L68.9384661,31.1578177 C68.9384661,31.303577 68.8559797,31.3966811 68.6722424,31.4376086 C68.8680986,31.4684837 68.9415935,31.5646993 68.9415935,31.7063898 L68.9415935,31.9127027 C68.9415935,31.9715808 68.9447209,32.0261508 68.9845958,32.0704291 C68.9040642,32.0728225 68.8235325,32.0749766 68.7430009,32.07737 C68.7156357,32.0400327 68.7031259,32.0065248 68.7031259,31.9174895 L68.7031259,31.7095012 C68.7031259,31.5599124 68.5897561,31.5156341 68.3911635,31.5206603 C68.3348695,31.521857 68.2785755,31.5232931 68.2230634,31.5247291 L68.2230634,32.0905338 C68.1433136,32.0924486 68.0639547,32.094124 67.9845958,32.0960387 L67.9845958,30.7715195 C68.1433136,30.7679294 68.3024223,30.7640999 68.461531,30.7600311" id="Fill-171" fill="#FBB03A"></path>
                                                                                        <path d="M76.4602511,22.8780411 L79.3260274,23.9849983 C79.3260274,23.9849983 81.657006,23.2552442 81.8694368,23.1415567 C82.173321,22.9788041 82.5372138,22.975932 82.8458987,23.1298289 L82.8502193,23.131983 C82.8502193,23.131983 82.9265504,23.194212 82.9663962,23.2265232 C83.3480516,23.5364712 83.3413307,23.9471822 82.9085478,24.1812588 C81.5204261,24.9323143 79.2717795,25.0883653 79.2717795,25.0883653 C79.0699102,25.1374305 76.6256351,23.9651329 76.6256351,23.9651329 L76.4602511,22.8780411 Z" id="Fill-172" fill="#7496B3"></path>
                                                                                        <path d="M75.7239681,23.5451114 C75.7191674,23.5137576 75.7172471,23.4826431 75.7179672,23.4520073 C75.7203676,23.3038546 75.7834968,23.1664722 75.8859917,23.0676239 C75.929438,23.0254997 75.9803254,22.9905558 76.0367335,22.9644675 C76.0833003,22.9429267 76.1332276,22.9273695 76.1867553,22.9192318 L76.4601551,22.878065 L76.6257791,23.9649175 L76.3514193,24.0063236 C76.3144539,24.0118285 76.2779686,24.0137433 76.2417233,24.0118285 C76.184355,24.0089564 76.1289069,23.997468 76.0768194,23.9780813 C75.895353,23.9103475 75.7551726,23.7495096 75.7239681,23.5451114" id="Fill-173" fill="#EECA93"></path>
                                                                                        <path d="M81.0230259,38.3376977 L82.1809541,38.3376977 C82.4277099,38.3376977 82.3612203,37.45285 82.455554,37.3463427 L82.8624131,38.4303231 C82.9605873,38.6296951 82.6732656,38.8240408 82.2798485,38.8240408 L81.1221603,38.8240408 C80.789952,38.8240408 80.5206329,38.8570701 80.5206329,38.6830683 L80.5206329,38.4140478 C80.6269684,38.5035618 80.8074746,38.3376977 81.0230259,38.3376977" id="Fill-174" fill="#0A2138"></path>
                                                                                        <path d="M82.5361337,37.7680874 L82.7267214,38.1548643 C82.6323877,38.2611322 82.4276379,38.3377216 82.1811221,38.3377216 C82.1811221,38.3377216 80.6268963,38.5035857 80.5208009,38.4140718 L82.5361337,37.7680874 Z" id="Fill-175" fill="#05101C"></path>
                                                                                        <path d="M82.1922597,38.0699696 L82.2138629,38.0697303 C82.8072291,38.0603959 83.0086183,37.5726167 82.9978168,36.9809631 L83.109913,29.9960033 C83.1912849,28.96037 81.1773923,28.5630621 81.1773923,28.5630621 L80.6944422,31.7810166 L80.8324622,37.0288315 C80.8478244,37.6149803 81.6046544,38.0790646 82.1922597,38.0699696" id="Fill-176" fill="#21618B"></path>
                                                                                        <path d="M82.9824545,21.2885462 C82.9824545,21.2885462 82.8977222,22.3404548 83.4197981,23.6702395 C83.6475911,24.2501654 83.0755881,27.9733711 83.0755881,27.9733711 L81.374941,27.9733711 C81.374941,27.9733711 81.1315457,25.451184 81.1850734,24.7389019 C81.29885,23.2262599 81.8917361,23.1022807 82.1267302,22.6755337 C82.1924998,22.5558627 81.8228461,21.2507302 81.8228461,21.2507302 L82.9824545,21.2885462 Z" id="Fill-177" fill="#EAA563"></path>
                                                                                        <path d="M83.3359299,23.2402135 C83.1319002,22.3180284 81.7456989,22.4317159 81.2668293,23.2402135 C80.5128798,24.5127955 80.7061079,24.4139472 80.7229103,25.9641659 C80.8107631,27.1838533 80.9941497,29.9961229 80.9941497,29.9961229 L83.1100571,29.9961229 C83.1100571,29.9961229 83.3769758,28.8973034 83.1122174,27.6445868 C83.0442875,27.3236291 83.8272813,25.4610689 83.3359299,23.2402135" id="Fill-178" fill="#21618B"></path>
                                                                                        <path d="M77.2823225,20.4049192 L79.4368755,22.5903519 C79.4368755,22.5903519 81.8621878,22.8828279 82.1027027,22.8663133 C82.4469127,22.8428578 82.7796011,22.9895745 82.9973127,23.2566803 L83.0001931,23.2602704 C83.0001931,23.2602704 83.0443595,23.3483483 83.0674029,23.394302 C83.2870348,23.8334947 83.1110892,24.2047143 82.6202179,24.2403763 C81.0451091,24.3547818 78.9316021,23.5735692 78.9316021,23.5735692 C78.7270924,23.5355138 76.9844392,21.4632899 76.9844392,21.4632899 L77.2823225,20.4049192 Z" id="Fill-179" fill="#7496B3"></path>
                                                                                        <path d="M76.336009,20.7104154 C76.3446503,20.680019 76.3554518,20.6505799 76.3688938,20.6230555 C76.432263,20.4892633 76.5465196,20.3899363 76.6809391,20.3415892 C76.7378274,20.3214845 76.7985562,20.3104748 76.8609653,20.3097567 C76.9118527,20.309278 76.9639402,20.3155009 77.0160278,20.3301008 L77.2822265,20.4050149 L76.9843432,21.4633856 L76.7174244,21.3884716 C76.6811792,21.3784192 76.6470942,21.3647767 76.6149295,21.3485014 C76.5638021,21.3224132 76.5181955,21.2889053 76.4785897,21.2496532 C76.3410498,21.1137068 76.2798409,20.909548 76.336009,20.7104154" id="Fill-180" fill="#EECA93"></path>
                                                                                        <path d="M81.9651147,19.7924188 C82.104575,19.3872126 82.7553095,19.0751105 83.2101756,19.2306829 L83.3957226,19.2941085 C83.8503486,19.4496809 84.3568222,20.1569368 84.217602,20.562143 L83.6729628,21.6241039 C83.4490103,22.0613819 82.1223376,21.9259143 81.5779385,21.8950391 L81.5757782,21.8988686 L81.5772184,21.8950391 C81.1281132,21.5865272 81.6185044,20.8694582 81.7104377,20.3867052 L81.9651147,19.7924188 Z" id="Fill-181" fill="#FCCA9B"></path>
                                                                                        <path d="M81.6481967,20.8826699 L81.9064742,20.1316144 L81.375037,20.566499 C81.3075872,20.6524228 81.3452727,20.7790348 81.4487277,20.8144574 L81.6481967,20.8826699 Z" id="Fill-182" fill="#FCCA9B"></path>
                                                                                        <path d="M82.3347684,19.2615101 C82.3347684,19.2615101 81.9495125,19.3730436 82.153062,19.6576213 C82.3570917,19.9419597 82.7207445,19.89457 82.6451335,20.140853 C82.4442243,20.7952143 82.7579499,21.1963517 82.7339464,21.2664789 C82.7195443,21.3083638 82.8952499,21.4936146 82.8664457,21.7999724 C82.8506034,21.9660759 83.0243886,22.0843109 83.1727302,22.0077214 C83.571188,21.8011692 84.0152526,21.9478859 84.3016142,21.1142573 L84.3275379,21.0393433 C84.5807747,20.3026483 84.1871175,19.5008522 83.4485302,19.2483463 L83.3429149,19.2122057 C82.8393217,19.0401187 82.3347684,19.2615101 82.3347684,19.2615101" id="Fill-183" fill="#082238"></path>
                                                                                        <path d="M82.5525281,20.3152855 C82.6259787,20.1566017 82.8079252,20.0749861 82.9776298,20.1329069 C83.1583761,20.1948965 83.1504549,20.3626753 83.0882859,20.5431392 C83.0570814,20.6345679 82.7551175,20.9160342 82.6617439,20.8839624 L82.3845037,20.7707535 L82.4517134,20.3899603 L82.5525281,20.3152855 Z" id="Fill-184" fill="#FCCA9B"></path>
                                                                                        <path d="M82.4257177,19.1772378 L83.8721678,21.8291482 L84.1338058,21.6872184 C84.857991,21.2946973 85.1282702,20.3825646 84.734373,19.6607088 L84.7199709,19.6341419 C84.3260737,18.9120467 83.4113008,18.6425475 82.6873557,19.0353079 L82.4257177,19.1772378 Z" id="Fill-185" fill="#3D4B63"></path>
                                                                                        <path d="M84.3333468,22.8600425 C84.3333468,22.8600425 84.2646968,22.9423762 84.0479453,22.7439616 C83.8513567,22.5639764 83.8213524,22.2892116 83.7903879,22.2119041 C83.7594234,22.134836 83.6562084,21.4328456 83.6562084,21.4328456 L84.094032,21.7186201 L84.3333468,22.8600425 Z" id="Fill-186" fill="#3D4B63"></path>
                                                                                        <path d="M57.1170412,34.6423993 C57.0570324,34.6541271 56.9814215,34.6593926 56.9034101,34.6412026 C56.7281847,34.6005144 55.9583928,34.6412026 55.7315599,34.6766252 C55.5068873,34.7115692 55.1602769,34.6005144 55.085146,34.5217709 C55.0635429,34.5545608 55.0709839,34.6225339 55.1005082,34.6560418 C55.1703584,34.7355034 55.5109679,34.9205148 55.7315599,34.8570892 C55.987197,34.7833718 56.7363459,34.8056306 56.9034101,34.8570892 C56.9799813,34.880784 57.0570324,34.8685776 57.1170412,34.8570892 C57.1888116,34.8432073 57.2351383,34.6663335 57.2228965,34.5942915 L57.2228965,34.487545 C57.2080144,34.5313446 57.1655282,34.6328256 57.1170412,34.6423993" id="Fill-187" fill="#25B8C1"></path>
                                                                                        <path d="M57.1013429,33.8875622 L56.4501283,33.8183923 C56.4501283,33.8183923 55.9782197,34.1395894 55.9141304,34.163763 C55.8498011,34.1879365 55.1829842,34.3648103 55.1829842,34.3648103 C55.1829842,34.3648103 55.0305621,34.4698815 55.1004122,34.5493431 C55.1013724,34.5500611 55.1025725,34.5510185 55.1032926,34.5517365 C55.1781835,34.6304801 55.5067912,34.711617 55.7314639,34.6766731 C55.9582968,34.6412505 56.7280887,34.6005623 56.9035541,34.6412505 C56.9813254,34.6594405 57.0569364,34.6541749 57.1169451,34.6424472 C57.1656722,34.6328735 57.2009574,34.5972115 57.2160795,34.5531726 C57.2230406,34.5325891 57.2268811,34.5105697 57.2230406,34.4873535 L57.1637519,34.1403074 L57.1013429,33.8875622 Z" id="Fill-188" fill="#3A8F9B"></path>
                                                                                        <path d="M59.966063,34.6423993 C59.9062943,34.6541271 59.8309234,34.6593926 59.7529121,34.6412026 C59.5776866,34.6005144 58.8074147,34.6412026 58.5805818,34.6766252 C58.3561492,34.7115692 58.0092988,34.6005144 57.9344079,34.5217709 C57.9125647,34.5545608 57.9200058,34.6225339 57.9497701,34.6560418 C58.0196203,34.7355034 58.3599897,34.9205148 58.5805818,34.8570892 C58.836699,34.7833718 59.5856078,34.8056306 59.7529121,34.8570892 C59.8292432,34.880784 59.9062943,34.8685776 59.966063,34.8570892 C60.0378335,34.8432073 60.0846403,34.6663335 60.0721584,34.5942915 L60.0721584,34.487545 C60.0572763,34.5313446 60.0150301,34.6328256 59.966063,34.6423993" id="Fill-189" fill="#25B8C1"></path>
                                                                                        <path d="M59.9503647,33.8875622 L59.2993902,33.8183923 C59.2993902,33.8183923 58.8274816,34.1395894 58.7633923,34.163763 C58.699063,34.1879365 58.0322461,34.3648103 58.0322461,34.3648103 C58.0322461,34.3648103 57.8795839,34.4698815 57.9496741,34.5493431 C57.9503942,34.5500611 57.9515944,34.5510185 57.9525545,34.5517365 C58.0274454,34.6304801 58.3560531,34.711617 58.5804858,34.6766731 C58.8073187,34.6412505 59.5775906,34.6005623 59.7530561,34.6412505 C59.8308274,34.6594405 59.9061983,34.6541749 59.965967,34.6424472 C60.0151742,34.6328735 60.0502193,34.5972115 60.0653414,34.5531726 C60.0723025,34.5325891 60.075903,34.5105697 60.0723025,34.4873535 L60.0130138,34.1403074 L59.9503647,33.8875622 Z" id="Fill-190" fill="#3A8F9B"></path>
                                                                                        <path d="M55.525874,23.515792 C55.525874,23.515792 55.2769579,23.0481176 55.0726882,22.9739215 C54.8688986,22.8994861 54.499725,22.7017895 54.4980447,22.7640185 C54.4963645,22.8262474 54.7147962,23.1472052 54.8381741,23.1553428 C54.961072,23.1632411 54.0590209,22.8710044 54.0590209,22.8710044 C54.0590209,22.8710044 53.8921967,23.0969433 53.9406837,23.1933982 C53.9896509,23.2903318 54.6089408,23.8946706 54.6089408,23.8946706 L55.3686512,23.9451717 L55.525874,23.515792 Z" id="Fill-191" fill="#FFC197"></path>
                                                                                        <path d="M48.5416755,22.0539144 L48.5426356,22.059898 C48.6024043,22.4564878 48.7673082,22.8296222 49.020545,23.1410062 L49.0212651,23.1414849 L50.0971014,24.0320769 C50.2269603,24.1689805 50.4161077,24.2336029 50.6026148,24.2046425 C50.603575,24.2046425 50.6042951,24.2044032 50.6047752,24.2039245 L52.2113285,23.2554117 C52.2113285,23.2554117 52.5742613,23.1431603 52.8253377,22.9212902 C52.9093499,22.8468548 53.0353682,22.3746328 53.0231265,22.2630994 C53.0231265,22.2630994 52.9914419,21.6250134 52.8745449,21.705193 C52.7950933,21.7595236 52.6474719,22.2652535 52.6474719,22.2652535 C52.5908237,22.3416036 52.2185296,22.5287691 52.2185296,22.5287691 C52.2158892,22.5306839 52.1964464,22.3952162 52.1962063,22.3918655 C52.1962063,22.3918655 52.4890489,22.0194491 52.3920748,21.9452531 L52.1354775,22.1501299 C51.9960173,22.2753059 51.9199262,22.4564878 51.9290475,22.643414 L51.9292876,22.6462861 C51.9357685,22.7795997 51.9832954,22.9126739 51.980655,22.9136312 L50.4209084,23.4985833 C50.4189882,23.4993013 50.4170679,23.4988227 50.4161077,23.4973866 L50.0903804,23.1060623 C50.0901404,23.1058229 50.0901404,23.1055836 50.0899004,23.1051049 C49.88059,22.6015291 49.5666243,22.1477365 49.1686465,21.7741235 L49.1624056,21.7683793 C48.8671627,21.6219019 48.6220871,21.7348714 48.5416755,22.0539144" id="Fill-192" fill="#FFC197"></path>
                                                                                        <path d="M55.525874,23.3969347 L56.5056964,23.6676306 L57.1797143,23.7980721 C57.4795178,23.8246391 57.7538777,23.6300539 57.8270883,23.3390139 L58.1585765,22.0238291 C58.2838747,21.556394 58.8520372,21.374494 59.2274517,21.6815699 L59.2392134,21.6913829 C59.4590854,21.8713682 59.5404572,22.1710245 59.4413228,22.4369336 L58.7634643,24.2667039 C58.6614495,24.543144 57.7918032,25.0713721 57.5006409,25.0206315 L55.2008668,24.1400919 L55.525874,23.3969347 Z" id="Fill-193" fill="#8A9100"></path>
                                                                                        <polygon id="Fill-194" fill="#FCB98B" points="58.7972612 21.4744911 59.82101 21.4744911 59.82101 19.8692237 58.7972612 19.8692237"></polygon>
                                                                                        <polygon id="Fill-195" fill="#1574B3" points="58.8877784 34.0738421 60.0603487 34.0738421 59.9974596 30.1416908 60.1232379 26.4634814 58.5212451 26.4634814"></polygon>
                                                                                        <path d="M56.0272829,34.0738421 L57.2725838,34.0738421 L58.1503913,30.5918933 C58.1503913,30.5918933 60.5255363,27.6728771 59.9974596,26.7461445 C59.7375018,26.2897191 57.900995,26.5561068 57.900995,26.5561068 L56.6187288,30.6718336 L56.0272829,34.0738421 Z" id="Fill-196" fill="#319FDD"></path>
                                                                                        <path d="M60.5935622,19.681747 C61.0073823,19.017812 60.8026326,18.1451707 60.1370159,17.7327843 C59.4706791,17.3203979 58.595992,17.5243173 58.1821719,18.1882523 C57.9867835,18.5020298 57.8026768,19.3926217 57.9839031,20.0256816 C58.0448719,20.2377387 58.2781858,20.3480754 58.4586921,20.3502295 C58.4586921,20.3502295 58.9898892,20.327492 59.2174423,20.3387411 C59.7510398,20.365308 60.2927985,20.1645 60.5935622,19.681747" id="Fill-197" fill="#FFD0B0"></path>
                                                                                        <path d="M59.8720654,17.6162486 C59.8720654,17.6162486 58.8219128,17.0906534 58.2400683,18.0250449 C58.0401193,18.345524 57.8068054,18.5851054 57.8068054,18.5851054 C57.8068054,18.5851054 58.4841838,18.5748137 58.850957,18.0523299 C59.0329035,17.7928831 59.3199852,17.8512826 59.3199852,17.8512826 C59.3199852,17.8512826 58.9385698,17.5169217 58.7244587,18.2548133 C58.5103476,18.992705 59.0465855,19.0860485 59.0465855,19.0860485 C59.0465855,19.0860485 59.3413483,18.318239 59.5408173,18.94723 C59.711242,19.483835 59.2537356,19.5092053 59.2537356,19.5092053 C59.2537356,19.5092053 59.8029353,20.0374333 59.8209379,20.2116743 C59.8391806,20.3861547 59.7326051,20.4974488 60.0045646,20.2832376 C60.2765241,20.0695051 60.544163,19.9235065 60.7688356,19.3639246 C60.9939884,18.8038641 60.7004257,17.8192107 59.8720654,17.6162486" id="Fill-198" fill="#071E2B"></path>
                                                                                        <path d="M57.7816017,24.072765 L57.9097803,26.7459769 L60.1233819,26.9642569 L60.3684575,24.3774475 C60.4968761,23.0256433 60.2313976,22.1896214 59.8209379,20.8947806 C59.8209379,20.8947806 59.3423084,21.4811688 58.7971892,21.1472865 C58.7971892,21.1472865 57.4270702,22.0665995 57.7816017,24.072765" id="Fill-199" fill="#A1B400"></path>
                                                                                        <path d="M48.4115766,34.2906143 L48.4514223,34.1687892 C48.4338998,34.2393951 48.4182975,34.3217288 48.4125367,34.4105247 C48.4098963,34.3727086 48.4091762,34.3334565 48.4115766,34.2906143" id="Fill-200" fill="#F9AF7D"></path>
                                                                                        <path d="M48.3079535,26.8083734 C48.3127542,26.7640951 49.2971372,26.8083734 49.2971372,26.8083734 C49.9034653,26.9036316 49.8652997,28.736274 49.7642451,29.6675541 C49.7378412,29.9128798 49.4915654,30.6794925 49.3813894,30.9004053 L49.3770688,30.9090216 C49.1487956,31.3666437 48.9889324,32.158866 49.0220572,32.6691434 L49.0775053,33.5233553 C49.3124994,33.77993 49.756804,34.2861386 50.0918926,34.4639698 C50.1374993,34.4881433 50.1811856,34.5082481 50.2219915,34.5230873 C50.162943,34.5563558 50.0662089,34.5759819 49.9008249,34.5372084 C49.8777815,34.5319429 49.853058,34.5271561 49.8290545,34.5218906 C49.4622812,34.4436257 49.1759196,34.3967146 48.9058804,34.2727354 C48.6187987,34.1403792 48.5196643,33.9594366 48.5196643,33.9594366 L48.600796,33.7090848 L48.3636416,32.7201232 C48.2325826,32.1715511 48.2330626,31.6000022 48.3701225,31.0531055 C48.3715627,31.0476006 48.373003,31.0423351 48.3744432,31.0368303 C48.4718973,30.6514895 48.5117431,30.2539423 48.4879797,29.8571131 L48.3079535,26.8083734 Z" id="Fill-201" fill="#F9AF7D"></path>
                                                                                        <path d="M48.5196403,33.9590776 L48.5196403,33.9590776 L48.4514703,34.1687413 C48.4826749,34.0445227 48.5196403,33.9590776 48.5196403,33.9590776" id="Fill-202" fill="#F9AF7D"></path>
                                                                                        <path d="M48.4125127,34.4106443 C48.4182735,34.3218484 48.4338758,34.2395147 48.4513983,34.1689088 L48.5469322,33.8749967 C48.5469322,33.8749967 48.6225432,34.0365526 48.9098649,34.1689088 C49.1794241,34.292888 49.4621852,34.4436736 49.8289585,34.5219384 C49.8529619,34.5269646 49.8776855,34.5317514 49.9007289,34.5372563 C50.0663529,34.5760297 50.162847,34.5564037 50.2218955,34.5231351 C50.2245359,34.5240925 50.2276564,34.5255286 50.2302968,34.5264859 L50.617473,34.6416095 C50.714207,34.6753567 50.7041256,34.8019687 50.6081116,34.8383487 C50.3150291,34.9498821 50.0764344,34.9154168 49.7850321,34.8965088 C49.4761072,34.8764041 49.3760127,34.7631953 49.075489,34.6547733 L49.0387637,34.8510338 L48.6297442,34.8510338 C48.6297442,34.8510338 48.5272494,34.6705699 48.4857233,34.5585578 C48.4751618,34.5305547 48.4105924,34.4396047 48.4125127,34.4106443" id="Fill-203" fill="#F26522"></path>
                                                                                        <path d="M50.307708,34.346381 L50.3434732,34.2231198 C50.3278709,34.2942044 50.3151491,34.3770168 50.3125087,34.466052 C50.3086681,34.428236 50.3065078,34.3889839 50.307708,34.346381" id="Fill-204" fill="#F9AF7D"></path>
                                                                                        <path d="M48.5416755,26.8712486 C48.5450359,26.8267309 49.529899,26.8394161 49.529899,26.8394161 C50.1393475,26.9150482 50.7809607,28.7476906 50.7103905,29.6818428 C50.6919078,29.9278865 50.6770256,30.7021582 50.5740507,30.9266611 L50.5699701,30.9350381 C50.3568191,31.4000798 50.6364598,32.1968496 50.6859069,32.7056909 L50.9758691,33.5579881 C51.2187843,33.8066646 51.6794113,34.2982732 52.0200207,34.4655734 C52.0665875,34.4880715 52.1107539,34.5065009 52.1520399,34.5203827 C52.0939515,34.5553266 51.9979375,34.5783035 51.8315934,34.5447956 C51.80831,34.5402481 51.7833464,34.5359399 51.7591028,34.5316318 C51.3901692,34.4655734 51.1023674,34.4277573 50.8287277,34.3123944 C50.5370853,34.1896119 50.4321901,34.0115414 50.4321901,34.0115414 L50.5056408,33.7587961 L50.0296516,32.7777329 C49.8803499,32.234187 49.4487672,31.6628774 49.5683046,31.1119119 C49.5697448,31.106407 49.570945,31.1006628 49.5721451,31.0951579 C49.6568775,30.706945 49.4768513,30.3082011 49.4408461,29.9123293 L48.5416755,26.8712486 Z" id="Fill-205" fill="#F9AF7D"></path>
                                                                                        <path d="M50.4321661,34.0115414 L50.4321661,34.0115414 L50.3709572,34.2231198 C50.3978411,34.0979439 50.4321661,34.0115414 50.4321661,34.0115414" id="Fill-206" fill="#F9AF7D"></path>
                                                                                        <path d="M50.3398247,34.4659324 C50.3431852,34.3771365 50.355667,34.2943241 50.3710292,34.2232395 L50.4569617,33.9264553 C50.4569617,33.9264553 50.5378534,34.0853784 50.8290157,34.2084003 C51.1026555,34.3237632 51.3902172,34.4654537 51.7591508,34.5315121 C51.7833944,34.5360596 51.808358,34.5401284 51.8316414,34.5446759 C51.9979855,34.5781838 52.0939995,34.5554463 52.1520879,34.520263 C52.1547283,34.5212204 52.1578488,34.5224171 52.1604891,34.5233745 L52.5510259,34.6258129 C52.6487201,34.6564487 52.6429592,34.7833 52.5483855,34.8227914 C52.2589034,34.9438985 52.0188686,34.9168529 51.7272262,34.9075185 C51.4178213,34.8974662 51.3143662,34.7873688 51.0102421,34.6887599 L50.9802377,34.8862171 L50.5714583,34.8991416 C50.5714583,34.8991416 50.4629626,34.7222678 50.417596,34.6116917 C50.4063143,34.583928 50.3388645,34.4951321 50.3398247,34.4659324" id="Fill-207" fill="#F26522"></path>
                                                                                        <path d="M49.1323773,21.6261861 C48.8728996,21.4454829 48.6962339,21.3169562 48.5080466,21.2930219 C48.4264347,21.2824909 48.3333012,21.266455 48.2538496,21.2513764 C48.2687318,21.1781377 48.2857743,21.1058564 48.3059372,21.0338145 L48.834254,20.4864391 L49.2761581,20.8538292 L49.1448591,21.3291626 L49.4148983,21.6987068 C49.343848,21.7140247 49.2485541,21.7068444 49.1323773,21.6261861" id="Fill-208" fill="#F9AF7D"></path>
                                                                                        <path d="M48.2418479,22.4670189 C48.166717,22.0639668 48.1712776,21.651341 48.2538496,21.251161 C48.3333012,21.2662396 48.4482779,21.24063 48.5303698,21.251161 C48.7183171,21.2750952 49.1323773,21.3121932 49.4148983,21.6987307 L49.8930478,22.3535707 C50.0613122,22.5838178 50.1270818,22.8729431 50.0747542,23.1529733 L49.7859922,24.699602 L51.0413746,28.8395022 L47.781221,29.0127859 C47.781221,29.0127859 47.9554863,26.7835536 47.9691683,26.6543089 C48.0687828,25.7285337 48.5198083,24.7539326 48.5198083,24.7539326 C48.5985397,24.3707459 48.5932589,23.9753528 48.5046861,23.5943202 L48.2418479,22.4670189 Z" id="Fill-209" fill="#2B59A1"></path>
                                                                                        <path d="M48.0053415,19.9743906 C47.7235406,19.4337168 48.1063962,18.7702605 48.68296,18.5684951 C49.2595237,18.366969 49.8905754,18.6694975 50.0926848,19.2441578 C50.1884587,19.5160505 50.1440522,20.2082278 49.9321014,20.6756629 C49.7427139,21.0937936 49.3663392,20.876471 49.2285592,20.8477499 C49.2285592,20.8477499 48.4162812,20.7644589 48.0053415,19.9743906" id="Fill-210" fill="#FFD0B0"></path>
                                                                                        <path d="M48.931252,18.3553131 C48.931252,18.3553131 49.9746836,18.2507206 50.0973414,19.0991883 C50.1791933,19.6657111 49.3042662,19.7707823 49.3042662,19.7707823 C49.3042662,19.7707823 49.2094525,19.136765 48.9511749,19.5819413 C48.7305829,19.9612986 49.0745529,20.0577534 49.0745529,20.0577534 C49.0745529,20.0577534 48.9833396,20.3270133 48.9262113,20.40097 C48.8400388,20.5132215 48.7778698,20.7027804 48.5474363,20.6041714 C48.2644352,20.4830643 47.9828743,20.1123234 47.9067832,19.6484784 C47.8304521,19.1848728 48.0484038,18.5099281 48.931252,18.3553131" id="Fill-211" fill="#071E2B"></path>
                                                                                        <path d="M48.2528655,22.0184918 L47.8061606,22.1027402 C47.8061606,22.1027402 47.5502834,19.5192816 47.9845065,19.0288696 C48.4182495,18.5382183 48.7252541,20.0630668 48.7252541,20.0630668 L49.0745049,20.0578013 L49.0956279,21.1061197 C49.0476209,21.5625451 48.7050912,21.9337647 48.2528655,22.0184918" id="Fill-212" fill="#071E2B"></path>
                                                                                        <path d="M49.0257298,21.9127265 C49.0257298,21.9127265 48.6803196,21.7188594 48.5415794,22.2035272 C48.4033194,22.6881949 48.4890118,23.42848 48.4890118,23.42848 L48.4134008,24.7601795 L49.2439215,26.686644 L49.2439215,27.2438324 C49.2439215,27.2438324 49.3634588,27.7715817 49.4628333,27.8500859 C49.708629,28.0434744 49.8956161,28.0927788 49.9088181,27.9771766 C49.9263406,27.824237 49.7537555,27.5533017 49.7537555,27.5533017 L49.7991221,27.0138247 L49.9282609,27.2017082 C49.9282609,27.2017082 49.963786,27.4508633 50.0314759,27.4865253 C50.0593199,27.5008858 50.1267697,27.304386 50.0962853,27.1775347 C50.0509187,26.9894118 50.0489984,26.9192845 49.9669065,26.8381476 L49.6954271,26.5416027 L49.2439215,25.0624685 L49.0955799,24.747973 L49.3176122,23.2456227 C49.3176122,23.2456227 49.8029627,22.3490472 49.0257298,21.9127265" id="Fill-213" fill="#F9AF7D"></path>
                                                                                        <path d="M59.8809707,26.9677752 C59.8809707,26.9677752 59.4659504,27.2983067 59.4306653,27.5120392 C59.3951401,27.7257717 59.2686417,28.1240369 59.3303307,28.1144632 C59.3917796,28.1044109 59.6678197,27.8306035 59.6529375,27.708539 C59.6380554,27.5862352 59.5168378,28.5244562 59.5168378,28.5244562 C59.5168378,28.5244562 59.7700746,28.6465207 59.8562471,28.5807016 C59.9428997,28.5151219 60.4239295,27.7961382 60.4239295,27.7961382 L60.3331964,27.0426893 L59.8809707,26.9677752 Z" id="Fill-214" fill="#FFC197"></path>
                                                                                        <path d="M60.3190823,21.7078736 C59.7086736,20.672001 59.7309969,21.6260186 59.4933624,22.2463933 C59.2552478,22.866768 60.1628196,24.6378996 60.1628196,24.6378996 L59.7857248,26.9978127 L60.4484611,27.1691816 C60.4484611,27.1691816 61.6932819,24.038587 60.3190823,21.7078736" id="Fill-215" fill="#B4CE46"></path>
                                                                                    </g>
                                                                                </g>
                                                                            </g>
                                                                        </g>
                                                                    </g>
                                                                </g>
                                                            </g>
                                                        </g>
                                                    </g>
                                                </g>
                                            </g>
                                        </g>
                                    </g>
                                </g>
                            </g>
                        </g>
                    </g>
                </g>
            </g>
        </g>
    </g>
</svg>