<?xml version="1.0" encoding="UTF-8"?>
<svg width="89px" height="33px" viewBox="0 0 89 33" version="1.1" xmlns="http://www.w3.org/2000/svg" xmlns:xlink="http://www.w3.org/1999/xlink">
    <!-- Generator: Sketch 53.2 (72643) - https://sketchapp.com -->
    <title>Illustration</title>
    <desc>Created with Sketch.</desc>
    <g id="Web" stroke="none" stroke-width="1" fill="none" fill-rule="evenodd">
        <g id="Illustration" transform="translate(0.869565, 0.000000)">
            <path d="M87.7255549,24.9987158 C87.7255549,29.1491057 68.0874495,32.5136672 43.8628972,32.5136672 C19.6381054,32.5136672 0,29.1491057 0,24.9987158 C0,20.8483259 19.6381054,17.4837644 43.8628972,17.4837644 C68.0874495,17.4837644 87.7255549,20.8483259 87.7255549,24.9987158" id="Fill-1" fill="#EDF2FA"></path>
            <path d="M64.3102247,0.22981806 L44.0467273,0.22981806 C43.2997721,0.22981806 42.6943402,0.836642874 42.6943402,1.58502009 L42.6943402,18.1271847 L65.6628516,18.1271847 L65.6628516,1.58502009 C65.6628516,0.836642874 65.0571799,0.22981806 64.3102247,0.22981806 L64.3102247,0.22981806 Z M64.3102247,0.627799007 C64.8369792,0.627799007 65.2656269,1.05726275 65.2656269,1.58502009 L65.2656269,17.7292037 L43.0913251,17.7292037 L43.0913251,1.58502009 C43.0913251,1.05726275 43.5199727,0.627799007 44.0467273,0.627799007 L64.3102247,0.627799007 Z" id="Fill-109" fill="#363B5B"></path>
            <polygon id="Fill-110" fill="#363B5B" points="42.9590368 3.61751071 65.2657468 3.61751071 65.2657468 3.21977009 42.9590368 3.21977009"></polygon>
            <polygon id="Fill-111" fill="#363B5B" points="42.9590368 8.2546136 65.2657468 8.2546136 65.2657468 7.85687298 42.9590368 7.85687298"></polygon>
            <polygon id="Fill-112" fill="#363B5B" points="42.9590368 12.8919568 65.2657468 12.8919568 65.2657468 12.4942162 42.9590368 12.4942162"></polygon>
            <polygon id="Fill-113" fill="#4CB64A" points="43.8856546 18.1272328 64.4712974 18.1272328 64.4712974 0.229866125 43.8856546 0.229866125"></polygon>
            <path d="M57.0778086,20.6752 C57.0178411,20.686976 56.942282,20.6922632 56.8643243,20.6739984 C56.6892192,20.6331429 55.9199561,20.6739984 55.693279,20.7095667 C55.4687607,20.7446544 55.1223884,20.6331429 55.0473091,20.5540754 C55.0257208,20.5870001 55.0331568,20.6552529 55.0626608,20.6888986 C55.1324629,20.7686871 55.4728384,20.9544596 55.693279,20.890773 C55.9487405,20.8167524 56.6973748,20.8391028 56.8643243,20.890773 C56.9408428,20.9145654 57.0178411,20.9023087 57.0778086,20.890773 C57.1495297,20.8768341 57.1958246,20.6992327 57.1835912,20.6268944 L57.1835912,20.5197087 C57.1687193,20.5636885 57.1262623,20.665587 57.0778086,20.6752" id="Fill-187" fill="#25B8C1"></path>
            <path d="M57.0621211,19.9172578 L56.4113538,19.8478034 C56.4113538,19.8478034 55.9397694,20.1703218 55.8757241,20.1945948 C55.8114389,20.2188678 55.1450801,20.3964692 55.1450801,20.3964692 C55.1450801,20.3964692 54.9927626,20.5019726 55.0625648,20.581761 C55.0635243,20.582482 55.0647236,20.5834433 55.0654433,20.5841643 C55.1402827,20.6632318 55.4686647,20.7447025 55.693183,20.7096148 C55.9198602,20.6740465 56.6891232,20.6331909 56.8644682,20.6740465 C56.9421861,20.6923113 57.0177451,20.6870241 57.0777126,20.6752481 C57.1264062,20.665635 57.1616671,20.6298264 57.1767789,20.5856062 C57.1837352,20.5649382 57.1875731,20.5428281 57.1837352,20.5195164 L57.1244873,20.1710428 L57.0621211,19.9172578 Z" id="Fill-188" fill="#3A8F9B"></path>
            <path d="M59.9248735,20.6752 C59.8651459,20.686976 59.7898267,20.6922632 59.7118689,20.6739984 C59.5367639,20.6331429 58.767021,20.6739984 58.5403439,20.7095667 C58.3160655,20.7446544 57.9694533,20.6331429 57.8946139,20.5540754 C57.8727857,20.5870001 57.8802217,20.6552529 57.9099656,20.6888986 C57.9797677,20.7686871 58.3199034,20.9544596 58.5403439,20.890773 C58.7962852,20.8167524 59.5446796,20.8391028 59.7118689,20.890773 C59.7881476,20.9145654 59.8651459,20.9023087 59.9248735,20.890773 C59.9965946,20.8768341 60.0433693,20.6992327 60.030896,20.6268944 L60.030896,20.5197087 C60.0160241,20.5636885 59.973807,20.665587 59.9248735,20.6752" id="Fill-189" fill="#25B8C1"></path>
            <path d="M59.909186,19.9172578 L59.2586586,19.8478034 C59.2586586,19.8478034 58.7870742,20.1703218 58.7230289,20.1945948 C58.6587437,20.2188678 57.9923849,20.3964692 57.9923849,20.3964692 C57.9923849,20.3964692 57.8398276,20.5019726 57.9098696,20.581761 C57.9105892,20.582482 57.9117886,20.5834433 57.912748,20.5841643 C57.9875875,20.6632318 58.3159695,20.7447025 58.540248,20.7096148 C58.7669251,20.6740465 59.5366679,20.6331909 59.7120129,20.6740465 C59.7897307,20.6923113 59.8650499,20.6870241 59.9247776,20.6752481 C59.9739509,20.665635 60.0089719,20.6298264 60.0240837,20.5856062 C60.03104,20.5649382 60.034638,20.5428281 60.03104,20.5195164 L59.9717921,20.1710428 L59.909186,19.9172578 Z" id="Fill-190" fill="#3A8F9B"></path>
            <path d="M55.4877344,9.5028222 C55.4877344,9.5028222 55.2389892,9.03322391 55.0348598,8.95872264 C54.8312102,8.88398105 54.4622902,8.68547123 54.4606111,8.74795616 C54.458932,8.81044109 54.6772137,9.13271914 54.8005068,9.14089025 C54.9233203,9.14882103 54.0218888,8.85538218 54.0218888,8.85538218 C54.0218888,8.85538218 53.8551792,9.08225055 53.9036329,9.17910219 C53.9525664,9.27643449 54.571431,9.8832593 54.571431,9.8832593 L55.3306195,9.93396823 L55.4877344,9.5028222 Z" id="Fill-191" fill="#FFC197"></path>
            <path d="M48.5083331,8.034931 L48.5092926,8.04093917 C48.5690202,8.43916044 48.7338109,8.8138297 48.9868738,9.12649468 L48.9875934,9.12697534 L50.0626907,10.0212308 C50.1924603,10.1586977 50.3814779,10.2235859 50.5678569,10.1945064 C50.5688164,10.1945064 50.569536,10.194266 50.5700157,10.1937854 L52.1754656,9.24137083 C52.1754656,9.24137083 52.538149,9.12865762 52.789053,8.90587481 C52.8730075,8.83113322 52.9989393,8.35696872 52.9867059,8.2449765 C52.9867059,8.2449765 52.9550431,7.60426563 52.8382264,7.68477506 C52.7588294,7.73932921 52.6113094,8.24713944 52.6113094,8.24713944 C52.5547,8.32380364 52.1826617,8.51173909 52.1826617,8.51173909 C52.1800231,8.5136617 52.1605936,8.37763681 52.1603538,8.37427224 C52.1603538,8.37427224 52.4529952,8.00032396 52.3560877,7.9258227 L52.0996667,8.13154232 C51.9603022,8.25723316 51.8842634,8.43916044 51.8933785,8.62685556 L51.8936183,8.62973948 C51.9000948,8.76360143 51.9475891,8.89722305 51.9449505,8.89818436 L50.3862753,9.48554271 C50.3843563,9.48626369 50.3824374,9.48578304 50.3814779,9.48434108 L50.0559743,9.09140699 C50.0557344,9.09116667 50.0557344,9.09092634 50.0554946,9.09044569 C49.8463279,8.58479839 49.532578,8.12913905 49.1348735,7.75398913 L49.1286369,7.74822129 C48.8335968,7.60114138 48.5886896,7.71457556 48.5083331,8.034931" id="Fill-192" fill="#FFC197"></path>
            <path d="M55.4877344,9.38347598 L56.4668837,9.65528543 L57.1404386,9.78626346 C57.4400363,9.81293972 57.7142077,9.61755415 57.787368,9.32531693 L58.1186285,8.00472194 C58.2438406,7.53536397 58.8116129,7.35271571 59.1867695,7.66105482 L59.1985232,7.67090821 C59.4182441,7.85163386 59.49956,8.15252283 59.4004937,8.41952575 L58.7231008,10.2568231 C58.6211561,10.5344004 57.7521071,11.0648013 57.4611448,11.013852 L55.1629504,10.1296903 L55.4877344,9.38347598 Z" id="Fill-193" fill="#8A9100"></path>
            <polygon id="Fill-194" fill="#FCB98B" points="58.7568745 7.45312419 59.7799201 7.45312419 59.7799201 5.84125329 58.7568745 5.84125329"></polygon>
            <polygon id="Fill-195" fill="#1574B3" points="58.8473295 20.104304 60.0190944 20.104304 59.9562485 16.1559774 60.0819404 12.4626373 58.481048 12.4626373"></polygon>
            <path d="M55.9887988,20.104304 L57.2332443,20.104304 L58.1104489,16.6080318 C58.1104489,16.6080318 60.4839625,13.6770079 59.9562485,12.7464631 C59.6964693,12.2881601 57.861224,12.5556437 57.861224,12.5556437 L56.5798385,16.6883009 L55.9887988,20.104304 Z" id="Fill-196" fill="#319FDD"></path>
            <path d="M60.5519416,5.65300542 C60.9654775,4.98633926 60.7608684,4.11010826 60.0957089,3.69602543 C59.4298298,3.2819426 58.5557436,3.48670091 58.1422077,4.15336706 C57.9469535,4.46843531 57.7629732,5.36269081 57.9440751,5.99835482 C58.005002,6.21128424 58.2381557,6.32207483 58.4185379,6.32423777 C58.4185379,6.32423777 58.9493702,6.30140674 59.176767,6.31270209 C59.709998,6.33937835 60.2513845,6.13774429 60.5519416,5.65300542" id="Fill-197" fill="#FFD0B0"></path>
            <path d="M59.8309404,3.57901038 C59.8309404,3.57901038 58.7815092,3.05125304 58.2000643,3.98948831 C58.0002526,4.31128571 57.767099,4.5518527 57.767099,4.5518527 C57.767099,4.5518527 58.4440121,4.54151865 58.8105335,4.01688555 C58.9923549,3.75637145 59.2792394,3.81501116 59.2792394,3.81501116 C59.2792394,3.81501116 58.898086,3.47927482 58.684122,4.22020191 C58.4701579,4.961129 59.0060275,5.05485639 59.0060275,5.05485639 C59.0060275,5.05485639 59.3005879,4.28388847 59.4999198,4.91546693 C59.6702275,5.4542793 59.2130353,5.47975393 59.2130353,5.47975393 C59.2130353,5.47975393 59.7618579,6.01015486 59.7798481,6.18511267 C59.7980782,6.36031081 59.6915759,6.4720627 59.9633487,6.25697034 C60.2351214,6.04235864 60.5025764,5.89575937 60.7270947,5.33387564 C60.9520928,4.77151126 60.6587318,3.78280739 59.8309404,3.57901038" id="Fill-198" fill="#071E2B"></path>
            <path d="M57.7419126,10.0620864 L57.8700032,12.7462948 L60.0820843,12.9654727 L60.3269916,10.3680222 C60.455322,9.01065723 60.1900258,8.17119621 59.7798481,6.87102899 C59.7798481,6.87102899 59.3015473,7.4598293 58.7568026,7.12457361 C58.7568026,7.12457361 57.3876247,8.04766831 57.7419126,10.0620864" id="Fill-199" fill="#A1B400"></path>
            <path d="M48.3783236,20.3219679 L48.418142,20.1996416 C48.4006315,20.270538 48.3850399,20.3532104 48.3792831,20.4423716 C48.3766445,20.4043999 48.3759249,20.3649864 48.3783236,20.3219679" id="Fill-200" fill="#F9AF7D"></path>
            <path d="M48.2747717,12.808948 C48.2795691,12.7644876 49.2632759,12.808948 49.2632759,12.808948 C49.8691876,12.904598 49.8310482,14.7447792 49.730063,15.6798903 C49.7036773,15.9262251 49.4575706,16.6959914 49.3474703,16.9178129 L49.3431527,16.9264646 C49.1150363,17.3859692 48.9552829,18.1814504 48.9883849,18.6938269 L49.0437949,19.5515527 C49.2786276,19.8091829 49.722627,20.3174738 50.0574855,20.4960365 C50.1030608,20.5203095 50.1467171,20.5404969 50.187495,20.5553972 C50.128487,20.5888026 50.0318194,20.6085094 49.866549,20.5695765 C49.8435215,20.5642893 49.8188149,20.5594827 49.7948279,20.5541956 C49.4283065,20.4756087 49.1421416,20.4285047 48.8722879,20.3040155 C48.5854033,20.1711149 48.486337,19.9894279 48.486337,19.9894279 L48.5674131,19.7380462 L48.3304215,18.7450165 C48.1994525,18.1941878 48.1999323,17.6202877 48.336898,17.0711413 C48.3383373,17.0656138 48.3397765,17.0603266 48.3412157,17.0547991 C48.4386029,16.6678731 48.4784213,16.2686906 48.4546742,15.870229 L48.2747717,12.808948 Z" id="Fill-201" fill="#F9AF7D"></path>
            <path d="M48.4863131,19.9890674 L48.4863131,19.9890674 L48.41819,20.1995936 C48.4493731,20.074864 48.4863131,19.9890674 48.4863131,19.9890674" id="Fill-202" fill="#F9AF7D"></path>
            <path d="M48.3792591,20.4424917 C48.385016,20.3533305 48.4006075,20.2706582 48.418118,20.1997618 L48.5135863,19.9046407 C48.5135863,19.9046407 48.5891453,20.0668612 48.8762697,20.1997618 C49.1456437,20.324251 49.4282106,20.4756568 49.7947319,20.5542436 C49.8187189,20.5592905 49.8434255,20.564097 49.866453,20.5696245 C50.0319633,20.6085574 50.1283911,20.5888507 50.1873991,20.5554452 C50.1900377,20.5564066 50.193156,20.5578485 50.1957945,20.5588098 L50.5827048,20.6744069 C50.6793724,20.708293 50.6692979,20.8354258 50.5733499,20.8719555 C50.2804686,20.9839477 50.0420379,20.9493406 49.7508357,20.9303548 C49.442123,20.9101674 49.3420972,20.7964929 49.04178,20.6876249 L49.0050799,20.8846928 L48.5963414,20.8846928 C48.5963414,20.8846928 48.4939169,20.7034865 48.4524194,20.5910136 C48.4418651,20.5628954 48.3773401,20.4715712 48.3792591,20.4424917" id="Fill-203" fill="#F26522"></path>
            <path d="M50.2731526,20.377964 L50.3088932,20.2541958 C50.2933017,20.3255728 50.2805886,20.4087258 50.27795,20.4981273 C50.2741121,20.4601557 50.2719533,20.4207422 50.2731526,20.377964" id="Fill-204" fill="#F9AF7D"></path>
            <path d="M48.5083331,12.8720818 C48.5116913,12.827381 49.4958779,12.8401184 49.4958779,12.8401184 C50.1049078,12.9160616 50.7460803,14.7562428 50.6755585,15.6942378 C50.6570885,15.9412936 50.6422166,16.7187503 50.5393124,16.9441767 L50.5352346,16.9525881 C50.32223,17.4195428 50.6016786,18.2195903 50.6510918,18.7305248 L50.9408547,19.586328 C51.1836032,19.8360274 51.6439137,20.3296584 51.9842892,20.4976467 C52.030824,20.5202374 52.0749601,20.5387425 52.1162177,20.5526815 C52.0581692,20.5877692 51.9622212,20.6108405 51.7959913,20.5771948 C51.7727239,20.5726286 51.7477774,20.5683027 51.7235505,20.5639768 C51.3548703,20.4976467 51.0672662,20.4596751 50.7938144,20.3438376 C50.5023724,20.2205501 50.3975492,20.041747 50.3975492,20.041747 L50.4709494,19.7879621 L49.9952872,18.8028631 C49.8460881,18.2570812 49.4148018,17.6834215 49.5342571,17.1301895 C49.5356963,17.124662 49.5368957,17.1188942 49.538095,17.1133667 C49.6227691,16.7235568 49.4428666,16.3231726 49.4068861,15.9256723 L48.5083331,12.8720818 Z" id="Fill-205" fill="#F9AF7D"></path>
            <path d="M50.3975252,20.041747 L50.3975252,20.041747 L50.3363584,20.2541958 C50.3632238,20.1285049 50.3975252,20.041747 50.3975252,20.041747" id="Fill-206" fill="#F9AF7D"></path>
            <path d="M50.3052472,20.4980072 C50.3086054,20.408846 50.3210786,20.325693 50.3364303,20.2543159 L50.4223038,19.9563109 C50.4223038,19.9563109 50.50314,20.1158878 50.7941023,20.2394157 C51.0675541,20.3552531 51.3549183,20.4975265 51.7235985,20.5638567 C51.7478254,20.5684229 51.7727718,20.5725084 51.7960392,20.5770746 C51.9622691,20.6107204 52.0582171,20.5878893 52.1162657,20.5525613 C52.1189042,20.5535226 52.1220225,20.5547243 52.1246611,20.5556856 L52.5149296,20.6585454 C52.6125567,20.6893072 52.6067998,20.8166803 52.512291,20.8563342 C52.2230078,20.9779395 51.9831378,20.9507826 51.6916958,20.9414099 C51.3825034,20.9313161 51.2791194,20.8207659 50.9752041,20.7217513 L50.9452204,20.9200208 L50.5367218,20.9329984 C50.5367218,20.9329984 50.4283005,20.755397 50.3829651,20.6443661 C50.3716912,20.6164882 50.3042877,20.527327 50.3052472,20.4980072" id="Fill-207" fill="#F26522"></path>
            <path d="M49.0986292,7.60544323 C48.8393297,7.4239966 48.6627854,7.29494118 48.4747273,7.27090852 C48.3931715,7.26033414 48.300102,7.24423226 48.220705,7.22909168 C48.2355769,7.15555172 48.2526077,7.08297307 48.2727568,7.01063475 L48.8007107,6.46100768 L49.2423113,6.8299091 L49.1111024,7.30719784 L49.3809562,7.6782622 C49.3099547,7.69364311 49.2147263,7.68643331 49.0986292,7.60544323" id="Fill-208" fill="#F9AF7D"></path>
            <path d="M48.2087115,8.44973481 C48.1336322,8.04502472 48.1381897,7.63070156 48.220705,7.22887538 C48.300102,7.24401596 48.4149997,7.21830101 48.4970352,7.22887538 C48.6848534,7.25290805 49.0986292,7.29015868 49.3809562,7.67828624 L49.8587772,8.33581998 C50.0269261,8.56701422 50.0926504,8.85732883 50.0403588,9.13851102 L49.7517952,10.6915019 L51.0063152,14.8484321 L47.748401,15.0224286 C47.748401,15.0224286 47.9225466,12.7840261 47.9362192,12.6542497 C48.0357652,11.7246662 48.486481,10.746056 48.486481,10.746056 C48.5651583,10.3612931 48.5598812,9.96427342 48.4713692,9.58167338 L48.2087115,8.44973481 Z" id="Fill-209" fill="#2B59A1"></path>
            <path d="M47.9723676,5.94685282 C47.6907602,5.4039549 48.0733529,4.7377694 48.6495206,4.53517403 C49.2256883,4.33281898 49.8563065,4.63659188 50.0582771,5.21361618 C50.1539852,5.48662727 50.1096092,6.18165197 49.897804,6.65100993 C49.7085466,7.07086061 49.3324305,6.852644 49.1947451,6.8238048 C49.1947451,6.8238048 48.383025,6.74017112 47.9723676,5.94685282" id="Fill-210" fill="#FFD0B0"></path>
            <path d="M48.8976421,4.32111507 C48.8976421,4.32111507 49.940357,4.21609232 50.0629305,5.06805033 C50.1447262,5.63690353 49.2704001,5.74240693 49.2704001,5.74240693 C49.2704001,5.74240693 49.1756514,5.10578161 48.9175513,5.5527892 C48.6971108,5.93370695 49.0408445,6.0305586 49.0408445,6.0305586 C49.0408445,6.0305586 48.9496939,6.30092609 48.8926048,6.37518703 C48.8064915,6.48790023 48.7443652,6.67823894 48.51409,6.57922436 C48.2312833,6.45761907 47.9499158,6.08535308 47.873877,5.61960001 C47.7975983,5.15408727 48.0154003,4.47636609 48.8976421,4.32111507" id="Fill-211" fill="#071E2B"></path>
            <path d="M48.2197215,7.99936265 L47.7733235,8.08395764 C47.7733235,8.08395764 47.5176221,5.48987168 47.9515469,4.99744235 C48.384992,4.5047727 48.6917857,6.03589385 48.6917857,6.03589385 L49.0407965,6.03060666 L49.0619051,7.08323743 C49.0139311,7.54154037 48.6716366,7.91428702 48.2197215,7.99936265" id="Fill-212" fill="#071E2B"></path>
            <path d="M48.9920549,7.8931623 C48.9920549,7.8931623 48.646882,7.69849771 48.5082372,8.18515919 C48.3700721,8.67182068 48.4557056,9.41515103 48.4557056,9.41515103 L48.3801466,10.7523286 L49.2100968,12.6867178 L49.2100968,13.2461983 C49.2100968,13.2461983 49.329552,13.7761186 49.4288582,13.8549457 C49.6744851,14.0491297 49.8613438,14.098637 49.8745367,13.9825592 C49.8920472,13.8289905 49.7195806,13.5569407 49.7195806,13.5569407 L49.7649161,13.0152444 L49.8939661,13.2039008 C49.8939661,13.2039008 49.9294669,13.4540809 49.9971102,13.4898895 C50.0249351,13.5043091 50.0923386,13.307001 50.0618751,13.1796278 C50.0165397,12.9907311 50.0146207,12.9203154 49.9325852,12.8388446 L49.6612922,12.5410799 L49.2100968,11.0558611 L49.0618571,10.7400719 L49.2837369,9.23154147 C49.2837369,9.23154147 49.768754,8.3312778 48.9920549,7.8931623" id="Fill-213" fill="#F9AF7D"></path>
            <path d="M59.8398396,12.9690055 C59.8398396,12.9690055 59.4251044,13.3008967 59.3898435,13.5155084 C59.3543427,13.7301201 59.2279312,14.1300236 59.2895778,14.1204106 C59.3509845,14.1103168 59.626835,13.8353831 59.6119631,13.7128165 C59.5970912,13.5900096 59.4759568,14.5320901 59.4759568,14.5320901 C59.4759568,14.5320901 59.7290197,14.6546567 59.815133,14.5885669 C59.901726,14.5227174 60.3824255,13.8007761 60.3824255,13.8007761 L60.2917547,13.0442278 L59.8398396,12.9690055 Z" id="Fill-214" fill="#FFC197"></path>
            <path d="M60.2776503,7.68746672 C59.6676609,6.64733293 59.6899688,7.605275 59.4524975,8.2282017 C59.2145465,8.8511284 60.1214949,10.6295457 60.1214949,10.6295457 L59.7446592,12.9991665 L60.4069402,13.1712404 C60.4069402,13.1712404 61.650906,10.0277677 60.2776503,7.68746672" id="Fill-215" fill="#B4CE46"></path>
        </g>
    </g>
</svg>