<?xml version="1.0" encoding="UTF-8"?>
<svg width="89px" height="33px" viewBox="0 0 89 33" version="1.1" xmlns="http://www.w3.org/2000/svg" xmlns:xlink="http://www.w3.org/1999/xlink">
    <!-- Generator: Sketch 53.2 (72643) - https://sketchapp.com -->
    <title>Illustration</title>
    <desc>Created with Sketch.</desc>
    <g id="Web" stroke="none" stroke-width="1" fill="none" fill-rule="evenodd">
        <g id="Illustration" transform="translate(0.869565, 0.000000)">
            <path d="M14.4829664,12.1908759 L7.91364691,12.1908759 C7.58790346,12.1908759 7.32380659,11.9262762 7.32380659,11.5999126 L7.32380659,7.83880041 C7.32380659,7.51243681 7.58790346,7.24783716 7.91364691,7.24783716 L14.4829664,7.24783716 C14.8087099,7.24783716 15.0728067,7.51243681 15.0728067,7.83880041 L15.0728067,11.5999126 C15.0728067,11.9262762 14.8087099,12.1908759 14.4829664,12.1908759" id="Fill-7" fill="#363B5B"></path>
            <path d="M87.7255549,24.9987158 C87.7255549,29.1491057 68.0874495,32.5136672 43.8628972,32.5136672 C19.6381054,32.5136672 0,29.1491057 0,24.9987158 C0,20.8483259 19.6381054,17.4837644 43.8628972,17.4837644 C68.0874495,17.4837644 87.7255549,20.8483259 87.7255549,24.9987158" id="Fill-1" fill="#EDF2FA"></path>
            <polygon id="Fill-3" fill="#141832" points="14.7231701 10.7356448 15.3366355 10.7356448 15.3366355 8.28178316 14.7231701 8.28178316"></polygon>
            <polygon id="Fill-4" fill="#272B4C" points="10.1221794 13.1895065 13.8029719 13.1895065 13.8029719 12.2693084 10.1221794 12.2693084"></polygon>
            <polygon id="Fill-5" fill="#272B4C" points="11.0423775 15.0299028 13.4962392 15.0299028 13.4962392 14.1097046 11.0423775 14.1097046"></polygon>
            <polygon id="Fill-6" fill="#616786" points="15.3366355 10.4289121 16.5635663 10.4289121 16.5635663 8.58851587 15.3366355 8.58851587"></polygon>
            <polygon id="Fill-9" fill="#141832" points="18.7999307 11.7140918 16.2525114 10.2834272 16.2525114 8.51029713 18.7999307 7.10678944"></polygon>
            <path d="M10.9033145,5.28677162 C10.9033145,6.32522311 10.06305,7.16732773 9.02633185,7.16732773 C7.9898536,7.16732773 7.14958902,6.32522311 7.14958902,5.28677162 C7.14958902,4.2480798 7.9898536,3.40621551 9.02633185,3.40621551 C10.06305,3.40621551 10.9033145,4.2480798 10.9033145,5.28677162" id="Fill-11" fill="#363B5B"></path>
            <path d="M9.02640381,5.71661988 C8.78989199,5.71661988 8.59751626,5.5238779 8.59751626,5.28667549 C8.59751626,5.0497134 8.78989199,4.85697142 9.02640381,4.85697142 C9.26291562,4.85697142 9.45553123,5.0497134 9.45553123,5.28667549 C9.45553123,5.5238779 9.26291562,5.71661988 9.02640381,5.71661988" id="Fill-13" fill="#141832"></path>
            <path d="M9.02640381,5.55538473 C8.87840402,5.55538473 8.75822915,5.43498107 8.75822915,5.28669952 C8.75822915,5.1386583 8.87840402,5.01801432 9.02640381,5.01801432 C9.17416372,5.01801432 9.29457846,5.1386583 9.29457846,5.28669952 C9.29457846,5.43498107 9.17416372,5.55538473 9.02640381,5.55538473" id="Fill-15" fill="#616786"></path>
            <path d="M9.5760659,6.48218045 C9.39880197,6.48218045 9.25440024,6.33750381 9.25440024,6.1599024 C9.25440024,5.98206068 9.39880197,5.83738403 9.5760659,5.83738403 C9.75356969,5.83738403 9.89797143,5.98206068 9.89797143,6.1599024 C9.89797143,6.33750381 9.75356969,6.48218045 9.5760659,6.48218045" id="Fill-17" fill="#141832"></path>
            <path d="M9.5760659,6.36132018 C9.46524596,6.36132018 9.37505484,6.27095735 9.37505484,6.15992644 C9.37505484,6.04865519 9.46524596,5.95829237 9.5760659,5.95829237 C9.68688583,5.95829237 9.77707695,6.04865519 9.77707695,6.15992644 C9.77707695,6.27095735 9.68688583,6.36132018 9.5760659,6.36132018" id="Fill-19" fill="#616786"></path>
            <path d="M14.3623358,5.3403885 C14.3623358,6.37908032 13.5220712,7.2209446 12.4853531,7.2209446 C11.4488749,7.2209446 10.6083704,6.37908032 10.6083704,5.3403885 C10.6083704,4.301937 11.4488749,3.45983239 12.4853531,3.45983239 C13.5220712,3.45983239 14.3623358,4.301937 14.3623358,5.3403885" id="Fill-21" fill="#363B5B"></path>
            <path d="M12.4853051,5.77035692 C12.2487933,5.77035692 12.0561777,5.57737462 12.0561777,5.34041253 C12.0561777,5.10345044 12.2487933,4.91070846 12.4853051,4.91070846 C12.7218169,4.91070846 12.9144325,5.10345044 12.9144325,5.34041253 C12.9144325,5.57737462 12.7218169,5.77035692 12.4853051,5.77035692" id="Fill-23" fill="#141832"></path>
            <path d="M12.4853051,5.60912177 C12.3375452,5.60912177 12.2171305,5.48871811 12.2171305,5.34043656 C12.2171305,5.19239534 12.3375452,5.07175136 12.4853051,5.07175136 C12.6333049,5.07175136 12.7534798,5.19239534 12.7534798,5.34043656 C12.7534798,5.48871811 12.6333049,5.60912177 12.4853051,5.60912177" id="Fill-25" fill="#616786"></path>
            <path d="M11.2385329,7.16725563 L10.4877398,7.16725563 C10.2435521,7.16725563 10.0451796,6.92380472 10.0451796,6.62363673 L10.0451796,5.96466103 C10.0451796,5.66449303 10.2435521,5.42104212 10.4877398,5.42104212 L11.2385329,5.42104212 C11.4829604,5.42104212 11.6808531,5.66449303 11.6808531,5.96466103 L11.6808531,6.62363673 C11.6808531,6.92380472 11.4829604,7.16725563 11.2385329,7.16725563" id="Fill-27" fill="#616786"></path>
            <polygon id="Fill-29" fill="#616786" points="7.1761906 7.24788522 12.6461859 7.24788522 12.6461859 6.84485742 7.1761906 6.84485742"></polygon>
            <polygon id="Fill-31" fill="#616786" points="7.53623546 9.1750647 5.64414095 8.41683409 5.82332383 7.96790389 7.71541834 8.7261345"></polygon>
            <polygon id="Fill-32" fill="#363B5B" points="5.64421291 8.41688216 5.09634985 8.48681722 5.4947739 7.48898093 5.8233958 7.96771163"></polygon>
            <path d="M13.4908162,13.4535281 C13.4908162,13.9579738 13.0825574,14.3670097 12.5793102,14.3670097 C12.0758231,14.3670097 11.6675643,13.9579738 11.6675643,13.4535281 C11.6675643,12.9490825 12.0758231,12.5400465 12.5793102,12.5400465 C13.0825574,12.5400465 13.4908162,12.9490825 13.4908162,13.4535281" id="Fill-33" fill="#363B5B"></path>
            <polygon id="Fill-34" fill="#363B5B" points="8.66434404 14.0109177 12.4986659 14.0109177 12.4986659 13.6886397 8.66434404 13.6886397"></polygon>
            <path d="M8.84285529,14.2661687 L7.94957943,14.2661687 C7.72242255,14.2661687 7.53820239,14.0815978 7.53820239,13.8540085 L7.53820239,13.845597 C7.53820239,13.6180077 7.72242255,13.4334368 7.94957943,13.4334368 L8.84285529,13.4334368 C9.07001217,13.4334368 9.57613786,13.6180077 9.57613786,13.845597 L9.57613786,13.8540085 C9.57613786,14.0815978 9.07001217,14.2661687 8.84285529,14.2661687" id="Fill-35" fill="#5C5F6D"></path>
            <path d="M12.5792382,13.8833764 C12.3424865,13.8833764 12.1501108,13.6906344 12.1501108,13.453432 C12.1501108,13.2164699 12.3424865,13.0237279 12.5792382,13.0237279 C12.81575,13.0237279 13.0083656,13.2164699 13.0083656,13.453432 C13.0083656,13.6906344 12.81575,13.8833764 12.5792382,13.8833764" id="Fill-36" fill="#616786"></path>
            <path d="M11.6675403,8.29566139 C11.4900366,8.29566139 11.3456348,8.44009771 11.3456348,8.61793944 L11.3456348,10.7669404 C11.3456348,10.9447822 11.4900366,11.0894588 11.6675403,11.0894588 L13.5176576,11.0894588 C13.6951614,11.0894588 13.8393233,10.9447822 13.8393233,10.7669404 L13.8393233,8.61793944 C13.8393233,8.44009771 13.6951614,8.29566139 13.5176576,8.29566139 L11.6675403,8.29566139 Z M13.5176576,11.250718 L11.6675403,11.250718 C11.4012847,11.250718 11.1849219,11.033703 11.1849219,10.7669404 L11.1849219,8.61793944 C11.1849219,8.35117685 11.4012847,8.1344022 11.6675403,8.1344022 L13.5176576,8.1344022 C13.7836734,8.1344022 14.000276,8.35117685 14.000276,8.61793944 L14.000276,10.7669404 C14.000276,11.033703 13.7836734,11.250718 13.5176576,11.250718 L13.5176576,11.250718 Z" id="Fill-37" fill="#616786"></path>
            <path d="M7.80971124,9.45410799 C7.57319943,9.45410799 7.38082369,9.26136601 7.38082369,9.02416359 C7.38082369,8.78720151 7.57319943,8.59445953 7.80971124,8.59445953 C8.04622305,8.59445953 8.23883866,8.78720151 8.23883866,9.02416359 C8.23883866,9.26136601 8.04622305,9.45410799 7.80971124,9.45410799" id="Fill-38" fill="#141832"></path>
            <path d="M7.80971124,9.21226727 C7.7060874,9.21226727 7.6221329,9.12791261 7.6221329,9.02433182 C7.6221329,8.9205107 7.7060874,8.83615605 7.80971124,8.83615605 C7.91333508,8.83615605 7.99752944,8.9205107 7.99752944,9.02433182 C7.99752944,9.12791261 7.91333508,9.21226727 7.80971124,9.21226727" id="Fill-39" fill="#616786"></path>
            <path d="M4.36381087,29.1562077 L4.34845919,29.1876905 C4.2357203,28.8884838 4.14504944,28.6044177 4.08532181,28.5366455 L3.88670945,30.1292903 C3.7432672,30.4224888 4.16351943,30.7079969 4.7384878,30.7079969 L6.43196996,30.7079969 C6.91770669,30.7079969 7.31157322,30.7565429 7.31157322,30.500595 L7.31157322,30.4967498 C7.31157322,30.2730056 7.16621201,30.0761781 6.95272771,30.0105689 C6.16667374,29.7690406 4.36381087,29.1562077 4.36381087,29.1562077" id="Fill-40" fill="#05101C"></path>
            <path d="M5.92999402,29.5644506 L3.57423081,29.5644506 C3.57423081,29.5644506 -0.305426463,20.4180986 0.193742994,18.2585232 C0.515408655,16.8670319 0.603920683,18.6690011 2.88292549,16.7728238 L5.22549585,22.9331171 L5.92999402,29.5644506 Z" id="Fill-41" fill="#1D283E"></path>
            <path d="M1.10927879,29.1562077 L1.09392711,29.1876905 C0.981188209,28.8884838 0.890517351,28.6044177 0.830789723,28.5366455 L0.632177368,30.1292903 C0.488735112,30.4224888 0.908987341,30.7079969 1.48395572,30.7079969 L3.17743787,30.7079969 C3.66317461,30.7079969 4.05704114,30.7565429 4.05704114,30.500595 L4.05704114,30.4967498 C4.05704114,30.2730056 3.91167992,30.0761781 3.69819563,30.0105689 C2.91214166,29.7690406 1.10927879,29.1562077 1.10927879,29.1562077" id="Fill-42" fill="#05101C"></path>
            <path d="M2.67359095,29.5644506 L0.317827742,29.5644506 C0.317827742,29.5644506 -0.305354502,20.4180986 0.193814955,18.2585232 C0.515240746,16.8670319 0.858734577,18.6978403 3.61532054,14.1477357 L3.85854872,22.1912287 L2.67359095,29.5644506 Z" id="Fill-43" fill="#1D283E"></path>
            <path d="M1.78240196,9.331253 C1.78240196,9.331253 1.46769253,10.7268299 1.2561272,12.2110874 C1.14986479,12.9565806 1.67038267,17.4151208 1.67038267,17.4151208 L3.7174332,17.4151208 C3.7174332,17.4151208 4.01031446,14.3648949 3.94578943,13.5035641 C3.8085838,11.6744379 3.09521044,11.5244741 2.81240371,11.0084928 C2.73300675,10.8635758 2.86229667,9.62901773 2.86229667,9.62901773 L1.78240196,9.331253 Z" id="Fill-44" fill="#EAA563"></path>
            <path d="M1.48992848,10.7869356 C1.48992848,10.7869356 2.06561646,10.8395671 2.53432243,10.8638401 C3.00350814,10.8878728 3.40481064,11.5776103 3.40481064,11.5776103 C3.40481064,11.5776103 4.31655648,13.5028672 4.24891314,14.0058709 C4.18126981,14.5086342 3.73463188,18.2851274 3.73463188,18.2851274 L0.193671033,18.2584511 C0.193671033,18.2584511 0.195350123,14.6155796 1.48992848,10.7869356" id="Fill-45" fill="#8EBCE1"></path>
            <path d="M4.43641952,7.45617634 C4.43641952,6.88323758 3.75183056,6.20695836 3.11161754,6.20695836 L2.85039912,6.20695836 C2.21018611,6.20695836 1.26629768,6.88323758 1.26629768,7.45617634 L1.49225522,9.03560314 C1.5850849,9.68592708 3.31478743,10.0884742 4.01376859,10.2848211 L4.01472807,10.290589 L4.01472807,10.2850614 C4.7139491,10.0889549 4.40667564,8.96927298 4.4997452,8.31870872 L4.43641952,7.45617634 Z" id="Fill-46" fill="#FCCA9B"></path>
            <path d="M4.36345107,8.97311821 L4.36345107,7.9111147 L4.8443904,8.69121504 C4.8923644,8.82892221 4.78993992,8.97311821 4.64433883,8.97311821 L4.36345107,8.97311821 Z" id="Fill-47" fill="#FCCA9B"></path>
            <path d="M4.2006513,6.62440577 C4.2006513,6.62440577 4.63769443,6.93250455 4.25798023,7.204314 C3.87826603,7.47612345 3.44050329,7.25862782 3.42898953,7.60301593 C3.39876591,8.51793952 2.83003416,8.88996519 2.83003416,8.9892201 C2.83003416,9.04858078 2.52827771,9.20695605 2.43208984,9.60734026 C2.38003805,9.82411491 2.10970457,9.8988565 1.95618777,9.73735699 C1.54361138,9.30356737 0.921148749,9.29731887 0.921148749,8.11851661 L0.921148749,8.01253255 C0.921148749,6.97071649 1.76405191,6.12620861 2.80388833,6.12620861 L2.95236786,6.12620861 C3.66118369,6.12620861 4.2006513,6.62440577 4.2006513,6.62440577" id="Fill-48" fill="#082238"></path>
            <path d="M3.13260617,8.50700466 C3.10861917,8.27436845 2.91456434,8.09220084 2.67613357,8.09220084 C2.42139164,8.09220084 2.35878557,8.30801418 2.35878557,8.56324109 C2.35878557,8.69301749 2.61712555,9.17943865 2.74857431,9.17943865 L3.14699837,9.15612696 L3.22711495,8.64495216 L3.13260617,8.50700466 Z" id="Fill-49" fill="#FCCA9B"></path>
            <path d="M4.12264558,6.47843136 L1.15233545,9.20902286 L0.884400666,8.91630499 C0.142242906,8.10592349 0.196933265,6.83483579 1.00553501,6.09150544 L1.03527889,6.0641082 C1.84388064,5.32077784 3.11255304,5.37557232 3.85447093,6.18571349 L4.12264558,6.47843136 Z" id="Fill-50" fill="#F26522"></path>
            <path d="M0.125212137,10.314141 C0.125212137,10.314141 0.176064575,10.4482432 0.535149956,10.290589 C0.860653537,10.1478349 1.01752851,9.81305988 1.08972938,9.72870523 C1.16217012,9.6445909 1.59633481,8.80104432 1.59633481,8.80104432 L0.921100775,8.97311821 L0.125212137,10.314141 Z" id="Fill-51" fill="#F26522"></path>
            <path d="M7.68356361,13.5039967 L5.10352196,13.8070486 C5.10352196,13.8070486 3.68876874,12.162974 3.5515631,11.9067857 C3.35558931,11.5402876 2.99266601,11.2946737 2.58080924,11.2439648 L2.57481249,11.2432438 C2.57481249,11.2432438 2.45631671,11.2550198 2.39514986,11.261028 C1.80554942,11.3189467 1.53569567,12.4182009 1.81322526,12.9425936 C2.70386254,14.6251206 4.36352303,15.4914982 4.36352303,15.4914982 C4.53311111,15.6758287 7.8003803,14.791667 7.8003803,14.791667 L7.68356361,13.5039967 Z" id="Fill-52" fill="#AED8F4"></path>
            <path d="M8.71286974,14.4948635 L7.6835876,14.7969541 L7.6835876,13.5039967 L8.45572911,13.2773687 C8.74861037,13.1913317 9.04197137,13.411471 9.04197137,13.7174068 L9.04197137,14.0548254 C9.04197137,14.2583821 8.90788404,14.4376658 8.71286974,14.4948635" id="Fill-53" fill="#FCCA9B"></path>
            <polygon id="Fill-54" fill="#05101C" points="12.1738819 30.1642338 12.8709441 30.1642338 12.8709441 14.7977472 12.1738819 14.7977472"></polygon>
            <polygon id="Fill-55" fill="#05101C" points="16.5346464 30.1643299 15.8193541 30.1643299 12.8708722 17.7589081 12.5005129 16.1946219 12.1810061 14.8560024 12.4206362 14.7978433 12.5005129 14.7795785 12.860078 14.6923399"></polygon>
            <polygon id="Fill-56" fill="#05101C" points="12.8164217 14.8559543 12.5005129 16.1945738 12.17381 17.5589083 9.17831347 30.1642819 8.46302115 30.1642819 12.1373497 14.6922919 12.5005129 14.7795305 12.5767915 14.7977953"></polygon>
            <path d="M24.9480145,3.18838343 C25.0665103,3.17228154 25.2008375,3.22395177 25.3298875,3.31263231 C25.3399621,3.27129613 25.3466784,3.22875831 25.3466784,3.18525918 C25.3466784,2.79929457 24.9410583,2.48735056 24.4402097,2.48711024 L24.4402097,3.06629749 C24.6671267,3.05331985 24.862141,3.09153179 24.9480145,3.18838343" id="Fill-57" fill="#6D0C05"></path>
            <path d="M24.4402817,2.48711024 L24.4402817,2.48711024 C23.9399129,2.48711024 23.5340529,2.79929457 23.5340529,3.18525918 C23.5340529,3.24990705 23.5489248,3.31119035 23.5705131,3.37055104 C23.8173393,3.18261559 24.1548364,3.08288003 24.4402817,3.06629749 L24.4402817,2.48711024 Z" id="Fill-58" fill="#6D0C05"></path>
            <polygon id="Fill-59" fill="#E09C5F" points="24.4461345 9.51618436 24.9503412 7.73944937 24.4403776 7.22779391"></polygon>
            <path d="M24.4402817,7.22769778 L24.0850342,6.87105302 C23.9638999,6.82611194 23.8518806,6.75858015 23.7513751,6.67206255 L23.7513751,7.22529452 L24.4460386,9.51608823 L24.4402817,7.22769778 Z" id="Fill-60" fill="#F7B56D"></path>
            <path d="M24.0849143,6.87107705 L24.4401618,7.22772182 L24.4401618,6.93812819 C24.3163888,6.93788787 24.1974133,6.91289389 24.0849143,6.87107705" id="Fill-61" fill="#EAA663"></path>
            <path d="M24.4402817,6.93808013 L24.4402817,7.22767375 L24.9502453,7.73956953 L25.0876908,7.22118493 L25.0876908,6.70448261 C24.9013118,6.85084155 24.6799118,6.93808013 24.4407614,6.93808013 L24.4402817,6.93808013 Z" id="Fill-62" fill="#DD9452"></path>
            <path d="M24.4402817,6.93808013 L24.4402817,4.2973708 L24.4402817,4.29761112 C24.0823957,4.57158351 23.3136123,4.85733191 23.1584164,4.91356835 L23.1831231,4.99744235 L23.1289124,4.92414272 C23.081658,4.85781257 23.0327246,4.81887965 22.9996225,4.81887965 C22.9979434,4.81887965 22.9957846,4.81960063 22.9919467,4.8229652 C22.9566858,4.85949485 22.9511688,5.03709625 22.9734767,5.35168385 C22.9933859,5.62733853 23.1658524,5.88641067 23.2608409,5.88641067 C23.2697161,5.88544936 23.2761926,5.88280577 23.282909,5.87799923 L23.303058,5.86309898 L23.3083352,5.88713165 C23.3731001,6.21373558 23.5347725,6.48554503 23.7513751,6.67203852 C23.8518806,6.75855611 23.9638999,6.8260879 24.0850342,6.87102899 C24.1975333,6.91308615 24.3162689,6.93808013 24.4402817,6.93808013" id="Fill-63" fill="#FFC988"></path>
            <path d="M24.6912816,3.99677021 C24.6233984,4.11404962 24.5406433,4.22099498 24.4403776,4.29741886 L24.4403776,6.93812819 L24.4406175,6.93812819 C24.6797679,6.93812819 24.9014078,6.85064929 25.0877867,6.70453068 C25.3250182,6.51827752 25.5034814,6.23421141 25.5718444,5.88717971 L25.5773614,5.86314705 L25.5982301,5.8780473 C25.6044667,5.88285383 25.6111831,5.88549743 25.6219772,5.88645873 C25.7155265,5.88645873 25.8875133,5.62738659 25.9074225,5.35173192 C25.9302102,5.03714432 25.9239735,4.85954292 25.8887127,4.82301327 C25.8848747,4.81964869 25.8827159,4.81868739 25.8805571,4.81868739 C25.8481746,4.81868739 25.7999608,4.85786063 25.7517469,4.92346981 L25.698016,4.99749042 L25.7234422,4.91001152 C25.7234422,4.91001152 25.3319744,4.57403485 24.9016476,4.28347992 C24.7893885,4.20753669 24.7260628,4.10563819 24.6912816,3.99677021" id="Fill-64" fill="#F7B56D"></path>
            <path d="M23.7218231,25.3278761 C23.5140957,25.3278761 23.3574606,25.151236 23.2509583,24.970991 L23.1967477,25.1461891 C23.1379795,25.3338842 23.1506926,25.5554654 23.2859793,25.6965372 C23.602128,26.0250637 24.2121173,25.8549124 24.2121173,25.8549124 C24.2955921,25.7186472 24.3241366,25.5564267 24.2915143,25.4004547 L24.2161951,25.0373211 C24.1365583,25.2127596 23.9979134,25.3278761 23.7218231,25.3278761" id="Fill-65" fill="#355C4B"></path>
            <path d="M22.9675519,21.7811833 C23.2287703,22.9438837 23.3930813,24.5134571 23.3930813,24.5134571 L23.2510782,24.9707987 C23.3573406,25.1510437 23.5139757,25.3279241 23.721943,25.3279241 C23.9977935,25.3279241 24.1364384,25.2125673 24.2163151,25.0373692 L24.0992585,24.4781291 L24.2923539,20.0371327 L23.0049716,20.0371327 C22.9073445,20.6062263 22.8512149,21.263039 22.9675519,21.7811833" id="Fill-66" fill="#FFC988"></path>
            <path d="M25.1726528,25.3278761 C24.8968023,25.3278761 24.7579175,25.2127596 24.6782807,25.0373211 L24.6029615,25.4004547 C24.5703392,25.5564267 24.5988837,25.7186472 24.6828382,25.8549124 C24.6828382,25.8549124 25.2923479,26.0250637 25.6084965,25.6965372 C25.7442629,25.5554654 25.7564963,25.3338842 25.697968,25.1461891 L25.6437574,24.970991 C25.5372551,25.151236 25.3810998,25.3278761 25.1726528,25.3278761" id="Fill-67" fill="#02331E"></path>
            <path d="M24.7952653,24.478057 L24.6782087,25.0372971 C24.7580854,25.2127356 24.8967303,25.327852 25.1725808,25.327852 C25.3810278,25.327852 25.5371832,25.151212 25.6439253,24.970967 L25.5014426,24.513385 C25.5014426,24.513385 25.6659934,22.9440519 25.9269719,21.7811112 C26.0435487,21.2629669 25.9874192,20.6063945 25.8897921,20.0370606 L24.6024098,20.0370606 L24.7952653,24.478057 Z" id="Fill-68" fill="#F9C478"></path>
            <path d="M31.5274565,9.12144782 C31.4492589,8.90947971 31.211068,9.53024347 30.2410338,9.54562438 C30.0393031,9.5485083 30.1398086,9.38748944 30.3427386,9.32644646 C30.5447092,9.26540349 30.8234381,9.24040952 30.7248515,9.09765549 C30.7248515,9.09765549 30.0683274,9.00537005 29.7209956,9.41753027 C29.5684383,9.59849624 29.522863,9.67131522 29.5027139,9.70207703 L29.5362957,10.1969096 C29.5362957,10.1969096 30.736845,10.147883 31.1321508,9.63478557 C31.5274565,9.12144782 31.5610383,9.21421391 31.5274565,9.12144782" id="Fill-69" fill="#F9C478"></path>
            <path d="M29.4370135,9.67684273 L27.6761279,9.69126233 C27.6761279,9.69126233 26.4974068,7.22118493 26.0646813,7.22118493 L25.0876908,7.22118493 L24.9502453,7.73956953 L24.4460386,9.51630453 L24.4460386,20.0370847 L24.6024338,20.0370847 L25.8898161,20.0370847 L26.4904505,20.0370847 C26.4904505,20.0370847 26.1958902,17.6929384 26.4511118,16.7532612 L26.4616661,16.713367 C26.8411405,13.5126965 26.2868009,13.2831846 25.6475474,11.9558604 L26.2760067,9.40959949 L27.1959082,10.7381253 C27.5705851,11.1637438 29.8954051,10.2394474 29.8954051,10.2394474 L29.4895451,9.73764538 L29.4370135,9.67684273 Z" id="Fill-70" fill="#E5541A"></path>
            <path d="M29.18894,5.35108303 C29.3990661,5.43327475 28.7751642,5.6608641 28.7425419,6.63226445 C28.7355857,6.83413885 28.8982175,6.7363259 28.9629824,6.53421118 C29.0275075,6.33281744 29.0574912,6.05403851 29.198055,6.15569669 C29.198055,6.15569669 29.2784115,6.81491271 28.8607978,7.15545559 C28.6775372,7.30493877 28.6038971,7.34915888 28.5729538,7.36886566 L28.0795413,7.32608752 C28.0795413,7.32608752 28.150063,6.12445422 28.6696214,5.73800895 C29.18894,5.35108303 29.0970698,5.31599534 29.18894,5.35108303" id="Fill-71" fill="#F9C478"></path>
            <path d="M22.8168176,7.22111283 L23.7513511,7.22111283 L24.4460146,9.51623243 L24.4460146,20.0370126 L24.2790651,20.0370126 L22.9916828,20.0370126 L22.3910483,20.0370126 C22.3910483,20.0370126 22.6856087,17.6928663 22.430387,16.7531891 L22.4198327,16.7135352 C22.0403584,13.5128648 22.5944581,13.2831125 23.2339515,11.9560287 L22.6054921,9.40952739 C22.6054921,9.40952739 21.8839632,7.73949744 22.8168176,7.22111283" id="Fill-72" fill="#F26522"></path>
            <path d="M24.9639419,3.20446128 C24.9639419,3.20446128 24.8941397,3.64666233 24.6912097,3.99681828 C24.7259908,4.10568625 24.7893165,4.20758476 24.9015757,4.28352798 C25.3321423,4.57408291 25.7236101,4.91005958 25.7236101,4.91005958 C25.7236101,4.91005958 25.9315774,4.34240801 25.8689714,4.03863512 C25.8219568,3.80840218 25.5864045,3.48804674 25.3299835,3.31260828 C25.2006936,3.22416807 25.0666062,3.17225751 24.9481105,3.1883594 C24.9529079,3.19388691 24.9596242,3.19845312 24.9639419,3.20446128" id="Fill-73" fill="#891809"></path>
            <path d="M24.4401618,4.29765919 L24.4401618,4.29741886 L24.4401618,3.06622539 C24.1547165,3.08280793 23.8174592,3.18254349 23.5703932,3.37071926 C23.4648504,3.4512287 23.3758586,3.54687871 23.3158911,3.65839028 C22.9592044,4.31832728 23.1287925,4.92419079 23.1287925,4.92419079 C23.1287925,4.92419079 23.1405461,4.92010524 23.1585364,4.91361642 C23.3134924,4.85737998 24.0822757,4.57163158 24.4401618,4.29765919" id="Fill-74" fill="#A0210C"></path>
            <path d="M24.6912816,3.99677021 C24.8942117,3.64661427 24.9640138,3.20441322 24.9640138,3.20441322 C24.9596962,3.19840505 24.9529798,3.19383884 24.9479425,3.18831133 C24.8620691,3.09145969 24.6670548,3.05324775 24.4403776,3.06622539 L24.4403776,4.29741886 C24.5406433,4.22099498 24.6233984,4.11404962 24.6912816,3.99677021" id="Fill-75" fill="#A0210C"></path>
            <path d="M23.1898634,7.29352326 L25.4223334,8.45406069 L28.1208709,6.93808013 L28.4339012,7.45646473 C28.4339012,7.45646473 26.0963681,9.55139222 25.4854192,9.53024347 C24.8747102,9.50909473 22.4877639,8.79436324 22.4877639,8.79436324 C22.4877639,8.79436324 21.9375022,6.93495588 23.1898634,7.29352326" id="Fill-76" fill="#F6921E"></path>
            <polygon id="Fill-77" fill="#363B5B" points="30.9692311 1.52438567 29.0219665 5.75293324 29.4191912 5.93654281 31.3664558 1.70799524"></polygon>
            <polygon id="Fill-78" fill="#FFFFFF" points="29.5768577 4.5479594 29.3437041 5.05408735 29.8920469 4.9094107 30.1252005 4.40328276"></polygon>
            <polygon id="Fill-79" fill="#FFFFFF" points="30.2170707 3.15774178 29.9839171 3.66386972 30.5322599 3.51919307 30.7654135 3.01306513"></polygon>
            <polygon id="Fill-80" fill="#FFFFFF" points="30.7677883 1.96209262 30.5343948 2.46822056 31.0829774 2.32354391 31.3161311 1.81741597"></polygon>
            <polygon id="Fill-81" fill="#363B5B" points="34.5052026 8.37698793 30.0042821 9.53968831 29.2402961 6.57069276 33.7412167 5.40799239"></polygon>
            <polygon id="Fill-82" fill="#363B5B" points="33.7413366 5.40799239 29.2401762 6.57069276 29.1310354 6.14627588 33.6319559 4.98357551"></polygon>
            <path d="M29.7450546,6.44029152 L29.2403681,6.57054857 L29.0218465,5.72171481 L29.2607571,5.65995086 C29.3214442,5.64432962 29.3859692,5.66427674 29.4272268,5.71138076 L29.8285293,6.16920305 C29.9100851,6.26244979 29.8649896,6.40928938 29.7450546,6.44029152" id="Fill-83" fill="#616786"></path>
            <path d="M29.3332458,5.87268801 C29.340202,5.90008525 29.3238908,5.92796315 29.2965457,5.93493262 C29.2692005,5.94214242 29.2413756,5.92555988 29.2344193,5.89816264 C29.2274631,5.8707654 29.2437743,5.84288751 29.2708796,5.83591804 C29.2982247,5.82870824 29.3262895,5.84529078 29.3332458,5.87268801" id="Fill-84" fill="#FFFFFF"></path>
            <path d="M29.4541163,6.34207001 C29.4610725,6.36946725 29.4445215,6.39734514 29.4174161,6.40431462 C29.3898311,6.41152442 29.3620062,6.39494188 29.3550499,6.36754464 C29.3480937,6.3401474 29.3644049,6.31226951 29.3917501,6.30530003 C29.4190952,6.29809023 29.4469202,6.31467277 29.4541163,6.34207001" id="Fill-85" fill="#FFFFFF"></path>
            <path d="M29.7755181,6.25898909 C29.7824743,6.28638633 29.7661631,6.31426422 29.738818,6.32123369 C29.7114728,6.32844349 29.6836479,6.31186095 29.6766916,6.28446371 C29.6697354,6.25706647 29.6860466,6.22918858 29.7131519,6.22221911 C29.740497,6.21500931 29.7685618,6.23159185 29.7755181,6.25898909" id="Fill-86" fill="#FFFFFF"></path>
            <polygon id="Fill-87" fill="#FFFFFF" points="30.5230009 6.23940246 29.9842529 6.3785516 30.2246027 5.8637719 30.7633507 5.72462276"></polygon>
            <polygon id="Fill-88" fill="#FFFFFF" points="32.0027349 5.85706678 31.4639869 5.99621592 31.7043367 5.48167654 32.2430847 5.34228708"></polygon>
            <polygon id="Fill-89" fill="#FFFFFF" points="33.2754132 5.52839604 32.7366652 5.66754518 32.976775 5.1530058 33.5157629 5.01361634"></polygon>
            <polygon id="Fill-90" fill="#9FA8D6" points="33.7795 5.55665846 29.6662093 6.61938294 29.2320446 6.5729999 33.7413606 5.40789626"></polygon>
            <path d="M31.6309844,6.55165889 C31.1582007,6.67374483 30.8729952,7.15848371 30.9948492,7.63216755 C31.1167032,8.10561107 31.6005209,8.39184012 32.0733047,8.26951385 C32.5458486,8.14766823 32.8312939,7.66292936 32.7094399,7.18900519 C32.587586,6.71556167 32.1037682,6.42957295 31.6309844,6.55165889 M32.098491,8.36876876 C31.5714967,8.50479365 31.0317892,8.18588017 30.8960228,7.65764218 C30.7600165,7.12940418 31.078324,6.58890952 31.6057981,6.45264431 C32.1327924,6.31637909 32.6724999,6.63529257 32.8082663,7.16353057 C32.9445125,7.69200889 32.6257253,8.23250355 32.098491,8.36876876" id="Fill-91" fill="#9FA8D6"></path>
            <polygon id="Fill-92" fill="#9FA8D6" points="32.2882762 7.32885127 31.7562445 7.8582909 31.5669871 7.12313165"></polygon>
            <polygon id="Fill-108" fill="#272B4C" points="46.0154602 13.0594645 47.8483068 13.0594645 47.8483068 12.6439397 46.0154602 12.6439397"></polygon>
            <path d="M64.3102247,0.22981806 L44.0467273,0.22981806 C43.2997721,0.22981806 42.6943402,0.836642874 42.6943402,1.58502009 L42.6943402,18.1271847 L65.6628516,18.1271847 L65.6628516,1.58502009 C65.6628516,0.836642874 65.0571799,0.22981806 64.3102247,0.22981806 L64.3102247,0.22981806 Z M64.3102247,0.627799007 C64.8369792,0.627799007 65.2656269,1.05726275 65.2656269,1.58502009 L65.2656269,17.7292037 L43.0913251,17.7292037 L43.0913251,1.58502009 C43.0913251,1.05726275 43.5199727,0.627799007 44.0467273,0.627799007 L64.3102247,0.627799007 Z" id="Fill-109" fill="#363B5B"></path>
            <polygon id="Fill-110" fill="#363B5B" points="42.9590368 3.61751071 65.2657468 3.61751071 65.2657468 3.21977009 42.9590368 3.21977009"></polygon>
            <polygon id="Fill-111" fill="#363B5B" points="42.9590368 8.2546136 65.2657468 8.2546136 65.2657468 7.85687298 42.9590368 7.85687298"></polygon>
            <polygon id="Fill-112" fill="#363B5B" points="42.9590368 12.8919568 65.2657468 12.8919568 65.2657468 12.4942162 42.9590368 12.4942162"></polygon>
            <polygon id="Fill-113" fill="#4CB64A" points="43.8856546 18.1272328 64.4712974 18.1272328 64.4712974 0.229866125 43.8856546 0.229866125"></polygon>
            <path d="M57.0778086,20.6752 C57.0178411,20.686976 56.942282,20.6922632 56.8643243,20.6739984 C56.6892192,20.6331429 55.9199561,20.6739984 55.693279,20.7095667 C55.4687607,20.7446544 55.1223884,20.6331429 55.0473091,20.5540754 C55.0257208,20.5870001 55.0331568,20.6552529 55.0626608,20.6888986 C55.1324629,20.7686871 55.4728384,20.9544596 55.693279,20.890773 C55.9487405,20.8167524 56.6973748,20.8391028 56.8643243,20.890773 C56.9408428,20.9145654 57.0178411,20.9023087 57.0778086,20.890773 C57.1495297,20.8768341 57.1958246,20.6992327 57.1835912,20.6268944 L57.1835912,20.5197087 C57.1687193,20.5636885 57.1262623,20.665587 57.0778086,20.6752" id="Fill-187" fill="#25B8C1"></path>
            <path d="M57.0621211,19.9172578 L56.4113538,19.8478034 C56.4113538,19.8478034 55.9397694,20.1703218 55.8757241,20.1945948 C55.8114389,20.2188678 55.1450801,20.3964692 55.1450801,20.3964692 C55.1450801,20.3964692 54.9927626,20.5019726 55.0625648,20.581761 C55.0635243,20.582482 55.0647236,20.5834433 55.0654433,20.5841643 C55.1402827,20.6632318 55.4686647,20.7447025 55.693183,20.7096148 C55.9198602,20.6740465 56.6891232,20.6331909 56.8644682,20.6740465 C56.9421861,20.6923113 57.0177451,20.6870241 57.0777126,20.6752481 C57.1264062,20.665635 57.1616671,20.6298264 57.1767789,20.5856062 C57.1837352,20.5649382 57.1875731,20.5428281 57.1837352,20.5195164 L57.1244873,20.1710428 L57.0621211,19.9172578 Z" id="Fill-188" fill="#3A8F9B"></path>
            <path d="M59.9248735,20.6752 C59.8651459,20.686976 59.7898267,20.6922632 59.7118689,20.6739984 C59.5367639,20.6331429 58.767021,20.6739984 58.5403439,20.7095667 C58.3160655,20.7446544 57.9694533,20.6331429 57.8946139,20.5540754 C57.8727857,20.5870001 57.8802217,20.6552529 57.9099656,20.6888986 C57.9797677,20.7686871 58.3199034,20.9544596 58.5403439,20.890773 C58.7962852,20.8167524 59.5446796,20.8391028 59.7118689,20.890773 C59.7881476,20.9145654 59.8651459,20.9023087 59.9248735,20.890773 C59.9965946,20.8768341 60.0433693,20.6992327 60.030896,20.6268944 L60.030896,20.5197087 C60.0160241,20.5636885 59.973807,20.665587 59.9248735,20.6752" id="Fill-189" fill="#25B8C1"></path>
            <path d="M59.909186,19.9172578 L59.2586586,19.8478034 C59.2586586,19.8478034 58.7870742,20.1703218 58.7230289,20.1945948 C58.6587437,20.2188678 57.9923849,20.3964692 57.9923849,20.3964692 C57.9923849,20.3964692 57.8398276,20.5019726 57.9098696,20.581761 C57.9105892,20.582482 57.9117886,20.5834433 57.912748,20.5841643 C57.9875875,20.6632318 58.3159695,20.7447025 58.540248,20.7096148 C58.7669251,20.6740465 59.5366679,20.6331909 59.7120129,20.6740465 C59.7897307,20.6923113 59.8650499,20.6870241 59.9247776,20.6752481 C59.9739509,20.665635 60.0089719,20.6298264 60.0240837,20.5856062 C60.03104,20.5649382 60.034638,20.5428281 60.03104,20.5195164 L59.9717921,20.1710428 L59.909186,19.9172578 Z" id="Fill-190" fill="#3A8F9B"></path>
            <path d="M55.4877344,9.5028222 C55.4877344,9.5028222 55.2389892,9.03322391 55.0348598,8.95872264 C54.8312102,8.88398105 54.4622902,8.68547123 54.4606111,8.74795616 C54.458932,8.81044109 54.6772137,9.13271914 54.8005068,9.14089025 C54.9233203,9.14882103 54.0218888,8.85538218 54.0218888,8.85538218 C54.0218888,8.85538218 53.8551792,9.08225055 53.9036329,9.17910219 C53.9525664,9.27643449 54.571431,9.8832593 54.571431,9.8832593 L55.3306195,9.93396823 L55.4877344,9.5028222 Z" id="Fill-191" fill="#FFC197"></path>
            <path d="M48.5083331,8.034931 L48.5092926,8.04093917 C48.5690202,8.43916044 48.7338109,8.8138297 48.9868738,9.12649468 L48.9875934,9.12697534 L50.0626907,10.0212308 C50.1924603,10.1586977 50.3814779,10.2235859 50.5678569,10.1945064 C50.5688164,10.1945064 50.569536,10.194266 50.5700157,10.1937854 L52.1754656,9.24137083 C52.1754656,9.24137083 52.538149,9.12865762 52.789053,8.90587481 C52.8730075,8.83113322 52.9989393,8.35696872 52.9867059,8.2449765 C52.9867059,8.2449765 52.9550431,7.60426563 52.8382264,7.68477506 C52.7588294,7.73932921 52.6113094,8.24713944 52.6113094,8.24713944 C52.5547,8.32380364 52.1826617,8.51173909 52.1826617,8.51173909 C52.1800231,8.5136617 52.1605936,8.37763681 52.1603538,8.37427224 C52.1603538,8.37427224 52.4529952,8.00032396 52.3560877,7.9258227 L52.0996667,8.13154232 C51.9603022,8.25723316 51.8842634,8.43916044 51.8933785,8.62685556 L51.8936183,8.62973948 C51.9000948,8.76360143 51.9475891,8.89722305 51.9449505,8.89818436 L50.3862753,9.48554271 C50.3843563,9.48626369 50.3824374,9.48578304 50.3814779,9.48434108 L50.0559743,9.09140699 C50.0557344,9.09116667 50.0557344,9.09092634 50.0554946,9.09044569 C49.8463279,8.58479839 49.532578,8.12913905 49.1348735,7.75398913 L49.1286369,7.74822129 C48.8335968,7.60114138 48.5886896,7.71457556 48.5083331,8.034931" id="Fill-192" fill="#FFC197"></path>
            <path d="M55.4877344,9.38347598 L56.4668837,9.65528543 L57.1404386,9.78626346 C57.4400363,9.81293972 57.7142077,9.61755415 57.787368,9.32531693 L58.1186285,8.00472194 C58.2438406,7.53536397 58.8116129,7.35271571 59.1867695,7.66105482 L59.1985232,7.67090821 C59.4182441,7.85163386 59.49956,8.15252283 59.4004937,8.41952575 L58.7231008,10.2568231 C58.6211561,10.5344004 57.7521071,11.0648013 57.4611448,11.013852 L55.1629504,10.1296903 L55.4877344,9.38347598 Z" id="Fill-193" fill="#8A9100"></path>
            <polygon id="Fill-194" fill="#FCB98B" points="58.7568745 7.45312419 59.7799201 7.45312419 59.7799201 5.84125329 58.7568745 5.84125329"></polygon>
            <polygon id="Fill-195" fill="#1574B3" points="58.8473295 20.104304 60.0190944 20.104304 59.9562485 16.1559774 60.0819404 12.4626373 58.481048 12.4626373"></polygon>
            <path d="M55.9887988,20.104304 L57.2332443,20.104304 L58.1104489,16.6080318 C58.1104489,16.6080318 60.4839625,13.6770079 59.9562485,12.7464631 C59.6964693,12.2881601 57.861224,12.5556437 57.861224,12.5556437 L56.5798385,16.6883009 L55.9887988,20.104304 Z" id="Fill-196" fill="#319FDD"></path>
            <path d="M60.5519416,5.65300542 C60.9654775,4.98633926 60.7608684,4.11010826 60.0957089,3.69602543 C59.4298298,3.2819426 58.5557436,3.48670091 58.1422077,4.15336706 C57.9469535,4.46843531 57.7629732,5.36269081 57.9440751,5.99835482 C58.005002,6.21128424 58.2381557,6.32207483 58.4185379,6.32423777 C58.4185379,6.32423777 58.9493702,6.30140674 59.176767,6.31270209 C59.709998,6.33937835 60.2513845,6.13774429 60.5519416,5.65300542" id="Fill-197" fill="#FFD0B0"></path>
            <path d="M59.8309404,3.57901038 C59.8309404,3.57901038 58.7815092,3.05125304 58.2000643,3.98948831 C58.0002526,4.31128571 57.767099,4.5518527 57.767099,4.5518527 C57.767099,4.5518527 58.4440121,4.54151865 58.8105335,4.01688555 C58.9923549,3.75637145 59.2792394,3.81501116 59.2792394,3.81501116 C59.2792394,3.81501116 58.898086,3.47927482 58.684122,4.22020191 C58.4701579,4.961129 59.0060275,5.05485639 59.0060275,5.05485639 C59.0060275,5.05485639 59.3005879,4.28388847 59.4999198,4.91546693 C59.6702275,5.4542793 59.2130353,5.47975393 59.2130353,5.47975393 C59.2130353,5.47975393 59.7618579,6.01015486 59.7798481,6.18511267 C59.7980782,6.36031081 59.6915759,6.4720627 59.9633487,6.25697034 C60.2351214,6.04235864 60.5025764,5.89575937 60.7270947,5.33387564 C60.9520928,4.77151126 60.6587318,3.78280739 59.8309404,3.57901038" id="Fill-198" fill="#071E2B"></path>
            <path d="M57.7419126,10.0620864 L57.8700032,12.7462948 L60.0820843,12.9654727 L60.3269916,10.3680222 C60.455322,9.01065723 60.1900258,8.17119621 59.7798481,6.87102899 C59.7798481,6.87102899 59.3015473,7.4598293 58.7568026,7.12457361 C58.7568026,7.12457361 57.3876247,8.04766831 57.7419126,10.0620864" id="Fill-199" fill="#A1B400"></path>
            <path d="M48.3783236,20.3219679 L48.418142,20.1996416 C48.4006315,20.270538 48.3850399,20.3532104 48.3792831,20.4423716 C48.3766445,20.4043999 48.3759249,20.3649864 48.3783236,20.3219679" id="Fill-200" fill="#F9AF7D"></path>
            <path d="M48.2747717,12.808948 C48.2795691,12.7644876 49.2632759,12.808948 49.2632759,12.808948 C49.8691876,12.904598 49.8310482,14.7447792 49.730063,15.6798903 C49.7036773,15.9262251 49.4575706,16.6959914 49.3474703,16.9178129 L49.3431527,16.9264646 C49.1150363,17.3859692 48.9552829,18.1814504 48.9883849,18.6938269 L49.0437949,19.5515527 C49.2786276,19.8091829 49.722627,20.3174738 50.0574855,20.4960365 C50.1030608,20.5203095 50.1467171,20.5404969 50.187495,20.5553972 C50.128487,20.5888026 50.0318194,20.6085094 49.866549,20.5695765 C49.8435215,20.5642893 49.8188149,20.5594827 49.7948279,20.5541956 C49.4283065,20.4756087 49.1421416,20.4285047 48.8722879,20.3040155 C48.5854033,20.1711149 48.486337,19.9894279 48.486337,19.9894279 L48.5674131,19.7380462 L48.3304215,18.7450165 C48.1994525,18.1941878 48.1999323,17.6202877 48.336898,17.0711413 C48.3383373,17.0656138 48.3397765,17.0603266 48.3412157,17.0547991 C48.4386029,16.6678731 48.4784213,16.2686906 48.4546742,15.870229 L48.2747717,12.808948 Z" id="Fill-201" fill="#F9AF7D"></path>
            <path d="M48.4863131,19.9890674 L48.4863131,19.9890674 L48.41819,20.1995936 C48.4493731,20.074864 48.4863131,19.9890674 48.4863131,19.9890674" id="Fill-202" fill="#F9AF7D"></path>
            <path d="M48.3792591,20.4424917 C48.385016,20.3533305 48.4006075,20.2706582 48.418118,20.1997618 L48.5135863,19.9046407 C48.5135863,19.9046407 48.5891453,20.0668612 48.8762697,20.1997618 C49.1456437,20.324251 49.4282106,20.4756568 49.7947319,20.5542436 C49.8187189,20.5592905 49.8434255,20.564097 49.866453,20.5696245 C50.0319633,20.6085574 50.1283911,20.5888507 50.1873991,20.5554452 C50.1900377,20.5564066 50.193156,20.5578485 50.1957945,20.5588098 L50.5827048,20.6744069 C50.6793724,20.708293 50.6692979,20.8354258 50.5733499,20.8719555 C50.2804686,20.9839477 50.0420379,20.9493406 49.7508357,20.9303548 C49.442123,20.9101674 49.3420972,20.7964929 49.04178,20.6876249 L49.0050799,20.8846928 L48.5963414,20.8846928 C48.5963414,20.8846928 48.4939169,20.7034865 48.4524194,20.5910136 C48.4418651,20.5628954 48.3773401,20.4715712 48.3792591,20.4424917" id="Fill-203" fill="#F26522"></path>
            <path d="M50.2731526,20.377964 L50.3088932,20.2541958 C50.2933017,20.3255728 50.2805886,20.4087258 50.27795,20.4981273 C50.2741121,20.4601557 50.2719533,20.4207422 50.2731526,20.377964" id="Fill-204" fill="#F9AF7D"></path>
            <path d="M48.5083331,12.8720818 C48.5116913,12.827381 49.4958779,12.8401184 49.4958779,12.8401184 C50.1049078,12.9160616 50.7460803,14.7562428 50.6755585,15.6942378 C50.6570885,15.9412936 50.6422166,16.7187503 50.5393124,16.9441767 L50.5352346,16.9525881 C50.32223,17.4195428 50.6016786,18.2195903 50.6510918,18.7305248 L50.9408547,19.586328 C51.1836032,19.8360274 51.6439137,20.3296584 51.9842892,20.4976467 C52.030824,20.5202374 52.0749601,20.5387425 52.1162177,20.5526815 C52.0581692,20.5877692 51.9622212,20.6108405 51.7959913,20.5771948 C51.7727239,20.5726286 51.7477774,20.5683027 51.7235505,20.5639768 C51.3548703,20.4976467 51.0672662,20.4596751 50.7938144,20.3438376 C50.5023724,20.2205501 50.3975492,20.041747 50.3975492,20.041747 L50.4709494,19.7879621 L49.9952872,18.8028631 C49.8460881,18.2570812 49.4148018,17.6834215 49.5342571,17.1301895 C49.5356963,17.124662 49.5368957,17.1188942 49.538095,17.1133667 C49.6227691,16.7235568 49.4428666,16.3231726 49.4068861,15.9256723 L48.5083331,12.8720818 Z" id="Fill-205" fill="#F9AF7D"></path>
            <path d="M50.3975252,20.041747 L50.3975252,20.041747 L50.3363584,20.2541958 C50.3632238,20.1285049 50.3975252,20.041747 50.3975252,20.041747" id="Fill-206" fill="#F9AF7D"></path>
            <path d="M50.3052472,20.4980072 C50.3086054,20.408846 50.3210786,20.325693 50.3364303,20.2543159 L50.4223038,19.9563109 C50.4223038,19.9563109 50.50314,20.1158878 50.7941023,20.2394157 C51.0675541,20.3552531 51.3549183,20.4975265 51.7235985,20.5638567 C51.7478254,20.5684229 51.7727718,20.5725084 51.7960392,20.5770746 C51.9622691,20.6107204 52.0582171,20.5878893 52.1162657,20.5525613 C52.1189042,20.5535226 52.1220225,20.5547243 52.1246611,20.5556856 L52.5149296,20.6585454 C52.6125567,20.6893072 52.6067998,20.8166803 52.512291,20.8563342 C52.2230078,20.9779395 51.9831378,20.9507826 51.6916958,20.9414099 C51.3825034,20.9313161 51.2791194,20.8207659 50.9752041,20.7217513 L50.9452204,20.9200208 L50.5367218,20.9329984 C50.5367218,20.9329984 50.4283005,20.755397 50.3829651,20.6443661 C50.3716912,20.6164882 50.3042877,20.527327 50.3052472,20.4980072" id="Fill-207" fill="#F26522"></path>
            <path d="M49.0986292,7.60544323 C48.8393297,7.4239966 48.6627854,7.29494118 48.4747273,7.27090852 C48.3931715,7.26033414 48.300102,7.24423226 48.220705,7.22909168 C48.2355769,7.15555172 48.2526077,7.08297307 48.2727568,7.01063475 L48.8007107,6.46100768 L49.2423113,6.8299091 L49.1111024,7.30719784 L49.3809562,7.6782622 C49.3099547,7.69364311 49.2147263,7.68643331 49.0986292,7.60544323" id="Fill-208" fill="#F9AF7D"></path>
            <path d="M48.2087115,8.44973481 C48.1336322,8.04502472 48.1381897,7.63070156 48.220705,7.22887538 C48.300102,7.24401596 48.4149997,7.21830101 48.4970352,7.22887538 C48.6848534,7.25290805 49.0986292,7.29015868 49.3809562,7.67828624 L49.8587772,8.33581998 C50.0269261,8.56701422 50.0926504,8.85732883 50.0403588,9.13851102 L49.7517952,10.6915019 L51.0063152,14.8484321 L47.748401,15.0224286 C47.748401,15.0224286 47.9225466,12.7840261 47.9362192,12.6542497 C48.0357652,11.7246662 48.486481,10.746056 48.486481,10.746056 C48.5651583,10.3612931 48.5598812,9.96427342 48.4713692,9.58167338 L48.2087115,8.44973481 Z" id="Fill-209" fill="#2B59A1"></path>
            <path d="M47.9723676,5.94685282 C47.6907602,5.4039549 48.0733529,4.7377694 48.6495206,4.53517403 C49.2256883,4.33281898 49.8563065,4.63659188 50.0582771,5.21361618 C50.1539852,5.48662727 50.1096092,6.18165197 49.897804,6.65100993 C49.7085466,7.07086061 49.3324305,6.852644 49.1947451,6.8238048 C49.1947451,6.8238048 48.383025,6.74017112 47.9723676,5.94685282" id="Fill-210" fill="#FFD0B0"></path>
            <path d="M48.8976421,4.32111507 C48.8976421,4.32111507 49.940357,4.21609232 50.0629305,5.06805033 C50.1447262,5.63690353 49.2704001,5.74240693 49.2704001,5.74240693 C49.2704001,5.74240693 49.1756514,5.10578161 48.9175513,5.5527892 C48.6971108,5.93370695 49.0408445,6.0305586 49.0408445,6.0305586 C49.0408445,6.0305586 48.9496939,6.30092609 48.8926048,6.37518703 C48.8064915,6.48790023 48.7443652,6.67823894 48.51409,6.57922436 C48.2312833,6.45761907 47.9499158,6.08535308 47.873877,5.61960001 C47.7975983,5.15408727 48.0154003,4.47636609 48.8976421,4.32111507" id="Fill-211" fill="#071E2B"></path>
            <path d="M48.2197215,7.99936265 L47.7733235,8.08395764 C47.7733235,8.08395764 47.5176221,5.48987168 47.9515469,4.99744235 C48.384992,4.5047727 48.6917857,6.03589385 48.6917857,6.03589385 L49.0407965,6.03060666 L49.0619051,7.08323743 C49.0139311,7.54154037 48.6716366,7.91428702 48.2197215,7.99936265" id="Fill-212" fill="#071E2B"></path>
            <path d="M48.9920549,7.8931623 C48.9920549,7.8931623 48.646882,7.69849771 48.5082372,8.18515919 C48.3700721,8.67182068 48.4557056,9.41515103 48.4557056,9.41515103 L48.3801466,10.7523286 L49.2100968,12.6867178 L49.2100968,13.2461983 C49.2100968,13.2461983 49.329552,13.7761186 49.4288582,13.8549457 C49.6744851,14.0491297 49.8613438,14.098637 49.8745367,13.9825592 C49.8920472,13.8289905 49.7195806,13.5569407 49.7195806,13.5569407 L49.7649161,13.0152444 L49.8939661,13.2039008 C49.8939661,13.2039008 49.9294669,13.4540809 49.9971102,13.4898895 C50.0249351,13.5043091 50.0923386,13.307001 50.0618751,13.1796278 C50.0165397,12.9907311 50.0146207,12.9203154 49.9325852,12.8388446 L49.6612922,12.5410799 L49.2100968,11.0558611 L49.0618571,10.7400719 L49.2837369,9.23154147 C49.2837369,9.23154147 49.768754,8.3312778 48.9920549,7.8931623" id="Fill-213" fill="#F9AF7D"></path>
            <path d="M59.8398396,12.9690055 C59.8398396,12.9690055 59.4251044,13.3008967 59.3898435,13.5155084 C59.3543427,13.7301201 59.2279312,14.1300236 59.2895778,14.1204106 C59.3509845,14.1103168 59.626835,13.8353831 59.6119631,13.7128165 C59.5970912,13.5900096 59.4759568,14.5320901 59.4759568,14.5320901 C59.4759568,14.5320901 59.7290197,14.6546567 59.815133,14.5885669 C59.901726,14.5227174 60.3824255,13.8007761 60.3824255,13.8007761 L60.2917547,13.0442278 L59.8398396,12.9690055 Z" id="Fill-214" fill="#FFC197"></path>
            <path d="M60.2776503,7.68746672 C59.6676609,6.64733293 59.6899688,7.605275 59.4524975,8.2282017 C59.2145465,8.8511284 60.1214949,10.6295457 60.1214949,10.6295457 L59.7446592,12.9991665 L60.4069402,13.1712404 C60.4069402,13.1712404 61.650906,10.0277677 60.2776503,7.68746672" id="Fill-215" fill="#B4CE46"></path>
        </g>
    </g>
</svg>