<?xml version="1.0" encoding="UTF-8"?>
<svg width="18px" height="18px" viewBox="0 0 18 18" version="1.1" xmlns="http://www.w3.org/2000/svg" xmlns:xlink="http://www.w3.org/1999/xlink">
    <!-- Generator: Sketch 53.2 (72643) - https://sketchapp.com -->
    <title>ic-checkbox-active</title>
    <desc>Created with Sketch.</desc>
    <defs>
        <path d="M19,3 L5,3 C3.9,3 3,3.9 3,5 L3,19 C3,20.1 3.9,21 5,21 L19,21 C20.1,21 21,20.1 21,19 L21,5 C21,3.9 20.1,3 19,3 Z M10.71,16.29 C10.32,16.68 9.69,16.68 9.3,16.29 L5.71,12.7 C5.52274733,12.5131685 5.41751439,12.2595176 5.41751439,11.995 C5.41751439,11.7304824 5.52274733,11.4768315 5.71,11.29 C6.1,10.9 6.73,10.9 7.12,11.29 L10,14.17 L16.88,7.29 C17.27,6.9 17.9,6.9 18.29,7.29 C18.68,7.68 18.68,8.31 18.29,8.7 L10.71,16.29 Z" id="path-1"></path>
    </defs>
    <g id="Web" stroke="none" stroke-width="1" fill="none" fill-rule="evenodd">
        <g id="Enter-Details-V2" transform="translate(-330.000000, -678.000000)">
            <g id="Information-Card" transform="translate(163.000000, 397.000000)">
                <g id="Information" transform="translate(164.000000, 0.000000)">
                    <g id="Group-2" transform="translate(0.000000, 277.000000)">
                        <g id="Icon-/-Checkbox" transform="translate(0.000000, 1.000000)">
                            <mask id="mask-2" fill="white">
                                <use xlink:href="#path-1"></use>
                            </mask>
                            <use id="check_box_icon" fill="#FBB03A" fill-rule="nonzero" xlink:href="#path-1"></use>
                        </g>
                    </g>
                </g>
            </g>
        </g>
    </g>
</svg>