<?xml version="1.0" encoding="UTF-8"?>
<svg width="238px" height="88px" viewBox="0 0 238 88" version="1.1" xmlns="http://www.w3.org/2000/svg" xmlns:xlink="http://www.w3.org/1999/xlink">
    <!-- Generator: Sketch 53.2 (72643) - https://sketchapp.com -->
    <title>Illustration</title>
    <desc>Created with Sketch.</desc>
    <g id="Web" stroke="none" stroke-width="1" fill="none" fill-rule="evenodd">
        <g id="Choose-Membership-V7-Anually-Select" transform="translate(-161.000000, -665.000000)">
            <g id="Memberships" transform="translate(90.000000, 336.000000)">
                <g id="Premium" transform="translate(0.000000, 89.000000)">
                    <g id="Group-12">
                        <g id="Group-15">
                            <g id="Illustration" transform="translate(71.869565, 240.130435)">
                                <path d="M39.0052618,32.8322453 L21.31289,32.8322453 C20.4356036,32.8322453 19.7243428,32.1196303 19.7243428,31.2406738 L19.7243428,21.1113147 C19.7243428,20.2323582 20.4356036,19.5197433 21.31289,19.5197433 L39.0052618,19.5197433 C39.8825482,19.5197433 40.5938091,20.2323582 40.5938091,21.1113147 L40.5938091,31.2406738 C40.5938091,32.1196303 39.8825482,32.8322453 39.0052618,32.8322453" id="Fill-7" fill="#363B5B"></path>
                                <path d="M236.26087,67.326087 C236.26087,78.5038415 183.371881,87.5652174 118.130757,87.5652174 C52.8889884,87.5652174 0,78.5038415 0,67.326087 C0,56.1483324 52.8889884,47.0869565 118.130757,47.0869565 C183.371881,47.0869565 236.26087,56.1483324 236.26087,67.326087" id="Fill-1" fill="#EDF2FA"></path>
                                <polygon id="Fill-3" fill="#141832" points="39.6521739 28.9130435 41.3043478 28.9130435 41.3043478 22.3043478 39.6521739 22.3043478"></polygon>
                                <polygon id="Fill-4" fill="#272B4C" points="27.2608696 35.5217391 37.173913 35.5217391 37.173913 33.0434783 27.2608696 33.0434783"></polygon>
                                <polygon id="Fill-5" fill="#272B4C" points="29.7391304 40.4782609 36.3478261 40.4782609 36.3478261 38 29.7391304 38"></polygon>
                                <polygon id="Fill-6" fill="#616786" points="41.3043478 28.0869565 44.6086957 28.0869565 44.6086957 23.1304348 41.3043478 23.1304348"></polygon>
                                <polygon id="Fill-9" fill="#141832" points="50.6316315 31.5481791 43.7709681 27.6951392 43.7709681 22.9197775 50.6316315 19.1398761"></polygon>
                                <path d="M29.3646085,14.2382372 C29.3646085,17.0349759 27.1016232,19.3029167 24.3095528,19.3029167 C21.5181285,19.3029167 19.2551431,17.0349759 19.2551431,14.2382372 C19.2551431,11.4408513 21.5181285,9.17355769 24.3095528,9.17355769 C27.1016232,9.17355769 29.3646085,11.4408513 29.3646085,14.2382372" id="Fill-11" fill="#363B5B"></path>
                                <path d="M24.3097466,15.3958967 C23.6727773,15.3958967 23.1546745,14.8768075 23.1546745,14.2379783 C23.1546745,13.5997963 23.6727773,13.0807071 24.3097466,13.0807071 C24.9467159,13.0807071 25.4654648,13.5997963 25.4654648,14.2379783 C25.4654648,14.8768075 24.9467159,15.3958967 24.3097466,15.3958967" id="Fill-13" fill="#141832"></path>
                                <path d="M24.3097466,14.9616611 C23.9111563,14.9616611 23.5875035,14.6373922 23.5875035,14.238043 C23.5875035,13.8393411 23.9111563,13.5144249 24.3097466,13.5144249 C24.7076909,13.5144249 25.0319897,13.8393411 25.0319897,14.238043 C25.0319897,14.6373922 24.7076909,14.9616611 24.3097466,14.9616611" id="Fill-15" fill="#616786"></path>
                                <path d="M25.7900866,17.4576905 C25.3126826,17.4576905 24.9237825,17.06805 24.9237825,16.5897372 C24.9237825,16.1107771 25.3126826,15.7211365 25.7900866,15.7211365 C26.2681366,15.7211365 26.6570367,16.1107771 26.6570367,16.5897372 C26.6570367,17.06805 26.2681366,17.4576905 25.7900866,17.4576905" id="Fill-17" fill="#141832"></path>
                                <path d="M25.7900866,17.1321918 C25.4916283,17.1321918 25.2487272,16.8888283 25.2487272,16.5898019 C25.2487272,16.2901282 25.4916283,16.0467647 25.7900866,16.0467647 C26.0885448,16.0467647 26.3314459,16.2901282 26.3314459,16.5898019 C26.3314459,16.8888283 26.0885448,17.1321918 25.7900866,17.1321918" id="Fill-19" fill="#616786"></path>
                                <path d="M38.6803816,14.3826372 C38.6803816,17.1800231 36.4173963,19.4473167 33.625326,19.4473167 C30.8339016,19.4473167 28.5702703,17.1800231 28.5702703,14.3826372 C28.5702703,11.5858985 30.8339016,9.31795769 33.625326,9.31795769 C36.4173963,9.31795769 38.6803816,11.5858985 38.6803816,14.3826372" id="Fill-21" fill="#363B5B"></path>
                                <path d="M33.6251968,15.5406203 C32.9882274,15.5406203 32.4694786,15.0208839 32.4694786,14.3827019 C32.4694786,13.7445199 32.9882274,13.2254307 33.6251968,13.2254307 C34.2621661,13.2254307 34.7809149,13.7445199 34.7809149,14.3827019 C34.7809149,15.0208839 34.2621661,15.5406203 33.6251968,15.5406203" id="Fill-23" fill="#141832"></path>
                                <path d="M33.6251968,15.1063848 C33.2272524,15.1063848 32.9029537,14.7821158 32.9029537,14.3827667 C32.9029537,13.9840647 33.2272524,13.6591485 33.6251968,13.6591485 C34.0237871,13.6591485 34.3474399,13.9840647 34.3474399,14.3827667 C34.3474399,14.7821158 34.0237871,15.1063848 33.6251968,15.1063848" id="Fill-25" fill="#616786"></path>
                                <path d="M30.2674124,19.3027225 L28.2453901,19.3027225 C27.5877483,19.3027225 27.0534952,18.647065 27.0534952,17.838658 L27.0534952,16.0639166 C27.0534952,15.2555096 27.5877483,14.5998521 28.2453901,14.5998521 L30.2674124,14.5998521 C30.9257001,14.5998521 31.4586613,15.2555096 31.4586613,16.0639166 L31.4586613,17.838658 C31.4586613,18.647065 30.9257001,19.3027225 30.2674124,19.3027225" id="Fill-27" fill="#616786"></path>
                                <polygon id="Fill-29" fill="#616786" points="19.326786 19.5198727 34.058478 19.5198727 34.058478 18.4344455 19.326786 18.4344455"></polygon>
                                <polygon id="Fill-31" fill="#616786" points="20.2964523 24.7101174 15.2006978 22.6680645 15.6832699 21.4590139 20.7790244 23.5010668"></polygon>
                                <polygon id="Fill-32" fill="#363B5B" points="15.2008916 22.668194 13.7253967 22.8565418 14.7984252 20.1691873 15.6834637 21.4584961"></polygon>
                                <path d="M36.3332208,36.2327973 C36.3332208,37.5913612 35.2337058,38.6929694 33.8783695,38.6929694 C32.5223871,38.6929694 31.4228721,37.5913612 31.4228721,36.2327973 C31.4228721,34.8742334 32.5223871,33.7726252 33.8783695,33.7726252 C35.2337058,33.7726252 36.3332208,34.8742334 36.3332208,36.2327973" id="Fill-33" fill="#363B5B"></path>
                                <polygon id="Fill-34" fill="#363B5B" points="23.3346538 37.7339489 33.6611797 37.7339489 33.6611797 36.8659955 23.3346538 36.8659955"></polygon>
                                <path d="M23.8154171,38.4213861 L21.4096628,38.4213861 C20.797888,38.4213861 20.3017496,37.9243032 20.3017496,37.3113637 L20.3017496,37.2887102 C20.3017496,36.6757707 20.797888,36.1786878 21.4096628,36.1786878 L23.8154171,36.1786878 C24.4271919,36.1786878 25.7902804,36.6757707 25.7902804,37.2887102 L25.7902804,37.3113637 C25.7902804,37.9243032 24.4271919,38.4213861 23.8154171,38.4213861" id="Fill-35" fill="#5C5F6D"></path>
                                <path d="M33.8781757,37.3904568 C33.2405603,37.3904568 32.7224575,36.8713676 32.7224575,36.2325384 C32.7224575,35.5943564 33.2405603,35.0752672 33.8781757,35.0752672 C34.515145,35.0752672 35.0338938,35.5943564 35.0338938,36.2325384 C35.0338938,36.8713676 34.515145,37.3904568 33.8781757,37.3904568" id="Fill-36" fill="#616786"></path>
                                <path d="M31.4228075,22.3417244 C30.9447575,22.3417244 30.5558574,22.7307177 30.5558574,23.2096778 L30.5558574,28.9973282 C30.5558574,29.4762883 30.9447575,29.8659288 31.4228075,29.8659288 L36.4055097,29.8659288 C36.8835597,29.8659288 37.2718138,29.4762883 37.2718138,28.9973282 L37.2718138,23.2096778 C37.2718138,22.7307177 36.8835597,22.3417244 36.4055097,22.3417244 L31.4228075,22.3417244 Z M36.4055097,30.3002291 L31.4228075,30.3002291 C30.7057325,30.3002291 30.1230283,29.7157684 30.1230283,28.9973282 L30.1230283,23.2096778 C30.1230283,22.4912377 30.7057325,21.9074241 31.4228075,21.9074241 L36.4055097,21.9074241 C37.1219387,21.9074241 37.7052889,22.4912377 37.7052889,23.2096778 L37.7052889,28.9973282 C37.7052889,29.7157684 37.1219387,30.3002291 36.4055097,30.3002291 L36.4055097,30.3002291 Z" id="Fill-37" fill="#616786"></path>
                                <path d="M21.0329723,25.4616317 C20.396003,25.4616317 19.8779002,24.9425425 19.8779002,24.3037133 C19.8779002,23.6655313 20.396003,23.1464421 21.0329723,23.1464421 C21.6699416,23.1464421 22.1886905,23.6655313 22.1886905,24.3037133 C22.1886905,24.9425425 21.6699416,25.4616317 21.0329723,25.4616317" id="Fill-38" fill="#141832"></path>
                                <path d="M21.0329723,24.8103107 C20.7538945,24.8103107 20.5277898,24.5831283 20.5277898,24.3041664 C20.5277898,24.0245572 20.7538945,23.7973748 21.0329723,23.7973748 C21.3120501,23.7973748 21.5388009,24.0245572 21.5388009,24.3041664 C21.5388009,24.5831283 21.3120501,24.8103107 21.0329723,24.8103107" id="Fill-39" fill="#616786"></path>
                                <path d="M11.7525361,78.5229684 L11.7111912,78.6077572 C11.4075649,77.8019392 11.1633718,77.0368975 11.0025144,76.8543749 L10.4676152,81.1436568 C10.0812992,81.9332938 11.2131148,82.7022189 12.7616092,82.7022189 L17.3224645,82.7022189 C18.6306419,82.7022189 19.6913961,82.8329621 19.6913961,82.1436479 L19.6913961,82.133292 C19.6913961,81.5307084 19.2999119,81.000616 18.7249599,80.8239186 C16.6079736,80.173439 11.7525361,78.5229684 11.7525361,78.5229684" id="Fill-40" fill="#05101C"></path>
                                <path d="M15.9705521,79.6224407 L9.62605344,79.6224407 C9.62605344,79.6224407 -0.822568997,54.9896518 0.521785108,49.1735227 C1.38808922,45.4259835 1.6264682,50.2790144 7.76424252,45.1722641 L14.0732104,61.7630539 L15.9705521,79.6224407 Z" id="Fill-41" fill="#1D283E"></path>
                                <path d="M2.98748946,78.5229684 L2.94614459,78.6077572 C2.64251824,77.8019392 2.39832514,77.0368975 2.23746778,76.8543749 L1.70256859,81.1436568 C1.31625252,81.9332938 2.44806818,82.7022189 3.99656255,82.7022189 L8.5574179,82.7022189 C9.86559525,82.7022189 10.9263494,82.8329621 10.9263494,82.1436479 L10.9263494,82.133292 C10.9263494,81.5307084 10.5348652,81.000616 9.95991322,80.8239186 C7.84292696,80.173439 2.98748946,78.5229684 2.98748946,78.5229684" id="Fill-42" fill="#05101C"></path>
                                <path d="M7.20046653,79.6224407 L0.855967895,79.6224407 C0.855967895,79.6224407 -0.822375193,54.9896518 0.521978912,49.1735227 C1.38763701,45.4259835 2.31272835,50.3566836 9.73671556,38.1024246 L10.3917732,59.7650135 L7.20046653,79.6224407 Z" id="Fill-43" fill="#1D283E"></path>
                                <path d="M4.80033256,25.1307609 C4.80033256,25.1307609 3.95276284,28.8893033 3.38297892,32.8866784 C3.09679494,34.8944274 4.49864425,46.9020868 4.49864425,46.9020868 L10.0117235,46.9020868 C10.0117235,46.9020868 10.800506,38.6872737 10.6267284,36.3675534 C10.2572086,31.441384 8.33596447,31.0375041 7.57431455,29.6478725 C7.36048408,29.2575848 7.70868536,25.9326955 7.70868536,25.9326955 L4.80033256,25.1307609 Z" id="Fill-44" fill="#EAA563"></path>
                                <path d="M4.01264829,29.0511788 C4.01264829,29.0511788 5.5630807,29.1929251 6.82539109,29.2582967 C8.08899351,29.3230211 9.1697741,31.1806096 9.1697741,31.1806096 C9.1697741,31.1806096 11.6252714,36.3656764 11.4430956,37.7203568 C11.2609198,39.07439 10.0580427,49.2451726 10.0580427,49.2451726 L0.521591304,49.1733286 C0.521591304,49.1733286 0.526113399,39.3624133 4.01264829,29.0511788" id="Fill-45" fill="#8EBCE1"></path>
                                <path d="M11.9480844,20.0808385 C11.9480844,18.5378103 10.1043618,16.7164674 8.38015179,16.7164674 L7.67664309,16.7164674 C5.95243304,16.7164674 3.4103699,18.5378103 3.4103699,20.0808385 L4.01891462,24.3345221 C4.26892185,26.0859627 8.92732523,27.1700954 10.8098086,27.6988932 L10.8123926,27.7144271 L10.8123926,27.6995405 C12.695522,27.1713899 11.8679787,24.1558829 12.118632,22.4037951 L11.9480844,20.0808385 Z" id="Fill-46" fill="#FCCA9B"></path>
                                <path d="M11.7515671,24.1662388 L11.7515671,21.3060703 L13.0468242,23.4070223 C13.1760269,23.7778928 12.9001791,24.1662388 12.5080489,24.1662388 L11.7515671,24.1662388 Z" id="Fill-47" fill="#FCCA9B"></path>
                                <path d="M11.3131177,17.8407292 C11.3131177,17.8407292 12.4901543,18.6704952 11.4675149,19.4025275 C10.4448756,20.1345597 9.26590091,19.5488045 9.23489226,20.4763043 C9.15349456,22.9403598 7.62179654,23.9422926 7.62179654,24.2096041 C7.62179654,24.3694732 6.80911155,24.7960066 6.55006014,25.8743141 C6.4098752,26.4581277 5.68181798,26.6594203 5.26836934,26.2244728 C4.15722611,25.0561985 2.48082106,25.0393701 2.48082106,21.8646413 L2.48082106,21.579207 C2.48082106,18.7734069 4.75091252,16.4989936 7.55138107,16.4989936 L7.95126343,16.4989936 C9.86023334,16.4989936 11.3131177,17.8407292 11.3131177,17.8407292" id="Fill-48" fill="#082238"></path>
                                <path d="M8.43667798,22.9109103 C8.37207663,22.2843787 7.8494517,21.7937682 7.20731428,21.7937682 C6.52124793,21.7937682 6.35263841,22.3749927 6.35263841,23.0623652 C6.35263841,23.4118766 7.04839495,24.7218973 7.40241035,24.7218973 L8.47543879,24.6591147 L8.6912073,23.282428 L8.43667798,22.9109103 Z" id="Fill-49" fill="#FCCA9B"></path>
                                <path d="M11.1030341,17.4475935 L3.10344888,24.8015729 L2.38185179,24.0132305 C0.383086009,21.8307258 0.530377088,18.4074555 2.70808862,16.4055317 L2.78819429,16.3317459 C4.96590582,14.3298221 8.38267125,14.4773936 10.380791,16.6592511 L11.1030341,17.4475935 Z" id="Fill-50" fill="#F26522"></path>
                                <path d="M0.33721905,27.7778569 C0.33721905,27.7778569 0.474173913,28.1390187 1.44125613,27.7144271 C2.31789646,27.3299645 2.74038929,26.4283545 2.93483936,26.201172 C3.12993543,25.9746368 4.29921988,23.7028126 4.29921988,23.7028126 L2.48069186,24.1662388 L0.33721905,27.7778569 Z" id="Fill-51" fill="#F26522"></path>
                                <path d="M20.6932338,36.3687184 L13.7447125,37.1848923 C13.7447125,37.1848923 9.93452489,32.7571003 9.56500517,32.0671389 C9.03721213,31.0800927 8.0597937,30.41861 6.95058851,30.2820416 L6.93443817,30.2800999 C6.93443817,30.2800999 6.6153075,30.3118148 6.45057406,30.3279959 C4.86267286,30.4839815 4.13590766,33.4444728 4.88334529,34.8567579 C7.28199344,39.3881088 11.7517609,41.7214212 11.7517609,41.7214212 C12.2084924,42.2178569 21.0078424,39.8366485 21.0078424,39.8366485 L20.6932338,36.3687184 Z" id="Fill-52" fill="#AED8F4"></path>
                                <path d="M23.4653424,39.0373029 L20.6932984,39.8508879 L20.6932984,36.3687184 L22.7728159,35.7583679 C23.5615984,35.5266548 24.3516729,36.1195297 24.3516729,36.9434706 L24.3516729,37.8522003 C24.3516729,38.4004154 23.9905513,38.883259 23.4653424,39.0373029" id="Fill-53" fill="#FCCA9B"></path>
                                <polygon id="Fill-54" fill="#05101C" points="32.7864774 81.237766 34.6637927 81.237766 34.6637927 39.8530238 32.7864774 39.8530238"></polygon>
                                <polygon id="Fill-55" fill="#05101C" points="44.5308092 81.2380249 42.6043969 81.2380249 34.6635989 47.8279684 33.666154 43.6150612 32.805664 40.0099156 33.4510315 39.8532827 33.666154 39.8040922 34.6345283 39.5691428"></polygon>
                                <polygon id="Fill-56" fill="#05101C" points="34.5169538 40.0097861 33.666154 43.6149318 32.7862836 47.2893325 24.718867 81.2378955 22.7924547 81.2378955 32.6880896 39.5690134 33.666154 39.8039627 33.8715863 39.8531532"></polygon>
                                <path d="M67.1895391,8.58689628 C67.5086697,8.54353097 67.8704373,8.6826883 68.2179926,8.92152111 C68.2451251,8.81019525 68.2632135,8.69563317 68.2632135,8.57848212 C68.2632135,7.53900923 67.1708047,6.69888732 65.8219285,6.69824007 L65.8219285,8.25809664 C66.4330572,8.2231455 66.9582662,8.32605719 67.1895391,8.58689628" id="Fill-57" fill="#6D0C05"></path>
                                <path d="M65.8221223,6.69824007 L65.8221223,6.69824007 C64.4745381,6.69824007 63.3814832,7.53900923 63.3814832,8.57848212 C63.3814832,8.75259059 63.4215361,8.91763765 63.4796773,9.07750677 C64.1444252,8.57136244 65.0533662,8.30275643 65.8221223,8.25809664 L65.8221223,6.69824007 Z" id="Fill-58" fill="#6D0C05"></path>
                                <polygon id="Fill-59" fill="#E09C5F" points="65.837885 25.6288147 67.1958054 20.8437443 65.8223807 19.4657632"></polygon>
                                <path d="M65.8221223,19.4655043 L64.8653763,18.5049951 C64.5391395,18.3839606 64.2374511,18.2020852 63.9667715,17.9690775 L63.9667715,19.4590318 L65.8376266,25.6285558 L65.8221223,19.4655043 Z" id="Fill-60" fill="#F7B56D"></path>
                                <path d="M64.8650533,18.5050598 L65.8217993,19.465569 L65.8217993,18.6856407 C65.4884563,18.6849935 65.1680336,18.6176801 64.8650533,18.5050598" id="Fill-61" fill="#EAA663"></path>
                                <path d="M65.8221223,18.6855113 L65.8221223,19.4654395 L67.195547,20.844068 L67.5657127,19.447964 L67.5657127,18.0563907 C67.0637602,18.4505619 66.4674898,18.6855113 65.8234143,18.6855113 L65.8221223,18.6855113 Z" id="Fill-62" fill="#DD9452"></path>
                                <path d="M65.8221223,18.6855113 L65.8221223,11.5736009 L65.8221223,11.5742481 C64.8582701,12.3121056 62.7877968,13.081678 62.3698261,13.2331329 L62.4363655,13.4590209 L62.2903664,13.2616117 C62.1631018,13.0829725 62.031315,12.978119 61.9421652,12.978119 C61.9376431,12.978119 61.9318289,12.9800608 61.9214927,12.9891222 C61.8265287,13.0875032 61.8116704,13.565816 61.8717497,14.4130576 C61.9253688,15.1554458 62.3898525,15.8531742 62.6456739,15.8531742 C62.6695764,15.8505852 62.6870187,15.8434655 62.7051071,15.8305207 L62.7593722,15.7903916 L62.7735845,15.8551159 C62.9480082,16.7347197 63.3834213,17.4667519 63.9667715,17.9690128 C64.2374511,18.2020204 64.5391395,18.3838958 64.8653763,18.5049303 C65.1683566,18.6181979 65.4881333,18.6855113 65.8221223,18.6855113" id="Fill-63" fill="#FFC988"></path>
                                <path d="M66.4981108,10.7640289 C66.315289,11.0798836 66.0924143,11.3679069 65.8223807,11.5737303 L65.8223807,18.6856407 L65.8230267,18.6856407 C66.4671022,18.6856407 67.0640186,18.4500441 67.5659711,18.0565201 C68.2048785,17.5549065 68.6855125,16.7898648 68.8696264,15.8552454 L68.8844847,15.790521 L68.9406879,15.8306501 C68.9574842,15.843595 68.9755726,15.8507147 69.0046432,15.8533036 C69.2565885,15.8533036 69.7197802,15.1555753 69.7733993,14.4131871 C69.8347706,13.5659455 69.8179742,13.0876326 69.7230102,12.9892516 C69.712674,12.9801902 69.7068599,12.9776013 69.7010458,12.9776013 C69.6138339,12.9776013 69.4839852,13.0831019 69.3541365,13.2597994 L69.2094295,13.4591503 L69.2779069,13.2235537 C69.2779069,13.2235537 68.2236129,12.3187075 67.0646646,11.5361902 C66.7623303,11.3316613 66.5917828,11.0572301 66.4981108,10.7640289" id="Fill-64" fill="#F7B56D"></path>
                                <path d="M63.8871826,68.2125753 C63.3277349,68.2125753 62.9058881,67.7368515 62.6190581,67.2514189 L62.4730591,67.7232593 C62.3147857,68.2287564 62.3490245,68.8255148 62.7133761,69.2054467 C63.5648219,70.0902284 65.2076342,69.6319801 65.2076342,69.6319801 C65.4324469,69.2649931 65.5093225,68.8281038 65.4214647,68.4080429 L65.2186165,67.4300581 C65.00414,67.9025458 64.6307442,68.2125753 63.8871826,68.2125753" id="Fill-65" fill="#355C4B"></path>
                                <path d="M61.8557932,58.6606869 C62.5593019,61.7920504 63.0018211,66.019197 63.0018211,66.019197 L62.6193811,67.2509011 C62.9055651,67.7363337 63.3274119,68.2127048 63.8875056,68.2127048 C64.6304212,68.2127048 65.003817,67.902028 65.2189395,67.4301875 L64.9036849,65.9240522 L65.4237257,53.9636416 L61.9565713,53.9636416 C61.6936438,55.4963139 61.5424766,57.2652301 61.8557932,58.6606869" id="Fill-66" fill="#FFC988"></path>
                                <path d="M67.7945307,68.2125753 C67.0516152,68.2125753 66.6775734,67.9025458 66.4630969,67.4300581 L66.2602486,68.4080429 C66.1723908,68.8281038 66.2492664,69.2649931 66.4753711,69.6319801 C66.4753711,69.6319801 68.1168914,70.0902284 68.9683372,69.2054467 C69.3339809,68.8255148 69.3669276,68.2287564 69.2093003,67.7232593 L69.0633012,67.2514189 C68.7764712,67.7368515 68.3559164,68.2125753 67.7945307,68.2125753" id="Fill-67" fill="#02331E"></path>
                                <path d="M66.7781577,65.923858 L66.4629031,67.4299934 C66.6780256,67.902481 67.0514214,68.2125106 67.7943369,68.2125106 C68.3557226,68.2125106 68.7762774,67.7367867 69.0637534,67.2513542 L68.6800214,66.0190028 C68.6800214,66.0190028 69.1231867,61.7925035 69.8260494,58.6604927 C70.1400119,57.2650359 69.9888448,55.496767 69.7259173,53.9634474 L66.2587628,53.9634474 L66.7781577,65.923858 Z" id="Fill-68" fill="#F9C478"></path>
                                <path d="M84.9091727,24.5657174 C84.6985723,23.9948488 84.0570809,25.6666784 81.4446023,25.708102 C80.9013049,25.7158689 81.1719846,25.2822159 81.718512,25.117816 C82.2624554,24.9534162 83.0131231,24.8861029 82.7476115,24.5016403 C82.7476115,24.5016403 80.9794726,24.2530989 80.044045,25.3631213 C79.6331804,25.8504956 79.5104378,26.0466103 79.4561727,26.1294575 L79.5466146,27.4621316 C79.5466146,27.4621316 82.7799122,27.3300939 83.8445424,25.9482293 C84.9091727,24.5657174 84.9996146,24.8155534 84.9091727,24.5657174" id="Fill-69" fill="#F9C478"></path>
                                <path d="M79.2792296,26.0614969 L74.5368445,26.1003315 C74.5368445,26.1003315 71.3623341,19.447964 70.1969257,19.447964 L67.5657127,19.447964 L67.195547,20.844068 L65.8376266,25.6291383 L65.8376266,53.9635121 L66.2588274,53.9635121 L69.7259819,53.9635121 L71.3435997,53.9635121 C71.3435997,53.9635121 70.5502951,47.6503001 71.2376535,45.1195785 L71.2660781,45.0121361 C72.2880714,36.3921486 70.7951342,35.7740312 69.0735082,32.199306 L70.7660636,25.3417623 L73.2435254,28.9197237 C74.2525985,30.0659918 80.5137614,27.5766937 80.5137614,27.5766937 L79.4207066,26.2252495 L79.2792296,26.0614969 Z" id="Fill-70" fill="#E5541A"></path>
                                <path d="M78.6111224,14.4114395 C79.1770303,14.6327968 77.4967491,15.2457363 77.4088913,17.861894 C77.3901569,18.4055785 77.8281541,18.1421504 78.0025777,17.5978187 C78.1763553,17.0554288 78.257107,16.3046264 78.635671,16.5784104 C78.635671,16.5784104 78.8520855,18.353799 77.727376,19.2709429 C77.2338216,19.6735283 77.0354955,19.7926211 76.9521598,19.845695 L75.62331,19.7304857 C75.62331,19.7304857 75.8132379,16.4942688 77.2125032,15.4535014 C78.6111224,14.4114395 78.3636993,14.316942 78.6111224,14.4114395" id="Fill-71" fill="#F9C478"></path>
                                <path d="M61.4498383,19.4477698 L63.9667069,19.4477698 L65.837562,25.6289442 L65.837562,53.963318 L65.3879366,53.963318 L61.9207821,53.963318 L60.3031643,53.963318 C60.3031643,53.963318 61.0964689,47.650106 60.4091105,45.1193843 L60.3806859,45.0125892 C59.3586925,36.3926017 60.8509837,35.773837 62.5732558,32.199759 L60.8807004,25.3415681 C60.8807004,25.3415681 58.9374917,20.8438738 61.4498383,19.4477698" id="Fill-72" fill="#F26522"></path>
                                <path d="M67.2324344,8.63019686 C67.2324344,8.63019686 67.0444444,9.8211247 66.497917,10.7641583 C66.591589,11.0573596 66.7621365,11.3317908 67.0644708,11.5363197 C68.2240651,12.3188369 69.2783591,13.2236832 69.2783591,13.2236832 C69.2783591,13.2236832 69.8384528,11.6948943 69.6698433,10.8767787 C69.5432247,10.2567195 68.9088394,9.39394406 68.218251,8.92145639 C67.8700497,8.68327082 67.5089281,8.54346625 67.1897975,8.58683156 C67.2027177,8.60171815 67.2208061,8.61401578 67.2324344,8.63019686" id="Fill-73" fill="#891809"></path>
                                <path d="M65.8217993,11.5743776 L65.8217993,11.5737303 L65.8217993,8.25790247 C65.0530432,8.30256226 64.1447482,8.57116827 63.4793543,9.07795984 C63.1951084,9.29478637 62.9554373,9.55238924 62.793934,9.85271017 C61.8333119,11.6300405 62.2900434,13.2617411 62.2900434,13.2617411 C62.2900434,13.2617411 62.3216981,13.250738 62.3701491,13.2332624 C62.7874738,13.0818074 64.8579471,12.3122351 65.8217993,11.5743776" id="Fill-74" fill="#A0210C"></path>
                                <path d="M66.4981108,10.7640289 C67.0446382,9.82099525 67.2326282,8.63006741 67.2326282,8.63006741 C67.2209999,8.61388633 67.2029115,8.6015887 67.1893453,8.58670211 C66.9580724,8.32586302 66.4328634,8.22295132 65.8223807,8.25790247 L65.8223807,11.5737303 C66.0924143,11.3679069 66.315289,11.0798836 66.4981108,10.7640289" id="Fill-75" fill="#A0210C"></path>
                                <path d="M62.4545185,19.6427842 L68.4669662,22.7683225 L75.7346181,18.6855113 L76.5776657,20.0816152 C76.5776657,20.0816152 70.2822641,25.7236359 68.6368677,25.6666784 C66.9921173,25.609721 60.5636369,23.6848192 60.5636369,23.6848192 C60.5636369,23.6848192 59.081682,18.6770971 62.4545185,19.6427842" id="Fill-76" fill="#F6921E"></path>
                                <polygon id="Fill-77" fill="#363B5B" points="83.4057701 4.10544778 78.1614324 15.4936952 79.2312308 15.9881892 84.4755684 4.59994173"></polygon>
                                <polygon id="Fill-78" fill="#FFFFFF" points="79.6558555 12.2484816 79.0279304 13.6115762 80.5047172 13.2219356 81.1326424 11.8588411"></polygon>
                                <polygon id="Fill-79" fill="#FFFFFF" points="81.3800655 8.50437275 80.7521404 9.86746732 82.2289273 9.4778268 82.8568524 8.11473223"></polygon>
                                <polygon id="Fill-80" fill="#FFFFFF" points="82.8632479 5.28427216 82.2346768 6.64736674 83.7121097 6.25772622 84.3400348 4.89463165"></polygon>
                                <polygon id="Fill-81" fill="#363B5B" points="92.9287844 22.5607516 80.8069869 25.6921151 78.7494339 17.6960703 90.8712313 14.5647068"></polygon>
                                <polygon id="Fill-82" fill="#363B5B" points="90.8715544 14.5647068 78.7491109 17.6960703 78.4551748 16.5530385 90.5769722 13.4216749"></polygon>
                                <path d="M80.1088401,17.344876 L78.7496277,17.6956819 L78.1611094,15.4096183 L78.8045389,15.2432767 C78.9679803,15.2012059 79.1417579,15.2549271 79.2528723,15.3817868 L80.3336528,16.6147855 C80.5532974,16.8659159 80.4318469,17.2613816 80.1088401,17.344876" id="Fill-83" fill="#616786"></path>
                                <path d="M78.9997642,15.8162166 C79.0184986,15.8900023 78.9745696,15.9650826 78.9009241,15.9838526 C78.8272786,16.0032699 78.752341,15.9586101 78.7336066,15.8848244 C78.7148722,15.8110386 78.7588011,15.7359584 78.8318007,15.7171883 C78.9054462,15.697771 78.9810298,15.7424308 78.9997642,15.8162166" id="Fill-84" fill="#FFFFFF"></path>
                                <path d="M79.3252904,17.0803476 C79.3440248,17.1541334 79.2994498,17.2292136 79.2264503,17.2479837 C79.1521587,17.267401 79.0772212,17.2227412 79.0584868,17.1489554 C79.0397524,17.0751697 79.0836813,17.0000895 79.1573269,16.9813194 C79.2309724,16.9619021 79.30591,17.0065619 79.3252904,17.0803476" id="Fill-85" fill="#FFFFFF"></path>
                                <path d="M80.1908839,16.8565956 C80.2096183,16.9303814 80.1656893,17.0054616 80.0920438,17.0242316 C80.0183983,17.0436489 79.9434607,16.9989892 79.9247263,16.9252034 C79.9059919,16.8514177 79.9499208,16.7763374 80.0229204,16.7575674 C80.0965659,16.7381501 80.1721495,16.7828099 80.1908839,16.8565956" id="Fill-86" fill="#FFFFFF"></path>
                                <polygon id="Fill-87" fill="#FFFFFF" points="82.2039912 16.8038453 80.7530448 17.1785992 81.4003503 15.7922039 82.8512967 15.4174499"></polygon>
                                <polygon id="Fill-88" fill="#FFFFFF" points="86.1891839 15.7741458 84.7382375 16.1488997 85.3855431 14.7631516 86.8364894 14.3877504"></polygon>
                                <polygon id="Fill-89" fill="#FFFFFF" points="89.6167377 14.8889757 88.1657914 15.2637296 88.8124509 13.8779815 90.2640433 13.5025804"></polygon>
                                <polygon id="Fill-90" fill="#9FA8D6" points="90.9743351 14.9650915 79.8964955 17.8272018 78.7272111 17.7022838 90.871619 14.5644479"></polygon>
                                <path d="M85.1879921,17.6448086 C83.9146995,17.9736082 83.1465895,19.2790982 83.4747643,20.5548149 C83.8029392,21.8298844 85.1059484,22.6007512 86.379241,22.2713043 C87.6518876,21.9431519 88.4206437,20.637662 88.0924689,19.3612981 C87.764294,18.0862286 86.4612848,17.316009 85.1879921,17.6448086 M86.4470725,22.5386159 C85.0277808,22.9049556 83.5742504,22.0460636 83.2086068,20.6234227 C82.8423171,19.2007817 83.699577,17.7451313 85.1201607,17.3781443 C86.5394524,17.0111573 87.9929828,17.8700493 88.3586264,19.2926903 C88.7255621,20.7159785 87.8670101,22.1716289 86.4470725,22.5386159" id="Fill-91" fill="#9FA8D6"></path>
                                <polygon id="Fill-92" fill="#9FA8D6" points="86.9581983 19.737929 85.5253404 21.1638062 85.0156357 19.1838887"></polygon>
                                <polygon id="Fill-108" fill="#272B4C" points="123.928001 35.1715123 128.86419 35.1715123 128.86419 34.0524285 123.928001 34.0524285"></polygon>
                                <path d="M173.199128,0.61894182 L118.625845,0.61894182 C116.614159,0.61894182 114.983621,2.25323138 114.983621,4.26874729 L114.983621,48.8198042 L176.841998,48.8198042 L176.841998,4.26874729 C176.841998,2.25323138 175.210814,0.61894182 173.199128,0.61894182 L173.199128,0.61894182 Z M173.199128,1.69077687 C174.617774,1.69077687 175.7722,2.84740081 175.7722,4.26874729 L175.7722,47.7479692 L116.052773,47.7479692 L116.052773,4.26874729 C116.052773,2.84740081 117.207199,1.69077687 118.625845,1.69077687 L173.199128,1.69077687 Z" id="Fill-109" fill="#363B5B"></path>
                                <polygon id="Fill-110" fill="#363B5B" points="115.696497 9.74261407 175.772523 9.74261407 175.772523 8.67142627 115.696497 8.67142627"></polygon>
                                <polygon id="Fill-111" fill="#363B5B" points="115.696497 22.2311753 175.772523 22.2311753 175.772523 21.1599874 115.696497 21.1599874"></polygon>
                                <polygon id="Fill-112" fill="#363B5B" points="115.696497 34.7203837 175.772523 34.7203837 175.772523 33.6491959 115.696497 33.6491959"></polygon>
                                <polygon id="Fill-113" fill="#4CB64A" points="118.192047 48.8199337 173.632926 48.8199337 173.632926 0.619071268 118.192047 0.619071268"></polygon>
                                <path d="M153.720916,55.6820728 C153.559413,55.7137877 153.355919,55.7280271 153.145964,55.6788366 C152.674374,55.5688052 150.602609,55.6788366 149.992126,55.7746286 C149.387458,55.8691261 148.454614,55.5688052 148.252412,55.3558621 C148.194271,55.4445345 148.214297,55.6283516 148.293757,55.7189657 C148.481747,55.9338505 149.39844,56.4341696 149.992126,56.2626501 C150.680131,56.0632991 152.696339,56.1234928 153.145964,56.2626501 C153.352043,56.3267272 153.559413,56.2937178 153.720916,56.2626501 C153.914074,56.22511 154.038755,55.7467971 154.005808,55.5519769 L154.005808,55.2633063 C153.965755,55.3817519 153.851411,55.6561831 153.720916,55.6820728" id="Fill-187" fill="#25B8C1"></path>
                                <path d="M153.678667,53.6407966 L151.926032,53.4537433 C151.926032,53.4537433 150.65597,54.3223439 150.483484,54.3877155 C150.310353,54.453087 148.515727,54.9313999 148.515727,54.9313999 C148.515727,54.9313999 148.105508,55.2155398 148.293498,55.4304246 C148.296082,55.4323663 148.299313,55.4349553 148.301251,55.436897 C148.502807,55.6498401 149.387199,55.8692556 149.991868,55.774758 C150.602351,55.678966 152.674116,55.5689346 153.146352,55.678966 C153.35566,55.7281565 153.559154,55.7139172 153.720658,55.6822022 C153.851799,55.6563125 153.946763,55.5598732 153.987461,55.4407805 C154.006196,55.3851175 154.016532,55.3255711 154.006196,55.2627885 L153.846631,54.3242856 L153.678667,53.6407966 Z" id="Fill-188" fill="#3A8F9B"></path>
                                <path d="M161.38858,55.6820728 C161.227722,55.7137877 161.024874,55.7280271 160.81492,55.6788366 C160.34333,55.5688052 158.270273,55.6788366 157.65979,55.7746286 C157.055767,55.8691261 156.122278,55.5688052 155.920721,55.3558621 C155.861934,55.4445345 155.881961,55.6283516 155.962066,55.7189657 C156.150056,55.9338505 157.066103,56.4341696 157.65979,56.2626501 C158.349086,56.0632991 160.364648,56.1234928 160.81492,56.2626501 C161.020352,56.3267272 161.227722,56.2937178 161.38858,56.2626501 C161.581738,56.22511 161.70771,55.7467971 161.674118,55.5519769 L161.674118,55.2633063 C161.634065,55.3817519 161.520367,55.6561831 161.38858,55.6820728" id="Fill-189" fill="#25B8C1"></path>
                                <path d="M161.34633,53.6407966 L159.594342,53.4537433 C159.594342,53.4537433 158.324279,54.3223439 158.151794,54.3877155 C157.978662,54.453087 156.184037,54.9313999 156.184037,54.9313999 C156.184037,54.9313999 155.773172,55.2155398 155.961808,55.4304246 C155.963746,55.4323663 155.966976,55.4349553 155.96956,55.436897 C156.171116,55.6498401 157.055509,55.8692556 157.659531,55.774758 C158.270014,55.678966 160.343072,55.5689346 160.815307,55.678966 C161.024616,55.7281565 161.227464,55.7139172 161.388321,55.6822022 C161.520754,55.6563125 161.615072,55.5598732 161.655771,55.4407805 C161.674505,55.3851175 161.684196,55.3255711 161.674505,55.2627885 L161.51494,54.3242856 L161.34633,53.6407966 Z" id="Fill-190" fill="#3A8F9B"></path>
                                <path d="M149.438557,25.592828 C149.438557,25.592828 148.768641,24.3281144 148.218884,24.1274689 C147.670418,23.9261762 146.67685,23.3915532 146.672328,23.5598365 C146.667805,23.7281198 147.255678,24.5960732 147.587729,24.6180794 C147.918488,24.6394385 145.490769,23.8491543 145.490769,23.8491543 C145.490769,23.8491543 145.041789,24.460152 145.172284,24.7209911 C145.304071,24.9831247 146.970786,26.6174143 146.970786,26.6174143 L149.015419,26.7539826 L149.438557,25.592828 Z" id="Fill-191" fill="#FFC197"></path>
                                <path d="M130.641761,21.6395301 L130.644345,21.6557112 C130.805202,22.7281935 131.249013,23.7372459 131.930558,24.5793095 L131.932496,24.580604 L134.827928,26.9889967 C135.177422,27.3592199 135.68648,27.5339756 136.188433,27.4556592 C136.191017,27.4556592 136.192955,27.4550119 136.194247,27.4537174 L140.518015,24.8886919 C140.518015,24.8886919 141.494788,24.5851347 142.170518,23.9851401 C142.396623,23.7838474 142.73578,22.5068362 142.702833,22.2052208 C142.702833,22.2052208 142.617559,20.4796699 142.302951,20.6964965 C142.08912,20.8434207 141.691822,22.211046 141.691822,22.211046 C141.539363,22.4175166 140.537396,22.923661 140.537396,22.923661 C140.53029,22.9288389 140.477962,22.5624991 140.477316,22.5534377 C140.477316,22.5534377 141.265453,21.546327 141.004463,21.3456816 L140.313875,21.8997219 C139.938541,22.2382302 139.733755,22.7281935 139.758303,23.2336905 L139.758949,23.2414575 C139.776392,23.601972 139.904302,23.9618394 139.897196,23.9644283 L135.699401,25.5462912 C135.694232,25.5482329 135.689064,25.5469384 135.68648,25.543055 L134.80984,24.484812 C134.809194,24.4841648 134.809194,24.4835175 134.808548,24.482223 C134.245224,23.1204229 133.400238,21.8932495 132.329148,20.8829026 L132.312352,20.8673687 C131.517755,20.4712558 130.858175,20.7767546 130.641761,21.6395301" id="Fill-192" fill="#FFC197"></path>
                                <path d="M149.438557,25.2714069 L152.075584,26.0034392 L153.88959,26.3561868 C154.696461,26.4280308 155.434855,25.901822 155.631889,25.114774 L156.524033,21.5581716 C156.861253,20.2941052 158.390366,19.8022003 159.400732,20.6326135 L159.432386,20.6591505 C160.024135,21.1458775 160.243133,21.9562263 159.97633,22.6753137 L158.151988,27.6234894 C157.877432,28.3710555 155.536925,29.7995216 154.75331,29.6623061 L148.563855,27.2810976 L149.438557,25.2714069 Z" id="Fill-193" fill="#8A9100"></path>
                                <polygon id="Fill-194" fill="#FCB98B" points="158.242946 20.0726186 160.998194 20.0726186 160.998194 15.7315571 158.242946 15.7315571"></polygon>
                                <polygon id="Fill-195" fill="#1574B3" points="158.486558 54.1445461 161.642334 54.1445461 161.473078 43.5109845 161.811589 33.5641481 157.500095 33.5641481"></polygon>
                                <path d="M150.788015,54.1445461 L154.139533,54.1445461 L156.502004,44.7284493 C156.502004,44.7284493 162.894308,36.8346689 161.473078,34.3285425 C160.773446,33.0942494 155.830796,33.8146313 155.830796,33.8146313 L152.379792,44.9446286 L150.788015,54.1445461 Z" id="Fill-196" fill="#319FDD"></path>
                                <path d="M163.077388,15.2245714 C164.191116,13.4291182 163.640066,11.0692688 161.848671,9.95406849 C160.055337,8.83886813 157.701264,9.3903195 156.587537,11.1857727 C156.061682,12.0343087 155.566189,14.4427014 156.053929,16.1546602 C156.218017,16.7281178 156.845942,17.026497 157.331744,17.0323222 C157.331744,17.0323222 158.761372,16.9708341 159.373793,17.0012545 C160.809881,17.0730985 162.267933,16.5300613 163.077388,15.2245714" id="Fill-197" fill="#FFD0B0"></path>
                                <path d="M161.135601,9.63892568 C161.135601,9.63892568 158.309292,8.2175792 156.743355,10.7444174 C156.205226,11.6110763 155.577301,12.2589669 155.577301,12.2589669 C155.577301,12.2589669 157.400351,12.2311355 158.387459,10.8182031 C158.877138,10.1165913 159.64977,10.2745187 159.64977,10.2745187 C159.64977,10.2745187 158.623254,9.37031968 158.04701,11.365771 C157.470766,13.3612224 158.91396,13.6136473 158.91396,13.6136473 C158.91396,13.6136473 159.707265,11.5372905 160.244102,13.2382462 C160.702772,14.6893658 159.47147,14.7579736 159.47147,14.7579736 C159.47147,14.7579736 160.949549,16.1864398 160.998,16.657633 C161.047097,17.1294734 160.760267,17.4304416 161.4922,16.8511588 C162.224134,16.2731704 162.944439,15.8783519 163.549107,14.3650969 C164.155068,12.8505474 163.364993,10.1877881 161.135601,9.63892568" id="Fill-198" fill="#071E2B"></path>
                                <path d="M155.509469,27.0990281 L155.85444,34.3280895 L161.811977,34.9183754 L162.471557,27.9229689 C162.817174,24.2673382 162.102683,22.0065171 160.998,18.5049303 C160.998,18.5049303 159.709849,20.0906766 158.242752,19.1877721 C158.242752,19.1877721 154.555307,21.673834 155.509469,27.0990281" id="Fill-199" fill="#A1B400"></path>
                                <path d="M130.291621,54.7307545 L130.39886,54.4013076 C130.351701,54.5922444 130.30971,54.8148961 130.294206,55.0550234 C130.287099,54.9527589 130.285161,54.846611 130.291621,54.7307545" id="Fill-200" fill="#F9AF7D"></path>
                                <path d="M130.012737,34.4968258 C130.025658,34.3770858 132.674959,34.4968258 132.674959,34.4968258 C134.306789,34.7544287 134.204073,39.7103713 133.932101,42.2287953 C133.86104,42.8922198 133.19823,44.9653404 132.90171,45.562746 L132.890082,45.5860468 C132.275723,46.8235762 131.845478,48.9659518 131.934628,50.3458747 L132.083857,52.6558863 C132.716304,53.3497312 133.912075,54.718651 134.81391,55.1995528 C134.936652,55.2649244 135.054227,55.3192929 135.164049,55.359422 C135.00513,55.4493888 134.744786,55.5024628 134.299683,55.3976093 C134.237666,55.38337 134.171126,55.3704251 134.106525,55.3561857 C133.119416,55.1445372 132.348722,55.0176775 131.621957,54.6824054 C130.849325,54.3244798 130.582521,53.8351638 130.582521,53.8351638 L130.800874,53.1581472 L130.162613,50.4837375 C129.809889,49.0002557 129.811181,47.4546385 130.180055,45.9756873 C130.183931,45.9608007 130.187807,45.9465614 130.191683,45.9316748 C130.453965,44.8896129 130.561203,43.8145416 130.497248,42.7414121 L130.012737,34.4968258 Z" id="Fill-201" fill="#F9AF7D"></path>
                                <path d="M130.582457,53.8341929 L130.582457,53.8341929 L130.398989,54.4011781 C130.482971,54.0652588 130.582457,53.8341929 130.582457,53.8341929" id="Fill-202" fill="#F9AF7D"></path>
                                <path d="M130.294141,55.055347 C130.309645,54.8152197 130.351636,54.592568 130.398795,54.4016312 L130.655908,53.6068163 C130.655908,53.6068163 130.859403,54.0437056 131.632681,54.4016312 C132.358154,54.7369033 133.119158,55.1446666 134.106267,55.3563152 C134.170868,55.3699073 134.237407,55.3828522 134.299425,55.3977388 C134.745174,55.5025922 135.004871,55.4495182 135.163791,55.3595514 C135.170897,55.3621404 135.179295,55.3660238 135.186401,55.3686128 L136.228421,55.6799369 C136.488764,55.7711982 136.461632,56.11359 136.203226,56.211971 C135.414444,56.5135864 134.772307,56.4203833 133.988046,56.3692511 C133.156627,56.3148827 132.887239,56.0087365 132.07843,55.7155353 L131.97959,56.2462749 L130.878783,56.2462749 C130.878783,56.2462749 130.602935,55.7582533 130.491175,55.4553434 C130.46275,55.379616 130.288973,55.1336635 130.294141,55.055347" id="Fill-203" fill="#F26522"></path>
                                <path d="M135.394741,54.8815622 L135.490997,54.5482318 C135.449006,54.7404631 135.414767,54.9644093 135.407661,55.2051839 C135.397325,55.1029194 135.39151,54.9967715 135.394741,54.8815622" id="Fill-204" fill="#F9AF7D"></path>
                                <path d="M130.641761,34.6668567 C130.650805,34.5464694 133.301398,34.5807733 133.301398,34.5807733 C134.941627,34.7853022 136.668421,39.7412448 136.478493,42.2674358 C136.42875,42.932802 136.388697,45.0266343 136.111557,45.6337486 L136.100575,45.6564022 C135.526915,46.9139961 136.279521,49.0686693 136.412599,50.4447087 L137.192984,52.7495424 C137.846749,53.4220283 139.086449,54.7514662 140.003142,55.2038894 C140.128469,55.2647303 140.247336,55.314568 140.35845,55.3521081 C140.202115,55.4466056 139.943709,55.508741 139.496022,55.4181269 C139.433359,55.4058293 139.366173,55.3941789 139.300926,55.3825286 C138.308003,55.2038894 137.533433,55.1016249 136.796977,54.7896536 C136.012071,54.4576177 135.729763,53.9760687 135.729763,53.9760687 L135.927443,53.2925797 L134.646399,50.639529 C134.244578,49.1696393 133.083046,47.6246693 133.404761,46.134715 C133.408637,46.1198284 133.411867,46.1042946 133.415097,46.089408 C133.64314,45.0395792 133.158629,43.9612717 133.061727,42.8907312 L130.641761,34.6668567 Z" id="Fill-205" fill="#F9AF7D"></path>
                                <path d="M135.729699,53.9760687 L135.729699,53.9760687 L135.564965,54.5482318 C135.637319,54.2097235 135.729699,53.9760687 135.729699,53.9760687" id="Fill-206" fill="#F9AF7D"></path>
                                <path d="M135.481177,55.2048602 C135.490221,54.9647329 135.523814,54.7407867 135.565159,54.5485554 L135.796432,53.7459736 C135.796432,53.7459736 136.014138,54.1757433 136.797753,54.5084264 C137.534208,54.8203977 138.308132,55.2035658 139.301055,55.3822049 C139.366302,55.3945026 139.433488,55.4055057 139.496151,55.4178033 C139.943838,55.5084174 140.202244,55.4469293 140.358579,55.3517845 C140.365685,55.3543735 140.374083,55.3576097 140.38119,55.3601987 L141.432254,55.6372188 C141.695181,55.720066 141.679677,56.063105 141.425147,56.1699001 C140.646055,56.4974053 140.000042,56.4242668 139.215135,56.3990243 C138.382424,56.3718401 138.103992,56.0741081 137.285493,55.8074438 L137.204741,56.3414196 L136.10458,56.3763708 C136.10458,56.3763708 135.812582,55.8980579 135.690486,55.5990315 C135.660123,55.5239512 135.478593,55.2838239 135.481177,55.2048602" id="Fill-207" fill="#F26522"></path>
                                <path d="M132.231535,20.4828414 C131.533195,19.9941727 131.057729,19.646603 130.551254,19.5818786 C130.33161,19.5533999 130.080956,19.5100346 129.867126,19.4692583 C129.907179,19.2712018 129.953046,19.0757343 130.007311,18.880914 L131.429187,17.4006684 L132.618498,18.394187 L132.265128,19.6796124 L132.991893,20.6789562 C132.800673,20.7203797 132.544206,20.7009624 132.231535,20.4828414" id="Fill-208" fill="#F9AF7D"></path>
                                <path d="M129.834825,22.7566722 C129.632623,21.6667143 129.644897,20.5508667 129.867126,19.4686758 C130.080956,19.5094521 130.390397,19.440197 130.611334,19.4686758 C131.117162,19.5334001 132.231535,19.6337228 132.991893,20.6790209 L134.278752,22.4498788 C134.731608,23.0725269 134.908615,23.854397 134.767784,24.6116717 L133.99063,28.7941585 L137.369281,39.9895274 L128.595125,40.4581316 C128.595125,40.4581316 129.064131,34.4297067 129.100954,34.0801952 C129.36905,31.5766578 130.582909,28.9410827 130.582909,28.9410827 C130.794801,27.9048461 130.780589,26.8356 130.54221,25.8051885 L129.834825,22.7566722 Z" id="Fill-209" fill="#2B59A1"></path>
                                <path d="M129.198308,16.0159559 C128.439888,14.5538331 129.47028,12.7596744 131.022004,12.2140482 C132.573729,11.6690693 134.272098,12.4871849 134.816042,14.0412163 C135.073801,14.7764848 134.954289,16.6483127 134.383859,17.912379 C133.874154,19.0431132 132.861205,18.4554162 132.490393,18.377747 C132.490393,18.377747 130.304283,18.1525063 129.198308,16.0159559" id="Fill-210" fill="#FFD0B0"></path>
                                <path d="M131.690241,11.6375485 C131.690241,11.6375485 134.498461,11.3547032 134.828574,13.649181 C135.048865,15.1812061 132.694146,15.4653459 132.694146,15.4653459 C132.694146,15.4653459 132.43897,13.7507982 131.74386,14.9546709 C131.150173,15.9805517 132.075911,16.2413908 132.075911,16.2413908 C132.075911,16.2413908 131.830426,16.9695396 131.676674,17.1695378 C131.444756,17.4730949 131.277438,17.9857117 130.657265,17.7190474 C129.895615,17.3915423 129.137841,16.3889623 128.933055,15.1346046 C128.727623,13.8808941 129.314203,12.0556678 131.690241,11.6375485" id="Fill-211" fill="#071E2B"></path>
                                <path d="M129.864477,21.5437381 L128.662246,21.7715677 C128.662246,21.7715677 127.973596,14.7852226 129.142234,13.4590209 C130.309581,12.1321719 131.135832,16.2557596 131.135832,16.2557596 L132.075782,16.2415202 L132.132631,19.0764463 C132.003428,20.3107394 131.081567,21.3146139 129.864477,21.5437381" id="Fill-212" fill="#071E2B"></path>
                                <path d="M131.944512,21.2577212 C131.944512,21.2577212 131.014898,20.7334541 130.641502,22.0441219 C130.269399,23.3547898 130.500025,25.3567136 130.500025,25.3567136 L130.296531,28.9579758 L132.531738,34.1676378 L132.531738,35.6744204 C132.531738,35.6744204 132.853453,37.1015921 133.120902,37.3138879 C133.78242,37.8368606 134.285665,37.9701927 134.321195,37.6575742 C134.368354,37.2439857 133.903871,36.5113061 133.903871,36.5113061 L134.025967,35.0524195 L134.373522,35.5605056 C134.373522,35.5605056 134.469132,36.234286 134.651308,36.3307252 C134.726246,36.3695598 134.907776,35.838173 134.825732,35.495134 C134.703635,34.9864007 134.698467,34.7967584 134.477531,34.5773429 L133.746889,33.7754083 L132.531738,29.7754442 L132.132502,28.9249664 L132.730064,24.8622196 C132.730064,24.8622196 134.036303,22.4376459 131.944512,21.2577212" id="Fill-213" fill="#F9AF7D"></path>
                                <path d="M161.159568,34.9278899 C161.159568,34.9278899 160.042611,35.821733 159.947647,36.3997214 C159.852037,36.9777097 159.511588,38.0547227 159.677613,38.028833 C159.842992,38.0016488 160.585908,37.2612023 160.545855,36.9311082 C160.505802,36.6003668 160.179566,39.1375609 160.179566,39.1375609 C160.179566,39.1375609 160.86111,39.467655 161.093029,39.2896631 C161.326239,39.1123184 162.620851,37.1679993 162.620851,37.1679993 L162.376657,35.1304771 L161.159568,34.9278899 Z" id="Fill-214" fill="#FFC197"></path>
                                <path d="M162.338672,20.7037456 C160.695859,17.9024762 160.755939,20.4823883 160.116385,22.1600432 C159.47554,23.8376981 161.918117,28.6272991 161.918117,28.6272991 L160.90323,35.009119 L162.686873,35.4725452 C162.686873,35.4725452 166.037099,27.0066017 162.338672,20.7037456" id="Fill-215" fill="#B4CE46"></path>
                            </g>
                        </g>
                    </g>
                </g>
            </g>
        </g>
    </g>
</svg>