<?xml version="1.0" encoding="UTF-8"?>
<svg width="238px" height="88px" viewBox="0 0 238 88" version="1.1" xmlns="http://www.w3.org/2000/svg" xmlns:xlink="http://www.w3.org/1999/xlink">
    <!-- Generator: Sketch 53.2 (72643) - https://sketchapp.com -->
    <title>Illustration</title>
    <desc>Created with Sketch.</desc>
    <g id="Web" stroke="none" stroke-width="1" fill="none" fill-rule="evenodd">
        <g id="Choose-Membership-V7-Anually-Select" transform="translate(-881.000000, -650.000000)">
            <g id="Memberships" transform="translate(90.000000, 336.000000)">
                <g id="Basic" transform="translate(720.000000, 89.000000)">
                    <g id="Illustration" transform="translate(71.869565, 225.000000)">
                        <path d="M236.26087,67.326087 C236.26087,78.5038415 183.371881,87.5652174 118.130757,87.5652174 C52.8889884,87.5652174 0,78.5038415 0,67.326087 C0,56.1483324 52.8889884,47.0869565 118.130757,47.0869565 C183.371881,47.0869565 236.26087,56.1483324 236.26087,67.326087" id="Fill-1" fill="#EDF2FA"></path>
                        <path d="M173.199128,0.61894182 L118.625845,0.61894182 C116.614159,0.61894182 114.983621,2.25323138 114.983621,4.26874729 L114.983621,48.8198042 L176.841998,48.8198042 L176.841998,4.26874729 C176.841998,2.25323138 175.210814,0.61894182 173.199128,0.61894182 L173.199128,0.61894182 Z M173.199128,1.69077687 C174.617774,1.69077687 175.7722,2.84740081 175.7722,4.26874729 L175.7722,47.7479692 L116.052773,47.7479692 L116.052773,4.26874729 C116.052773,2.84740081 117.207199,1.69077687 118.625845,1.69077687 L173.199128,1.69077687 Z" id="Fill-109" fill="#363B5B"></path>
                        <polygon id="Fill-110" fill="#363B5B" points="115.696497 9.74261407 175.772523 9.74261407 175.772523 8.67142627 115.696497 8.67142627"></polygon>
                        <polygon id="Fill-111" fill="#363B5B" points="115.696497 22.2311753 175.772523 22.2311753 175.772523 21.1599874 115.696497 21.1599874"></polygon>
                        <polygon id="Fill-112" fill="#363B5B" points="115.696497 34.7203837 175.772523 34.7203837 175.772523 33.6491959 115.696497 33.6491959"></polygon>
                        <polygon id="Fill-113" fill="#4CB64A" points="118.192047 48.8199337 173.632926 48.8199337 173.632926 0.619071268 118.192047 0.619071268"></polygon>
                        <path d="M153.720916,55.6820728 C153.559413,55.7137877 153.355919,55.7280271 153.145964,55.6788366 C152.674374,55.5688052 150.602609,55.6788366 149.992126,55.7746286 C149.387458,55.8691261 148.454614,55.5688052 148.252412,55.3558621 C148.194271,55.4445345 148.214297,55.6283516 148.293757,55.7189657 C148.481747,55.9338505 149.39844,56.4341696 149.992126,56.2626501 C150.680131,56.0632991 152.696339,56.1234928 153.145964,56.2626501 C153.352043,56.3267272 153.559413,56.2937178 153.720916,56.2626501 C153.914074,56.22511 154.038755,55.7467971 154.005808,55.5519769 L154.005808,55.2633063 C153.965755,55.3817519 153.851411,55.6561831 153.720916,55.6820728" id="Fill-187" fill="#25B8C1"></path>
                        <path d="M153.678667,53.6407966 L151.926032,53.4537433 C151.926032,53.4537433 150.65597,54.3223439 150.483484,54.3877155 C150.310353,54.453087 148.515727,54.9313999 148.515727,54.9313999 C148.515727,54.9313999 148.105508,55.2155398 148.293498,55.4304246 C148.296082,55.4323663 148.299313,55.4349553 148.301251,55.436897 C148.502807,55.6498401 149.387199,55.8692556 149.991868,55.774758 C150.602351,55.678966 152.674116,55.5689346 153.146352,55.678966 C153.35566,55.7281565 153.559154,55.7139172 153.720658,55.6822022 C153.851799,55.6563125 153.946763,55.5598732 153.987461,55.4407805 C154.006196,55.3851175 154.016532,55.3255711 154.006196,55.2627885 L153.846631,54.3242856 L153.678667,53.6407966 Z" id="Fill-188" fill="#3A8F9B"></path>
                        <path d="M161.38858,55.6820728 C161.227722,55.7137877 161.024874,55.7280271 160.81492,55.6788366 C160.34333,55.5688052 158.270273,55.6788366 157.65979,55.7746286 C157.055767,55.8691261 156.122278,55.5688052 155.920721,55.3558621 C155.861934,55.4445345 155.881961,55.6283516 155.962066,55.7189657 C156.150056,55.9338505 157.066103,56.4341696 157.65979,56.2626501 C158.349086,56.0632991 160.364648,56.1234928 160.81492,56.2626501 C161.020352,56.3267272 161.227722,56.2937178 161.38858,56.2626501 C161.581738,56.22511 161.70771,55.7467971 161.674118,55.5519769 L161.674118,55.2633063 C161.634065,55.3817519 161.520367,55.6561831 161.38858,55.6820728" id="Fill-189" fill="#25B8C1"></path>
                        <path d="M161.34633,53.6407966 L159.594342,53.4537433 C159.594342,53.4537433 158.324279,54.3223439 158.151794,54.3877155 C157.978662,54.453087 156.184037,54.9313999 156.184037,54.9313999 C156.184037,54.9313999 155.773172,55.2155398 155.961808,55.4304246 C155.963746,55.4323663 155.966976,55.4349553 155.96956,55.436897 C156.171116,55.6498401 157.055509,55.8692556 157.659531,55.774758 C158.270014,55.678966 160.343072,55.5689346 160.815307,55.678966 C161.024616,55.7281565 161.227464,55.7139172 161.388321,55.6822022 C161.520754,55.6563125 161.615072,55.5598732 161.655771,55.4407805 C161.674505,55.3851175 161.684196,55.3255711 161.674505,55.2627885 L161.51494,54.3242856 L161.34633,53.6407966 Z" id="Fill-190" fill="#3A8F9B"></path>
                        <path d="M149.438557,25.592828 C149.438557,25.592828 148.768641,24.3281144 148.218884,24.1274689 C147.670418,23.9261762 146.67685,23.3915532 146.672328,23.5598365 C146.667805,23.7281198 147.255678,24.5960732 147.587729,24.6180794 C147.918488,24.6394385 145.490769,23.8491543 145.490769,23.8491543 C145.490769,23.8491543 145.041789,24.460152 145.172284,24.7209911 C145.304071,24.9831247 146.970786,26.6174143 146.970786,26.6174143 L149.015419,26.7539826 L149.438557,25.592828 Z" id="Fill-191" fill="#FFC197"></path>
                        <path d="M130.641761,21.6395301 L130.644345,21.6557112 C130.805202,22.7281935 131.249013,23.7372459 131.930558,24.5793095 L131.932496,24.580604 L134.827928,26.9889967 C135.177422,27.3592199 135.68648,27.5339756 136.188433,27.4556592 C136.191017,27.4556592 136.192955,27.4550119 136.194247,27.4537174 L140.518015,24.8886919 C140.518015,24.8886919 141.494788,24.5851347 142.170518,23.9851401 C142.396623,23.7838474 142.73578,22.5068362 142.702833,22.2052208 C142.702833,22.2052208 142.617559,20.4796699 142.302951,20.6964965 C142.08912,20.8434207 141.691822,22.211046 141.691822,22.211046 C141.539363,22.4175166 140.537396,22.923661 140.537396,22.923661 C140.53029,22.9288389 140.477962,22.5624991 140.477316,22.5534377 C140.477316,22.5534377 141.265453,21.546327 141.004463,21.3456816 L140.313875,21.8997219 C139.938541,22.2382302 139.733755,22.7281935 139.758303,23.2336905 L139.758949,23.2414575 C139.776392,23.601972 139.904302,23.9618394 139.897196,23.9644283 L135.699401,25.5462912 C135.694232,25.5482329 135.689064,25.5469384 135.68648,25.543055 L134.80984,24.484812 C134.809194,24.4841648 134.809194,24.4835175 134.808548,24.482223 C134.245224,23.1204229 133.400238,21.8932495 132.329148,20.8829026 L132.312352,20.8673687 C131.517755,20.4712558 130.858175,20.7767546 130.641761,21.6395301" id="Fill-192" fill="#FFC197"></path>
                        <path d="M149.438557,25.2714069 L152.075584,26.0034392 L153.88959,26.3561868 C154.696461,26.4280308 155.434855,25.901822 155.631889,25.114774 L156.524033,21.5581716 C156.861253,20.2941052 158.390366,19.8022003 159.400732,20.6326135 L159.432386,20.6591505 C160.024135,21.1458775 160.243133,21.9562263 159.97633,22.6753137 L158.151988,27.6234894 C157.877432,28.3710555 155.536925,29.7995216 154.75331,29.6623061 L148.563855,27.2810976 L149.438557,25.2714069 Z" id="Fill-193" fill="#8A9100"></path>
                        <polygon id="Fill-194" fill="#FCB98B" points="158.242946 20.0726186 160.998194 20.0726186 160.998194 15.7315571 158.242946 15.7315571"></polygon>
                        <polygon id="Fill-195" fill="#1574B3" points="158.486558 54.1445461 161.642334 54.1445461 161.473078 43.5109845 161.811589 33.5641481 157.500095 33.5641481"></polygon>
                        <path d="M150.788015,54.1445461 L154.139533,54.1445461 L156.502004,44.7284493 C156.502004,44.7284493 162.894308,36.8346689 161.473078,34.3285425 C160.773446,33.0942494 155.830796,33.8146313 155.830796,33.8146313 L152.379792,44.9446286 L150.788015,54.1445461 Z" id="Fill-196" fill="#319FDD"></path>
                        <path d="M163.077388,15.2245714 C164.191116,13.4291182 163.640066,11.0692688 161.848671,9.95406849 C160.055337,8.83886813 157.701264,9.3903195 156.587537,11.1857727 C156.061682,12.0343087 155.566189,14.4427014 156.053929,16.1546602 C156.218017,16.7281178 156.845942,17.026497 157.331744,17.0323222 C157.331744,17.0323222 158.761372,16.9708341 159.373793,17.0012545 C160.809881,17.0730985 162.267933,16.5300613 163.077388,15.2245714" id="Fill-197" fill="#FFD0B0"></path>
                        <path d="M161.135601,9.63892568 C161.135601,9.63892568 158.309292,8.2175792 156.743355,10.7444174 C156.205226,11.6110763 155.577301,12.2589669 155.577301,12.2589669 C155.577301,12.2589669 157.400351,12.2311355 158.387459,10.8182031 C158.877138,10.1165913 159.64977,10.2745187 159.64977,10.2745187 C159.64977,10.2745187 158.623254,9.37031968 158.04701,11.365771 C157.470766,13.3612224 158.91396,13.6136473 158.91396,13.6136473 C158.91396,13.6136473 159.707265,11.5372905 160.244102,13.2382462 C160.702772,14.6893658 159.47147,14.7579736 159.47147,14.7579736 C159.47147,14.7579736 160.949549,16.1864398 160.998,16.657633 C161.047097,17.1294734 160.760267,17.4304416 161.4922,16.8511588 C162.224134,16.2731704 162.944439,15.8783519 163.549107,14.3650969 C164.155068,12.8505474 163.364993,10.1877881 161.135601,9.63892568" id="Fill-198" fill="#071E2B"></path>
                        <path d="M155.509469,27.0990281 L155.85444,34.3280895 L161.811977,34.9183754 L162.471557,27.9229689 C162.817174,24.2673382 162.102683,22.0065171 160.998,18.5049303 C160.998,18.5049303 159.709849,20.0906766 158.242752,19.1877721 C158.242752,19.1877721 154.555307,21.673834 155.509469,27.0990281" id="Fill-199" fill="#A1B400"></path>
                        <path d="M130.291621,54.7307545 L130.39886,54.4013076 C130.351701,54.5922444 130.30971,54.8148961 130.294206,55.0550234 C130.287099,54.9527589 130.285161,54.846611 130.291621,54.7307545" id="Fill-200" fill="#F9AF7D"></path>
                        <path d="M130.012737,34.4968258 C130.025658,34.3770858 132.674959,34.4968258 132.674959,34.4968258 C134.306789,34.7544287 134.204073,39.7103713 133.932101,42.2287953 C133.86104,42.8922198 133.19823,44.9653404 132.90171,45.562746 L132.890082,45.5860468 C132.275723,46.8235762 131.845478,48.9659518 131.934628,50.3458747 L132.083857,52.6558863 C132.716304,53.3497312 133.912075,54.718651 134.81391,55.1995528 C134.936652,55.2649244 135.054227,55.3192929 135.164049,55.359422 C135.00513,55.4493888 134.744786,55.5024628 134.299683,55.3976093 C134.237666,55.38337 134.171126,55.3704251 134.106525,55.3561857 C133.119416,55.1445372 132.348722,55.0176775 131.621957,54.6824054 C130.849325,54.3244798 130.582521,53.8351638 130.582521,53.8351638 L130.800874,53.1581472 L130.162613,50.4837375 C129.809889,49.0002557 129.811181,47.4546385 130.180055,45.9756873 C130.183931,45.9608007 130.187807,45.9465614 130.191683,45.9316748 C130.453965,44.8896129 130.561203,43.8145416 130.497248,42.7414121 L130.012737,34.4968258 Z" id="Fill-201" fill="#F9AF7D"></path>
                        <path d="M130.582457,53.8341929 L130.582457,53.8341929 L130.398989,54.4011781 C130.482971,54.0652588 130.582457,53.8341929 130.582457,53.8341929" id="Fill-202" fill="#F9AF7D"></path>
                        <path d="M130.294141,55.055347 C130.309645,54.8152197 130.351636,54.592568 130.398795,54.4016312 L130.655908,53.6068163 C130.655908,53.6068163 130.859403,54.0437056 131.632681,54.4016312 C132.358154,54.7369033 133.119158,55.1446666 134.106267,55.3563152 C134.170868,55.3699073 134.237407,55.3828522 134.299425,55.3977388 C134.745174,55.5025922 135.004871,55.4495182 135.163791,55.3595514 C135.170897,55.3621404 135.179295,55.3660238 135.186401,55.3686128 L136.228421,55.6799369 C136.488764,55.7711982 136.461632,56.11359 136.203226,56.211971 C135.414444,56.5135864 134.772307,56.4203833 133.988046,56.3692511 C133.156627,56.3148827 132.887239,56.0087365 132.07843,55.7155353 L131.97959,56.2462749 L130.878783,56.2462749 C130.878783,56.2462749 130.602935,55.7582533 130.491175,55.4553434 C130.46275,55.379616 130.288973,55.1336635 130.294141,55.055347" id="Fill-203" fill="#F26522"></path>
                        <path d="M135.394741,54.8815622 L135.490997,54.5482318 C135.449006,54.7404631 135.414767,54.9644093 135.407661,55.2051839 C135.397325,55.1029194 135.39151,54.9967715 135.394741,54.8815622" id="Fill-204" fill="#F9AF7D"></path>
                        <path d="M130.641761,34.6668567 C130.650805,34.5464694 133.301398,34.5807733 133.301398,34.5807733 C134.941627,34.7853022 136.668421,39.7412448 136.478493,42.2674358 C136.42875,42.932802 136.388697,45.0266343 136.111557,45.6337486 L136.100575,45.6564022 C135.526915,46.9139961 136.279521,49.0686693 136.412599,50.4447087 L137.192984,52.7495424 C137.846749,53.4220283 139.086449,54.7514662 140.003142,55.2038894 C140.128469,55.2647303 140.247336,55.314568 140.35845,55.3521081 C140.202115,55.4466056 139.943709,55.508741 139.496022,55.4181269 C139.433359,55.4058293 139.366173,55.3941789 139.300926,55.3825286 C138.308003,55.2038894 137.533433,55.1016249 136.796977,54.7896536 C136.012071,54.4576177 135.729763,53.9760687 135.729763,53.9760687 L135.927443,53.2925797 L134.646399,50.639529 C134.244578,49.1696393 133.083046,47.6246693 133.404761,46.134715 C133.408637,46.1198284 133.411867,46.1042946 133.415097,46.089408 C133.64314,45.0395792 133.158629,43.9612717 133.061727,42.8907312 L130.641761,34.6668567 Z" id="Fill-205" fill="#F9AF7D"></path>
                        <path d="M135.729699,53.9760687 L135.729699,53.9760687 L135.564965,54.5482318 C135.637319,54.2097235 135.729699,53.9760687 135.729699,53.9760687" id="Fill-206" fill="#F9AF7D"></path>
                        <path d="M135.481177,55.2048602 C135.490221,54.9647329 135.523814,54.7407867 135.565159,54.5485554 L135.796432,53.7459736 C135.796432,53.7459736 136.014138,54.1757433 136.797753,54.5084264 C137.534208,54.8203977 138.308132,55.2035658 139.301055,55.3822049 C139.366302,55.3945026 139.433488,55.4055057 139.496151,55.4178033 C139.943838,55.5084174 140.202244,55.4469293 140.358579,55.3517845 C140.365685,55.3543735 140.374083,55.3576097 140.38119,55.3601987 L141.432254,55.6372188 C141.695181,55.720066 141.679677,56.063105 141.425147,56.1699001 C140.646055,56.4974053 140.000042,56.4242668 139.215135,56.3990243 C138.382424,56.3718401 138.103992,56.0741081 137.285493,55.8074438 L137.204741,56.3414196 L136.10458,56.3763708 C136.10458,56.3763708 135.812582,55.8980579 135.690486,55.5990315 C135.660123,55.5239512 135.478593,55.2838239 135.481177,55.2048602" id="Fill-207" fill="#F26522"></path>
                        <path d="M132.231535,20.4828414 C131.533195,19.9941727 131.057729,19.646603 130.551254,19.5818786 C130.33161,19.5533999 130.080956,19.5100346 129.867126,19.4692583 C129.907179,19.2712018 129.953046,19.0757343 130.007311,18.880914 L131.429187,17.4006684 L132.618498,18.394187 L132.265128,19.6796124 L132.991893,20.6789562 C132.800673,20.7203797 132.544206,20.7009624 132.231535,20.4828414" id="Fill-208" fill="#F9AF7D"></path>
                        <path d="M129.834825,22.7566722 C129.632623,21.6667143 129.644897,20.5508667 129.867126,19.4686758 C130.080956,19.5094521 130.390397,19.440197 130.611334,19.4686758 C131.117162,19.5334001 132.231535,19.6337228 132.991893,20.6790209 L134.278752,22.4498788 C134.731608,23.0725269 134.908615,23.854397 134.767784,24.6116717 L133.99063,28.7941585 L137.369281,39.9895274 L128.595125,40.4581316 C128.595125,40.4581316 129.064131,34.4297067 129.100954,34.0801952 C129.36905,31.5766578 130.582909,28.9410827 130.582909,28.9410827 C130.794801,27.9048461 130.780589,26.8356 130.54221,25.8051885 L129.834825,22.7566722 Z" id="Fill-209" fill="#2B59A1"></path>
                        <path d="M129.198308,16.0159559 C128.439888,14.5538331 129.47028,12.7596744 131.022004,12.2140482 C132.573729,11.6690693 134.272098,12.4871849 134.816042,14.0412163 C135.073801,14.7764848 134.954289,16.6483127 134.383859,17.912379 C133.874154,19.0431132 132.861205,18.4554162 132.490393,18.377747 C132.490393,18.377747 130.304283,18.1525063 129.198308,16.0159559" id="Fill-210" fill="#FFD0B0"></path>
                        <path d="M131.690241,11.6375485 C131.690241,11.6375485 134.498461,11.3547032 134.828574,13.649181 C135.048865,15.1812061 132.694146,15.4653459 132.694146,15.4653459 C132.694146,15.4653459 132.43897,13.7507982 131.74386,14.9546709 C131.150173,15.9805517 132.075911,16.2413908 132.075911,16.2413908 C132.075911,16.2413908 131.830426,16.9695396 131.676674,17.1695378 C131.444756,17.4730949 131.277438,17.9857117 130.657265,17.7190474 C129.895615,17.3915423 129.137841,16.3889623 128.933055,15.1346046 C128.727623,13.8808941 129.314203,12.0556678 131.690241,11.6375485" id="Fill-211" fill="#071E2B"></path>
                        <path d="M129.864477,21.5437381 L128.662246,21.7715677 C128.662246,21.7715677 127.973596,14.7852226 129.142234,13.4590209 C130.309581,12.1321719 131.135832,16.2557596 131.135832,16.2557596 L132.075782,16.2415202 L132.132631,19.0764463 C132.003428,20.3107394 131.081567,21.3146139 129.864477,21.5437381" id="Fill-212" fill="#071E2B"></path>
                        <path d="M131.944512,21.2577212 C131.944512,21.2577212 131.014898,20.7334541 130.641502,22.0441219 C130.269399,23.3547898 130.500025,25.3567136 130.500025,25.3567136 L130.296531,28.9579758 L132.531738,34.1676378 L132.531738,35.6744204 C132.531738,35.6744204 132.853453,37.1015921 133.120902,37.3138879 C133.78242,37.8368606 134.285665,37.9701927 134.321195,37.6575742 C134.368354,37.2439857 133.903871,36.5113061 133.903871,36.5113061 L134.025967,35.0524195 L134.373522,35.5605056 C134.373522,35.5605056 134.469132,36.234286 134.651308,36.3307252 C134.726246,36.3695598 134.907776,35.838173 134.825732,35.495134 C134.703635,34.9864007 134.698467,34.7967584 134.477531,34.5773429 L133.746889,33.7754083 L132.531738,29.7754442 L132.132502,28.9249664 L132.730064,24.8622196 C132.730064,24.8622196 134.036303,22.4376459 131.944512,21.2577212" id="Fill-213" fill="#F9AF7D"></path>
                        <path d="M161.159568,34.9278899 C161.159568,34.9278899 160.042611,35.821733 159.947647,36.3997214 C159.852037,36.9777097 159.511588,38.0547227 159.677613,38.028833 C159.842992,38.0016488 160.585908,37.2612023 160.545855,36.9311082 C160.505802,36.6003668 160.179566,39.1375609 160.179566,39.1375609 C160.179566,39.1375609 160.86111,39.467655 161.093029,39.2896631 C161.326239,39.1123184 162.620851,37.1679993 162.620851,37.1679993 L162.376657,35.1304771 L161.159568,34.9278899 Z" id="Fill-214" fill="#FFC197"></path>
                        <path d="M162.338672,20.7037456 C160.695859,17.9024762 160.755939,20.4823883 160.116385,22.1600432 C159.47554,23.8376981 161.918117,28.6272991 161.918117,28.6272991 L160.90323,35.009119 L162.686873,35.4725452 C162.686873,35.4725452 166.037099,27.0066017 162.338672,20.7037456" id="Fill-215" fill="#B4CE46"></path>
                    </g>
                </g>
            </g>
        </g>
    </g>
</svg>