<?xml version="1.0" encoding="UTF-8"?>
<svg width="286px" height="152px" viewBox="0 0 286 152" version="1.1" xmlns="http://www.w3.org/2000/svg" xmlns:xlink="http://www.w3.org/1999/xlink">
    <!-- Generator: Sketch 53.2 (72643) - https://sketchapp.com -->
    <title>Illustration</title>
    <desc>Created with Sketch.</desc>
    <g id="Web" stroke="none" stroke-width="1" fill="none" fill-rule="evenodd">
        <g id="Choose-Membership-V7-Anually-Select" transform="translate(-497.000000, -606.000000)">
            <g id="Memberships" transform="translate(90.000000, 336.000000)">
                <g id="Premium-Plus" transform="translate(320.000000, 0.000000)">
                    <g id="Illustration" transform="translate(87.000000, 270.000000)">
                        <path d="M286,127.5 C286,141.030966 221.976488,152 143.00039,152 C64.0235123,152 0,141.030966 0,127.5 C0,113.969034 64.0235123,103 143.00039,103 C221.976488,103 286,113.969034 286,127.5" id="Fill-1" fill="#EDF2FA"></path>
                        <polygon id="Fill-3" fill="#141832" points="48 81 50 81 50 73 48 73"></polygon>
                        <polygon id="Fill-4" fill="#272B4C" points="33 89 45 89 45 86 33 86"></polygon>
                        <polygon id="Fill-5" fill="#272B4C" points="36 95 44 95 44 92 36 92"></polygon>
                        <polygon id="Fill-6" fill="#616786" points="50 80 54 80 54 74 50 74"></polygon>
                        <path d="M47.2168959,85.7442969 L25.7998142,85.7442969 C24.737836,85.7442969 23.876836,84.8816577 23.876836,83.8176577 L23.876836,71.5558021 C23.876836,70.4918021 24.737836,69.6291629 25.7998142,69.6291629 L47.2168959,69.6291629 C48.2788741,69.6291629 49.1398741,70.4918021 49.1398741,71.5558021 L49.1398741,83.8176577 C49.1398741,84.8816577 48.2788741,85.7442969 47.2168959,85.7442969" id="Fill-7" fill="#363B5B"></path>
                        <polygon id="Fill-9" fill="#141832" points="61.2909223 84.189901 52.9859087 79.5256948 52.9859087 73.7449938 61.2909223 69.1693237"></polygon>
                        <path d="M35.5466313,63.2357608 C35.5466313,66.6212866 32.8072281,69.3666887 29.4273534,69.3666887 C26.0482608,69.3666887 23.3088575,66.6212866 23.3088575,63.2357608 C23.3088575,59.8494515 26.0482608,57.104833 29.4273534,57.104833 C32.8072281,57.104833 35.5466313,59.8494515 35.5466313,63.2357608" id="Fill-11" fill="#363B5B"></path>
                        <path d="M29.427588,64.6371381 C28.6565199,64.6371381 28.0293428,64.008767 28.0293428,63.2354474 C28.0293428,62.4629113 28.6565199,61.8345402 29.427588,61.8345402 C30.1986561,61.8345402 30.8266153,62.4629113 30.8266153,63.2354474 C30.8266153,64.008767 30.1986561,64.6371381 29.427588,64.6371381" id="Fill-13" fill="#141832"></path>
                        <path d="M29.427588,64.1114845 C28.9450839,64.1114845 28.5532937,63.7189485 28.5532937,63.2355258 C28.5532937,62.7528866 28.9450839,62.359567 29.427588,62.359567 C29.9093101,62.359567 30.3018823,62.7528866 30.3018823,63.2355258 C30.3018823,63.7189485 29.9093101,64.1114845 29.427588,64.1114845" id="Fill-15" fill="#616786"></path>
                        <path d="M31.2195785,67.1329938 C30.6416684,67.1329938 30.1708946,66.6613237 30.1708946,66.0823134 C30.1708946,65.5025196 30.6416684,65.0308495 31.2195785,65.0308495 C31.7982706,65.0308495 32.2690444,65.5025196 32.2690444,66.0823134 C32.2690444,66.6613237 31.7982706,67.1329938 31.2195785,67.1329938" id="Fill-17" fill="#141832"></path>
                        <path d="M31.2195785,66.7389691 C30.8582869,66.7389691 30.5642488,66.4443711 30.5642488,66.0823918 C30.5642488,65.7196289 30.8582869,65.4250309 31.2195785,65.4250309 C31.58087,65.4250309 31.8749082,65.7196289 31.8749082,66.0823918 C31.8749082,66.4443711 31.58087,66.7389691 31.2195785,66.7389691" id="Fill-19" fill="#616786"></path>
                        <path d="M46.8236199,63.4105608 C46.8236199,66.7968701 44.0842166,69.5414887 40.704342,69.5414887 C37.3252493,69.5414887 34.585064,66.7968701 34.585064,63.4105608 C34.585064,60.0250351 37.3252493,57.279633 40.704342,57.279633 C44.0842166,57.279633 46.8236199,60.0250351 46.8236199,63.4105608" id="Fill-21" fill="#363B5B"></path>
                        <path d="M40.7041856,64.8123299 C39.9331174,64.8123299 39.3051583,64.1831753 39.3051583,63.4106392 C39.3051583,62.6381031 39.9331174,62.009732 40.7041856,62.009732 C41.4752537,62.009732 42.1032128,62.6381031 42.1032128,63.4106392 C42.1032128,64.1831753 41.4752537,64.8123299 40.7041856,64.8123299" id="Fill-23" fill="#141832"></path>
                        <path d="M40.7041856,64.2866763 C40.2224635,64.2866763 39.8298913,63.8941402 39.8298913,63.4107175 C39.8298913,62.9280784 40.2224635,62.5347588 40.7041856,62.5347588 C41.1866896,62.5347588 41.5784798,62.9280784 41.5784798,63.4107175 C41.5784798,63.8941402 41.1866896,64.2866763 40.7041856,64.2866763" id="Fill-25" fill="#616786"></path>
                        <path d="M36.6394992,69.3664536 L34.191788,69.3664536 C33.3956954,69.3664536 32.7489678,68.5727629 32.7489678,67.5941649 L32.7489678,65.4457938 C32.7489678,64.4671959 33.3956954,63.6735052 34.191788,63.6735052 L36.6394992,63.6735052 C37.4363738,63.6735052 38.0815373,64.4671959 38.0815373,65.4457938 L38.0815373,67.5941649 C38.0815373,68.5727629 37.4363738,69.3664536 36.6394992,69.3664536" id="Fill-27" fill="#616786"></path>
                        <polygon id="Fill-29" fill="#616786" points="23.3955831 69.6293196 41.2286839 69.6293196 41.2286839 68.3153814 23.3955831 68.3153814"></polygon>
                        <polygon id="Fill-31" fill="#616786" points="24.5693896 75.9122474 18.4008447 73.4402887 18.9850109 71.976701 25.1535559 74.4486598"></polygon>
                        <polygon id="Fill-32" fill="#363B5B" points="18.4010793 73.4404454 16.614954 73.6684454 17.9138831 70.415332 18.9852455 71.9760742"></polygon>
                        <path d="M43.9823199,89.8607546 C43.9823199,91.505332 42.6513281,92.8388577 41.0106578,92.8388577 C39.3692054,92.8388577 38.0382136,91.505332 38.0382136,89.8607546 C38.0382136,88.2161773 39.3692054,86.8826515 41.0106578,86.8826515 C42.6513281,86.8826515 43.9823199,88.2161773 43.9823199,89.8607546" id="Fill-33" fill="#363B5B"></path>
                        <polygon id="Fill-34" fill="#363B5B" points="28.2472125 91.6779381 40.7477439 91.6779381 40.7477439 90.6272577 28.2472125 90.6272577"></polygon>
                        <path d="M28.8291891,92.510099 L25.9169602,92.510099 C25.1763907,92.510099 24.5758022,91.908367 24.5758022,91.1663876 L24.5758022,91.1389649 C24.5758022,90.3969856 25.1763907,89.7952536 25.9169602,89.7952536 L28.8291891,89.7952536 C29.5697586,89.7952536 31.2198131,90.3969856 31.2198131,91.1389649 L31.2198131,91.1663876 C31.2198131,91.908367 29.5697586,92.510099 28.8291891,92.510099" id="Fill-35" fill="#5C5F6D"></path>
                        <path d="M41.0104232,91.262132 C40.238573,91.262132 39.6113959,90.6337608 39.6113959,89.8604412 C39.6113959,89.0879052 40.238573,88.459534 41.0104232,88.459534 C41.7814913,88.459534 42.4094504,89.0879052 42.4094504,89.8604412 C42.4094504,90.6337608 41.7814913,91.262132 41.0104232,91.262132" id="Fill-36" fill="#616786"></path>
                        <path d="M38.0381354,73.0452454 C37.4594433,73.0452454 36.9886695,73.516132 36.9886695,74.0959258 L36.9886695,81.1020289 C36.9886695,81.6818227 37.4594433,82.1534928 38.0381354,82.1534928 L44.0698275,82.1534928 C44.6485196,82.1534928 45.1185114,81.6818227 45.1185114,81.1020289 L45.1185114,74.0959258 C45.1185114,73.516132 44.6485196,73.0452454 44.0698275,73.0452454 L38.0381354,73.0452454 Z M44.0698275,82.6792247 L38.0381354,82.6792247 C37.1700973,82.6792247 36.4647185,81.9717196 36.4647185,81.1020289 L36.4647185,74.0959258 C36.4647185,73.2262351 37.1700973,72.5195134 38.0381354,72.5195134 L44.0698275,72.5195134 C44.9370837,72.5195134 45.6432444,73.2262351 45.6432444,74.0959258 L45.6432444,81.1020289 C45.6432444,81.9717196 44.9370837,82.6792247 44.0698275,82.6792247 L44.0698275,82.6792247 Z" id="Fill-37" fill="#616786"></path>
                        <path d="M25.4609665,76.8219753 C24.6898984,76.8219753 24.0627213,76.1936041 24.0627213,75.4202845 C24.0627213,74.6477485 24.6898984,74.0193773 25.4609665,74.0193773 C26.2320346,74.0193773 26.8599937,74.6477485 26.8599937,75.4202845 C26.8599937,76.1936041 26.2320346,76.8219753 25.4609665,76.8219753" id="Fill-38" fill="#141832"></path>
                        <path d="M25.4609665,76.033534 C25.1231354,76.033534 24.8494297,75.7585237 24.8494297,75.420833 C24.8494297,75.0823588 25.1231354,74.8073485 25.4609665,74.8073485 C25.7987975,74.8073485 26.0732853,75.0823588 26.0732853,75.420833 C26.0732853,75.7585237 25.7987975,76.033534 25.4609665,76.033534" id="Fill-39" fill="#616786"></path>
                        <path d="M14.2267542,141.05412 L14.1767052,141.156759 C13.8091575,140.181295 13.5135553,139.255192 13.3188332,139.034243 L12.6713237,144.226532 C12.2036779,145.182408 13.5737706,146.113212 15.4482638,146.113212 L20.9692992,146.113212 C22.5528823,146.113212 23.8369531,146.27148 23.8369531,145.437047 L23.8369531,145.424511 C23.8369531,144.695068 23.3630512,144.053377 22.6670567,143.83948 C20.1043891,143.052058 14.2267542,141.05412 14.2267542,141.05412" id="Fill-40" fill="#05101C"></path>
                        <path d="M19.3327736,142.38506 L11.652591,142.38506 C11.652591,142.38506 -0.995741417,112.566421 0.631634605,105.525843 C1.68031853,100.989348 1.96888256,106.86407 9.39881989,100.682214 L17.0359916,120.765802 L19.3327736,142.38506 Z" id="Fill-41" fill="#1D283E"></path>
                        <path d="M3.6164346,141.05412 L3.56638556,141.156759 C3.19883787,140.181295 2.90323569,139.255192 2.70851362,139.034243 L2.06100409,144.226532 C1.59335831,145.182408 2.96345095,146.113212 4.83794414,146.113212 L10.3589796,146.113212 C11.9425627,146.113212 13.2266335,146.27148 13.2266335,145.437047 L13.2266335,145.424511 C13.2266335,144.695068 12.7527316,144.053377 12.0567371,143.83948 C9.49406948,143.052058 3.6164346,141.05412 3.6164346,141.05412" id="Fill-42" fill="#05101C"></path>
                        <path d="M8.71635422,142.38506 L1.03617166,142.38506 C1.03617166,142.38506 -0.995506812,112.566421 0.63186921,105.525843 C1.67977112,100.989348 2.79961853,106.958091 11.7865504,92.1239876 L12.579515,118.347122 L8.71635422,142.38506 Z" id="Fill-43" fill="#1D283E"></path>
                        <path d="M5.81092888,76.4214474 C5.81092888,76.4214474 4.78492343,80.9712619 4.09518501,85.8101897 C3.74875177,88.2406227 5.44572725,102.77621 5.44572725,102.77621 L12.1194548,102.77621 C12.1194548,102.77621 13.0742967,92.8319629 12.8639343,90.0238804 C12.416621,84.0606227 10.0909044,83.5717155 9.16890708,81.8895299 C8.91005967,81.4170763 9.33156649,77.3922103 9.33156649,77.3922103 L5.81092888,76.4214474 Z" id="Fill-44" fill="#EAA563"></path>
                        <path d="M4.85741635,81.1672165 C4.85741635,81.1672165 6.73425559,81.3388041 8.26231553,81.4179381 C9.79193951,81.4962887 11.1002529,83.7449485 11.1002529,83.7449485 C11.1002529,83.7449485 14.072697,90.0216082 13.8521684,91.6614845 C13.6316398,93.3005773 12.1755253,105.612577 12.1755253,105.612577 L0.6314,105.525608 C0.6314,105.525608 0.636874114,93.6492371 4.85741635,81.1672165" id="Fill-45" fill="#8EBCE1"></path>
                        <path d="M14.4634706,70.3083835 C14.4634706,68.4405072 12.2315959,66.2357237 10.1443943,66.2357237 L9.29277847,66.2357237 C7.20557684,66.2357237 4.12834251,68.4405072 4.12834251,70.3083835 L4.86500191,75.4575794 C5.16764223,77.5777443 10.8067621,78.8901155 13.0855578,79.5302392 L13.0886858,79.5490433 L13.0886858,79.5310227 C15.3682635,78.8916825 14.3665005,75.241332 14.6699229,73.1203835 L14.4634706,70.3083835 Z" id="Fill-46" fill="#FCCA9B"></path>
                        <path d="M14.2255812,75.253868 L14.2255812,71.7915588 L15.793524,74.3348165 C15.9499272,74.7837649 15.6160063,75.253868 15.1413223,75.253868 L14.2255812,75.253868 Z" id="Fill-47" fill="#FCCA9B"></path>
                        <path d="M13.6948267,67.5966722 C13.6948267,67.5966722 15.1196605,68.6011258 13.8817286,69.4872701 C12.6437967,70.3734144 11.2166169,69.6643423 11.1790801,70.7871052 C11.080546,73.7699093 9.22638529,74.9827753 9.22638529,75.3063629 C9.22638529,75.4998887 8.24260872,76.0162186 7.92902016,77.3215381 C7.75932262,78.0282598 6.87799019,78.2719299 6.37749973,77.7454144 C5.03243161,76.3311876 3.00309918,76.3108165 3.00309918,72.4677237 L3.00309918,72.1221979 C3.00309918,68.7257031 5.75110463,65.972466 9.1411455,65.972466 L9.62521362,65.972466 C11.9360719,65.972466 13.6948267,67.5966722 13.6948267,67.5966722" id="Fill-48" fill="#082238"></path>
                        <path d="M10.2128207,73.7342598 C10.1346191,72.9758268 9.50196785,72.3819299 8.7246436,72.3819299 C7.89414223,72.3819299 7.69003597,73.0855175 7.69003597,73.9176 C7.69003597,74.3406928 8.53226757,75.9265072 8.96081253,75.9265072 L10.2597417,75.8505072 L10.5209351,74.1839918 L10.2128207,73.7342598 Z" id="Fill-49" fill="#FCCA9B"></path>
                        <path d="M13.440515,67.1207711 L3.75680654,76.0229567 L2.88329428,75.0686474 C0.463735695,72.426668 0.642035422,68.2827093 3.27821253,65.8593278 L3.37518256,65.7700082 C6.01135967,63.3466268 10.1474441,63.525266 12.5662207,66.1664619 L13.440515,67.1207711 Z" id="Fill-50" fill="#F26522"></path>
                        <path d="M0.408212534,79.6258268 C0.408212534,79.6258268 0.574,80.0630227 1.74467847,79.5490433 C2.80587466,79.0836412 3.31731335,77.9922186 3.55270027,77.7172082 C3.78886921,77.4429814 5.2043188,74.6928784 5.2043188,74.6928784 L3.00294278,75.253868 L0.408212534,79.6258268 Z" id="Fill-51" fill="#F26522"></path>
                        <path d="M25.0497041,90.0252907 L16.6383362,91.0132907 C16.6383362,91.0132907 12.0260038,85.653332 11.5786905,84.8181155 C10.9397831,83.6232701 9.75659237,82.8225278 8.4138703,82.6572082 L8.39431989,82.6548577 C8.39431989,82.6548577 8.00800381,82.6932495 7.80858965,82.7128371 C5.88639346,82.9016619 5.00662507,86.4854144 5.91141798,88.1950227 C8.81504469,93.6803423 14.2258158,96.5048784 14.2258158,96.5048784 C14.7787014,97.1058268 25.430546,94.2233113 25.430546,94.2233113 L25.0497041,90.0252907 Z" id="Fill-52" fill="#AED8F4"></path>
                        <path d="M28.4054144,93.2556825 L25.0497823,94.2405485 L25.0497823,90.0252907 L27.5670929,89.2864454 C28.5219349,89.0059505 29.4783409,89.7236412 29.4783409,90.7210433 L29.4783409,91.8210845 C29.4783409,92.4847134 29.0411937,93.0692082 28.4054144,93.2556825" id="Fill-53" fill="#FCCA9B"></path>
                        <polygon id="Fill-54" fill="#05101C" points="39.6888937 144.340454 41.9614332 144.340454 41.9614332 94.243134 39.6888937 94.243134"></polygon>
                        <polygon id="Fill-55" fill="#05101C" points="53.9057163 144.340767 51.5737436 144.340767 41.9611986 103.897014 40.7537654 98.7971794 39.7121196 94.4330557 40.493354 94.2434474 40.7537654 94.183901 41.9260079 93.8994887"></polygon>
                        <polygon id="Fill-56" fill="#05101C" points="41.7836809 94.432899 40.7537654 98.7970227 39.6886591 103.244981 29.922839 144.34061 27.5908662 144.34061 39.5697926 93.899332 40.7537654 94.1837443 41.0024466 94.2432907"></polygon>
                        <path d="M81.3347052,56.3946639 C81.7210213,56.3421691 82.1589504,56.5106227 82.5796752,56.7997361 C82.6125199,56.6649732 82.6344163,56.5262928 82.6344163,56.3844784 C82.6344163,55.1261691 81.3120267,54.1091794 79.6791766,54.1083959 L79.6791766,55.9966433 C80.418964,55.954334 81.0547433,56.0789113 81.3347052,56.3946639" id="Fill-57" fill="#6D0C05"></path>
                        <path d="M79.6794112,54.1083959 L79.6794112,54.1083959 C78.0481251,54.1083959 76.7249534,55.1261691 76.7249534,56.3844784 C76.7249534,56.5952412 76.7734384,56.7950351 76.8438199,56.9885608 C77.6485147,56.3758598 78.7488117,56.0507052 79.6794112,55.9966433 L79.6794112,54.1083959 Z" id="Fill-58" fill="#6D0C05"></path>
                        <polygon id="Fill-59" fill="#E09C5F" points="79.6984924 77.0243546 81.3422907 71.231901 79.679724 69.5638186"></polygon>
                        <path d="M79.6794112,69.5635052 L78.521245,68.4007835 C78.1263267,68.254268 77.7611251,68.0341031 77.4334602,67.7520412 L77.4334602,69.5556701 L79.6981796,77.0240412 L79.6794112,69.5635052 Z" id="Fill-60" fill="#F7B56D"></path>
                        <path d="M78.520854,68.4008619 L79.6790202,69.5635835 L79.6790202,68.6194598 C79.2754997,68.6186763 78.8876196,68.5371918 78.520854,68.4008619" id="Fill-61" fill="#EAA663"></path>
                        <path d="M79.6794112,68.6193031 L79.6794112,69.5634268 L81.3419779,71.2322928 L81.7900733,69.5422722 L81.7900733,67.8577361 C81.1824466,68.3348907 80.4606455,68.6193031 79.6809752,68.6193031 L79.6794112,68.6193031 Z" id="Fill-62" fill="#DD9452"></path>
                        <path d="M79.6794112,68.6193031 L79.6794112,60.0101485 L79.6794112,60.010932 C78.5126428,60.9041278 76.0062804,61.8357155 75.5003158,62.0190557 L75.5808635,62.292499 L75.4041278,62.0535299 C75.2500706,61.8372825 75.0905392,61.7103546 74.982621,61.7103546 C74.9771469,61.7103546 74.9701087,61.7127052 74.9575965,61.7236742 C74.8426401,61.842767 74.8246537,62.4217773 74.8973812,63.4473856 C74.9622886,64.346066 75.5245583,65.1906845 75.8342368,65.1906845 C75.8631714,65.1875505 75.8842858,65.178932 75.9061823,65.1632619 L75.9718717,65.1146845 L75.989076,65.1930351 C76.2002204,66.2578186 76.7272995,67.1439629 77.4334602,67.7519629 C77.7611251,68.0340247 78.1263267,68.2541897 78.521245,68.4007052 C78.8880106,68.5378186 79.2751087,68.6193031 79.6794112,68.6193031" id="Fill-63" fill="#FFC988"></path>
                        <path d="M80.4977131,59.0301402 C80.2764025,59.4124907 80.0066068,59.7611505 79.679724,60.0103052 L79.679724,68.6194598 L79.680506,68.6194598 C80.4601763,68.6194598 81.1827594,68.3342639 81.7903861,67.8578928 C82.5638003,67.2506763 83.1456204,66.3245732 83.3684951,65.1931918 L83.3864815,65.1148412 L83.4545169,65.1634186 C83.4748493,65.1790887 83.4967458,65.1877072 83.5319365,65.1908412 C83.8369229,65.1908412 84.3976286,64.3462227 84.462536,63.4475423 C84.5368275,62.421934 84.5164951,61.8429237 84.4015387,61.7238309 C84.3890264,61.7128619 84.3819883,61.7097278 84.3749501,61.7097278 C84.2693779,61.7097278 84.1121926,61.8374392 83.9550074,62.0513361 L83.7798357,62.2926557 L83.8627294,62.0074598 C83.8627294,62.0074598 82.5864787,60.9121196 81.1835414,59.9648619 C80.8175578,59.7172742 80.6111054,59.385068 80.4977131,59.0301402" id="Fill-64" fill="#F7B56D"></path>
                        <path d="M77.3371158,128.573118 C76.6598896,128.573118 76.149233,127.997241 75.8020177,127.409612 L75.625282,127.980788 C75.433688,128.592705 75.4751349,129.315097 75.9161921,129.775014 C76.9468896,130.846066 78.9355572,130.291344 78.9355572,130.291344 C79.2076989,129.847097 79.3007589,129.318231 79.1944046,128.809736 L78.9488515,127.62586 C78.6892221,128.197819 78.2372166,128.573118 77.3371158,128.573118" id="Fill-65" fill="#355C4B"></path>
                        <path d="M74.8780654,117.010305 C75.7296812,120.800903 76.2653624,125.917975 76.2653624,125.917975 L75.8024087,127.408986 C76.148842,127.996614 76.6594986,128.573274 77.3375068,128.573274 C78.2368256,128.573274 78.6888311,128.197192 78.9492425,127.626016 L78.5676185,125.8028 L79.1971417,111.324408 L75.0000599,111.324408 C74.6817793,113.179748 74.4987875,115.321068 74.8780654,117.010305" id="Fill-66" fill="#FFC988"></path>
                        <path d="M82.0670635,128.573118 C81.1677447,128.573118 80.7149572,128.197819 80.4553278,127.62586 L80.2097747,128.809736 C80.1034204,129.318231 80.1964804,129.847097 80.4701861,130.291344 C80.4701861,130.291344 82.4572896,130.846066 83.4879872,129.775014 C83.9306084,129.315097 83.9704913,128.592705 83.7796793,127.980788 L83.6029436,127.409612 C83.2557283,127.997241 82.7466357,128.573118 82.0670635,128.573118" id="Fill-67" fill="#02331E"></path>
                        <path d="M80.8367172,125.802565 L80.4550932,127.625781 C80.7155046,128.19774 81.1675101,128.573039 82.0668289,128.573039 C82.7464011,128.573039 83.2554937,127.997163 83.603491,127.409534 L83.1389733,125.91774 C83.1389733,125.91774 83.6754365,120.801452 84.5262703,117.01007 C84.9063302,115.320833 84.7233384,113.180297 84.4050578,111.324173 L80.207976,111.324173 L80.8367172,125.802565 Z" id="Fill-68" fill="#F9C478"></path>
                        <path d="M102.784788,75.7374474 C102.529851,75.0463959 101.753308,77.0701897 98.5908343,77.120334 C97.9331586,77.1297361 98.2608234,76.6047876 98.9224093,76.4057773 C99.580867,76.206767 100.48957,76.1252825 100.168161,75.6598804 C100.168161,75.6598804 98.0277826,75.3590144 96.8954229,76.7027258 C96.3980605,77.2927052 96.2494774,77.5301072 96.183788,77.6303959 L96.2932703,79.243633 C96.2932703,79.243633 100.207262,79.0837979 101.496025,77.4110144 C102.784788,75.7374474 102.89427,76.0398804 102.784788,75.7374474" id="Fill-69" fill="#F9C478"></path>
                        <path d="M95.9695937,77.5481278 L90.2288117,77.5951381 C90.2288117,77.5951381 86.3859834,69.5422722 84.9752259,69.5422722 L81.7900733,69.5422722 L81.3419779,71.2322928 L79.6981796,77.0247464 L79.6981796,111.324252 L80.2080542,111.324252 L84.405136,111.324252 L86.3633049,111.324252 C86.3633049,111.324252 85.4029888,103.681942 86.2350542,100.618437 L86.2694629,100.488375 C87.5066128,90.0536536 85.699373,89.3054062 83.6152995,84.9781072 L85.6641823,76.6768701 L88.663215,81.0080866 C89.8847245,82.3956742 97.464027,79.3823134 97.464027,79.3823134 L96.1408553,77.7463546 L95.9695937,77.5481278 Z" id="Fill-70" fill="#E5541A"></path>
                        <path d="M95.1608324,63.4454268 C95.8458787,63.7133856 93.8118542,64.4553649 93.7055,67.6222928 C93.6828215,68.2804371 94.2130286,67.9615505 94.424173,67.3026227 C94.6345354,66.6460454 94.7322875,65.7371794 95.190549,66.0686021 C95.190549,66.0686021 95.4525245,68.2177567 94.0910341,69.3279835 C93.4935736,69.8153237 93.2534946,69.9594887 93.1526144,70.0237361 L91.5440068,69.8842722 C91.5440068,69.8842722 91.7739196,65.9667464 93.467767,64.7068701 C95.1608324,63.4454268 94.8613202,63.3310351 95.1608324,63.4454268" id="Fill-71" fill="#F9C478"></path>
                        <path d="M74.3866463,69.5420371 L77.433382,69.5420371 L79.6981014,77.0245113 L79.6981014,111.324016 L79.153818,111.324016 L74.9567362,111.324016 L72.9985673,111.324016 C72.9985673,111.324016 73.9588834,103.681707 73.126818,100.618202 L73.0924093,100.488924 C71.8552594,90.0542021 73.6617172,89.3051711 75.7465728,84.9786557 L73.6976899,76.6766351 C73.6976899,76.6766351 71.3453847,71.2320577 74.3866463,69.5420371" id="Fill-72" fill="#F26522"></path>
                        <path d="M81.3866311,56.4470804 C81.3866311,56.4470804 81.1590643,57.8887299 80.4974785,59.0302969 C80.6108708,59.3852247 80.8173232,59.7174309 81.1833068,59.9650186 C82.5870262,60.9122763 83.8632768,62.0076165 83.8632768,62.0076165 C83.8632768,62.0076165 84.541285,60.1569773 84.3371787,59.1666268 C84.1839035,58.4160289 83.4159635,57.3716165 82.579988,56.7996577 C82.1584812,56.5113278 81.7213341,56.3420907 81.335018,56.3945856 C81.3506583,56.4126062 81.3725548,56.4274928 81.3866311,56.4470804" id="Fill-73" fill="#891809"></path>
                        <path d="M79.6790202,60.0110887 L79.6790202,60.0103052 L79.6790202,55.9964082 C78.7484207,56.0504701 77.6489057,56.3756247 76.8434289,56.9891093 C76.4993417,57.2515835 76.2092136,57.5634186 76.0137095,57.9269649 C74.8508512,60.0784701 75.4037368,62.0536866 75.4037368,62.0536866 C75.4037368,62.0536866 75.4420556,62.040367 75.5007068,62.0192124 C76.0058894,61.8358722 78.5122518,60.9042845 79.6790202,60.0110887" id="Fill-74" fill="#A0210C"></path>
                        <path d="M80.4977131,59.0301402 C81.1592989,57.8885732 81.3868657,56.4469237 81.3868657,56.4469237 C81.3727894,56.4273361 81.3508929,56.4124495 81.3344706,56.3944289 C81.0545087,56.0786763 80.4187294,55.954099 79.679724,55.9964082 L79.679724,60.0103052 C80.0066068,59.7611505 80.2764025,59.4124907 80.4977131,59.0301402" id="Fill-75" fill="#A0210C"></path>
                        <path d="M75.6028381,69.7781072 L82.8810643,73.5616536 L91.6787482,68.6193031 L92.6992796,70.3093237 C92.6992796,70.3093237 85.0785302,77.1391381 83.0867346,77.0701897 C81.095721,77.0012412 73.3138763,74.6710969 73.3138763,74.6710969 C73.3138763,74.6710969 71.5199308,68.6091175 75.6028381,69.7781072" id="Fill-76" fill="#F6921E"></path>
                        <polygon id="Fill-77" fill="#363B5B" points="100.96488 50.9697526 94.6164708 64.7555258 95.9114899 65.3541237 102.259899 51.5683505"></polygon>
                        <polygon id="Fill-78" fill="#FFFFFF" points="96.4255093 60.8271093 95.6653894 62.4771711 97.4530787 62.005501 98.2131986 60.3554392"></polygon>
                        <polygon id="Fill-79" fill="#FFFFFF" points="98.5127109 56.294767 97.752591 57.9448289 99.5402804 57.4731588 100.3004 55.8230969"></polygon>
                        <polygon id="Fill-80" fill="#FFFFFF" points="100.308142 52.3967505 99.5472403 54.0468124 101.335712 53.5751423 102.095832 51.9250804"></polygon>
                        <polygon id="Fill-81" fill="#363B5B" points="112.492739 73.3103835 97.8189842 77.1009814 95.3282621 67.4215588 110.002017 63.6309608"></polygon>
                        <polygon id="Fill-82" fill="#363B5B" points="110.002408 63.6309608 95.3278711 67.4215588 94.9720537 66.0378887 109.645808 62.2472907"></polygon>
                        <path d="M96.9738591,66.9964289 L95.3284967,67.4210887 L94.6160798,64.6537485 L95.3949681,64.4523876 C95.5928183,64.4014598 95.8031807,64.4664907 95.9376875,64.6200577 L97.2460008,66.1126351 C97.5118864,66.4166351 97.3648673,66.8953567 96.9738591,66.9964289" id="Fill-83" fill="#616786"></path>
                        <path d="M95.6312935,65.1459464 C95.6539719,65.235266 95.6007948,65.3261526 95.511645,65.3488742 C95.4224951,65.3723794 95.3317812,65.3183175 95.3091027,65.2289979 C95.2864243,65.1396784 95.3396014,65.0487918 95.4279692,65.0260701 C95.5171191,65.0025649 95.608615,65.0566268 95.6312935,65.1459464" id="Fill-84" fill="#FFFFFF"></path>
                        <path d="M96.0253515,66.6762103 C96.04803,66.7655299 95.9940708,66.8564165 95.905703,66.8791381 C95.8157711,66.9026433 95.7250572,66.8485814 95.7023787,66.7592619 C95.6797003,66.6699423 95.7328774,66.5790557 95.8220272,66.556334 C95.9111771,66.5328289 96.001891,66.5868907 96.0253515,66.6762103" id="Fill-85" fill="#FFFFFF"></path>
                        <path d="M97.0731752,66.4053526 C97.0958537,66.4946722 97.0426766,66.5855588 96.9535267,66.6082804 C96.8643768,66.6317856 96.7736629,66.5777237 96.7509845,66.4884041 C96.728306,66.3990845 96.7814831,66.3081979 96.869851,66.2854763 C96.9590008,66.2619711 97.0504967,66.316033 97.0731752,66.4053526" id="Fill-86" fill="#FFFFFF"></path>
                        <polygon id="Fill-87" fill="#FFFFFF" points="99.5100946 66.3414969 97.7536858 66.7951464 98.5372662 65.1168784 100.293675 64.6632289"></polygon>
                        <polygon id="Fill-88" fill="#FFFFFF" points="104.334275 65.0950186 102.577866 65.548668 103.361447 63.8711835 105.117856 63.4167505"></polygon>
                        <polygon id="Fill-89" fill="#FFFFFF" points="108.483419 64.0234969 106.727011 64.4771464 107.509809 62.7996619 109.267 62.3452289"></polygon>
                        <polygon id="Fill-90" fill="#9FA8D6" points="110.126827 64.1156371 96.7168104 67.5802969 95.3013608 67.4290804 110.002486 63.6306474"></polygon>
                        <path d="M103.122306,67.3595052 C101.580952,67.7575258 100.651135,69.3378557 101.048399,70.8821443 C101.445663,72.4256495 103.02299,73.3588041 104.564344,72.96 C106.104917,72.5627629 107.035516,70.982433 106.638252,69.4373608 C106.240987,67.8938557 104.66366,66.9614845 103.122306,67.3595052 M104.646456,73.2835876 C102.928366,73.7270515 101.168829,72.6873402 100.726208,70.9651959 C100.282805,69.2430515 101.320541,67.4809485 103.040195,67.036701 C104.758284,66.5924536 106.517821,67.6321649 106.960443,69.3543093 C107.404628,71.0772371 106.365328,72.8393402 104.646456,73.2835876" id="Fill-91" fill="#9FA8D6"></path>
                        <polygon id="Fill-92" fill="#9FA8D6" points="105.265187 69.8932825 103.530675 71.6193443 102.913664 69.2226021"></polygon>
                        <path d="M176.356182,20.241699 L177.036537,20.165699 L177.885024,20.6405031 L177.048267,21.1693691 C176.821482,21.3127505 175.989417,21.459266 175.75794,21.3229361 L172.03476,18.6684206 C171.895561,18.5861526 171.84864,18.4067299 171.930752,18.267266 L171.93388,18.2617814 C172.01521,18.1223175 172.195073,18.0753072 172.33349,18.1575753 L175.596062,20.0787299 C175.825975,20.2134928 176.091861,20.2706887 176.356182,20.241699" id="Fill-93" fill="#141832"></path>
                        <path d="M152.543628,53.6198804 C152.553794,53.6026433 167.86411,28.5343959 169.129413,25.8806639 C170.123356,23.7965402 170.05923,22.7247052 169.94271,20.7792619 C169.906737,20.186932 169.866854,19.515468 169.848086,18.7029732 C169.766756,15.2610351 171.034405,14.8496948 171.424631,14.8050351 C171.742911,14.7697773 172.573413,15.2876742 172.866669,15.4898186 L172.962075,15.3503546 C172.849465,15.2720041 171.843792,14.5872206 171.40508,14.6373649 C170.858451,14.6992619 169.597059,15.2195093 169.678388,18.7068907 C169.698721,19.5225196 169.737822,20.1955505 169.773794,20.7894474 C169.893443,22.7701485 169.952094,23.763633 168.977702,25.8077979 C167.713963,28.4560454 152.405993,53.5188082 152.396609,53.5368289 L152.543628,53.6198804 Z" id="Fill-94" fill="#363B5B"></path>
                        <path d="M181.089493,17.7308784 L186.467419,21.6484041 C186.731741,21.8411464 186.742689,22.3222186 186.493226,22.7484454 L186.159305,23.3172701 L178.661332,18.9006515 L179.320572,17.7747546 C179.595059,17.3077856 180.800147,17.5201155 181.089493,17.7308784" id="Fill-95" fill="#404766"></path>
                        <path d="M185.827417,23.8837443 C185.577172,24.3099711 185.152537,24.5348371 184.856153,24.3969402 L178.822114,21.5959093 C178.497578,21.4446928 177.72651,20.4935175 178.000215,20.0265485 L178.661019,18.9006515 L186.159774,23.3172701 L185.827417,23.8837443 Z" id="Fill-96" fill="#363B5B"></path>
                        <polygon id="Fill-97" fill="#272B4C" points="174.133848 15.3876495 174.074415 15.3633608 174.094747 15.3281031 178.972965 18.200433 178.587431 18.8577938 173.74675 16.0066186"></polygon>
                        <polygon id="Fill-98" fill="#141832" points="173.746594 16.0062268 178.587275 18.8574021 178.202523 19.5139794 173.325087 16.6416495 173.342291 16.6110928 173.359496 16.6244124"></polygon>
                        <path d="M171.980957,14.9664371 L171.993469,14.9452825 C172.113118,14.7407876 172.365709,14.6561691 172.584674,14.7462722 L174.074415,15.3628907 L173.709995,15.9849938 L171.980957,14.9664371 Z" id="Fill-99" fill="#404766"></path>
                        <path d="M173.709995,15.9848371 L173.342448,16.6108577 L172.083401,15.593868 C171.90041,15.4457856 171.852707,15.1848784 171.971573,14.981167 L171.980957,14.9662804 L173.709995,15.9848371 Z" id="Fill-100" fill="#363B5B"></path>
                        <polygon id="Fill-101" fill="#231F20" points="173.746594 16.0062268 173.709839 15.9850722 174.074259 15.3629691 174.133692 15.3872577"></polygon>
                        <polygon id="Fill-102" fill="#231F20" points="173.746594 16.0062268 173.359496 16.6244124 173.342291 16.6110928 173.709839 15.9850722"></polygon>
                        <polygon id="Fill-103" fill="#404766" points="176.940349 20.3300784 177.848269 20.6191918 179.858834 17.1913567 178.886787 17.0111505"></polygon>
                        <path d="M173.871873,19.3824289 L174.527202,19.7679134 L177.062499,15.446099 L176.397004,15.0543464 C176.094363,14.8757072 175.704137,15.0057691 175.568066,15.3309237 L173.871873,19.3824289 Z" id="Fill-104" fill="#404766"></path>
                        <path d="M173.546554,22.6499588 C173.918794,22.8693402 174.043134,23.3496289 173.82417,23.7225773 L173.462096,24.3407629 C173.24235,24.7137113 172.762974,24.8382887 172.390734,24.6196907 L172.063851,24.4269485 L173.219671,22.4572165 L173.546554,22.6499588 Z" id="Fill-105" fill="#F6921E"></path>
                        <path d="M172.892866,22.265101 L173.219749,22.4578433 L172.063929,24.4267918 L171.737046,24.234833 C171.364807,24.0154515 171.240466,23.5351629 171.459431,23.1622144 L171.822286,22.5432454 C172.040469,22.1702969 172.519845,22.0457196 172.892866,22.265101" id="Fill-106" fill="#F16522"></path>
                        <polygon id="Fill-107" fill="#272B4C" points="152.469493 53.3287299 152.469493 87.3837814 153.545547 87.3837814 153.545547 53.6789567 175.119032 20.5163175 174.077387 19.8989155 152.593051 53.2464619 152.620422 53.3287299"></polygon>
                        <polygon id="Fill-108" fill="#272B4C" points="150.018106 88.5760412 155.993493 88.5760412 155.993493 87.2213608 150.018106 87.2213608"></polygon>
                        <path d="M209.662102,46.7492454 L143.599707,46.7492454 C141.164508,46.7492454 139.190699,48.7275959 139.190699,51.1674309 L139.190699,105.097658 L214.071892,105.097658 L214.071892,51.1674309 C214.071892,48.7275959 212.097301,46.7492454 209.662102,46.7492454 L209.662102,46.7492454 Z M209.662102,48.0467299 C211.37941,48.0467299 212.776873,49.4468536 212.776873,51.1674309 L212.776873,103.800173 L140.484936,103.800173 L140.484936,51.1674309 C140.484936,49.4468536 141.882399,48.0467299 143.599707,48.0467299 L209.662102,48.0467299 Z" id="Fill-109" fill="#363B5B"></path>
                        <polygon id="Fill-110" fill="#363B5B" points="140.053654 57.7936907 212.777264 57.7936907 212.777264 56.4969897 140.053654 56.4969897"></polygon>
                        <polygon id="Fill-111" fill="#363B5B" points="140.053654 72.9114227 212.777264 72.9114227 212.777264 71.6147216 140.053654 71.6147216"></polygon>
                        <polygon id="Fill-112" fill="#363B5B" points="140.053654 88.0299381 212.777264 88.0299381 212.777264 86.7332371 140.053654 86.7332371"></polygon>
                        <polygon id="Fill-113" fill="#4CB64A" points="143.074583 105.097814 210.187226 105.097814 210.187226 46.7494021 143.074583 46.7494021"></polygon>
                        <polygon id="Fill-114" fill="#141832" points="121.704422 105.433155 122.971289 105.433155 122.971289 65.3521649 121.704422 65.3521649"></polygon>
                        <polygon id="Fill-115" fill="#141832" points="117.601104 110.969872 116.704914 110.072759 122.303369 103.274285 123.01735 104.481666"></polygon>
                        <polygon id="Fill-116" fill="#141832" points="127.074607 110.969872 127.970798 110.072759 122.372343 103.274285 121.613005 104.362573"></polygon>
                        <polygon id="Fill-117" fill="#141832" points="115.85103 110.985072 119.11673 110.985072 119.11673 109.736165 115.85103 109.736165"></polygon>
                        <polygon id="Fill-118" fill="#141832" points="125.558199 110.985072 128.823899 110.985072 128.823899 109.736165 125.558199 109.736165"></polygon>
                        <polygon id="Fill-119" fill="#231F20" points="119.603144 62.625567 125.30248 62.625567 125.30248 48.2897732 119.603144 48.2897732"></polygon>
                        <path d="M119.919079,62.3090309 L124.988109,62.3090309 L124.988109,48.6047423 L119.919079,48.6047423 L119.919079,62.3090309 Z M119.287992,62.9413196 L125.618414,62.9413196 L125.618414,47.9732371 L119.287992,47.9732371 L119.287992,62.9413196 Z" id="Fill-120" fill="#141832"></path>
                        <polygon id="Fill-121" fill="#231F20" points="115.298926 58.3123711 129.60748 58.3123711 129.60748 52.6021856 115.298926 52.6021856"></polygon>
                        <path d="M115.614079,57.9966186 L129.292327,57.9966186 L129.292327,52.9179381 L115.614079,52.9179381 L115.614079,57.9966186 Z M114.983774,58.6281237 L129.923414,58.6281237 L129.923414,52.2856495 L114.983774,52.2856495 L114.983774,58.6281237 Z" id="Fill-122" fill="#141832"></path>
                        <path d="M116.999265,55.3681938 C116.999265,52.4159464 119.396145,50.0145031 122.342782,50.0145031 C125.290202,50.0145031 127.6863,52.4159464 127.6863,55.3681938 C127.6863,58.3204412 125.290202,60.7218845 122.342782,60.7218845 C119.396145,60.7218845 116.999265,58.3204412 116.999265,55.3681938 Z" id="Fill-123" fill="#FBB03A"></path>
                        <path d="M122.342782,49.4195876 C119.06457,49.4195876 116.405714,52.0827216 116.405714,55.3679588 C116.405714,58.6531959 119.06457,61.3163299 122.342782,61.3163299 C125.621777,61.3163299 128.280632,58.6531959 128.280632,55.3679588 C128.280632,52.0827216 125.621777,49.4195876 122.342782,49.4195876 M122.342782,50.609732 C124.962537,50.609732 127.09275,52.744 127.09275,55.3679588 C127.09275,57.9919175 124.962537,60.1269691 122.342782,60.1269691 C119.72381,60.1269691 117.593597,57.9919175 117.593597,55.3679588 C117.593597,52.744 119.72381,50.609732 122.342782,50.609732" id="Fill-124" fill="#363B5B"></path>
                        <path d="M118.929125,55.7101938 C118.739877,55.7101938 118.587383,55.5566268 118.587383,55.3678021 C118.587383,53.2930804 120.271847,51.6054103 122.342626,51.6054103 C122.531092,51.6054103 122.685149,51.7581938 122.685149,51.9470186 C122.685149,52.1358433 122.531092,52.2894103 122.342626,52.2894103 C120.648778,52.2894103 119.270866,53.6699464 119.270866,55.3678021 C119.270866,55.5566268 119.11759,55.7101938 118.929125,55.7101938" id="Fill-125" fill="#FFCF9F"></path>
                        <polygon id="Fill-126" fill="#272B4C" points="122.45813 43.6641938 122.443271 49.1369773 118.702887 49.1369773 117.515786 47.8363588 117.555669 47.8363588 118.981285 43.6641938"></polygon>
                        <polygon id="Fill-127" fill="#272B4C" points="122.45813 43.6641938 122.472206 49.1369773 126.21259 49.1369773 127.399691 47.8363588 127.359808 47.8363588 125.934192 43.6641938"></polygon>
                        <polygon id="Fill-128" fill="#272B4C" points="134.024934 55.4829773 128.562549 55.4680907 128.562549 51.7213691 129.860696 50.5312247 129.860696 50.571967 134.024934 51.9995134"></polygon>
                        <polygon id="Fill-129" fill="#272B4C" points="134.024934 55.4829773 128.562549 55.4970804 128.562549 59.2445856 129.860696 60.4347299 129.860696 60.3939876 134.024934 58.9664412"></polygon>
                        <polygon id="Fill-130" fill="#272B4C" points="122.228217 67.0718021 122.243075 61.5990186 125.983459 61.5990186 127.17056 62.8996371 127.130677 62.8996371 125.705062 67.0718021"></polygon>
                        <polygon id="Fill-131" fill="#272B4C" points="122.228217 67.0718021 122.214141 61.5990186 118.473756 61.5990186 117.286656 62.8996371 117.326538 62.8996371 118.752154 67.0718021"></polygon>
                        <polygon id="Fill-132" fill="#272B4C" points="110.661413 55.2534103 116.123797 55.2675134 116.123797 59.0150186 114.82565 60.2043794 114.82565 60.1644206 110.661413 58.7368742"></polygon>
                        <polygon id="Fill-133" fill="#272B4C" points="110.661413 55.2534103 116.123797 55.2385237 116.123797 51.4910186 114.82565 50.3016577 114.82565 50.3416165 110.661413 51.7699464"></polygon>
                        <path d="M210.177607,10.279901 L209.013967,10.1506227 L207.563327,10.9631175 L208.994417,11.866499 C209.382297,12.1117361 210.805566,12.3616742 211.201267,12.1289732 L217.569226,7.58934433 C217.807741,7.44909691 217.886725,7.14196289 217.747526,6.90299381 L217.742051,6.89437526 C217.602071,6.65540619 217.29552,6.57548866 217.057005,6.71573608 L211.476537,10.0017567 C211.084746,10.2321072 210.628831,10.3292619 210.177607,10.279901" id="Fill-134" fill="#141832"></path>
                        <path d="M250.904315,67.3656165 C250.887893,67.3350598 224.702075,24.4632247 222.537454,19.9243794 C220.838132,16.3602144 220.946833,14.5275959 221.147029,11.199266 C221.207244,10.1861938 221.276844,9.03835876 221.308906,7.64842062 C221.447323,1.76194639 219.281138,1.05835876 218.613296,0.981575258 C218.068231,0.920461856 216.647307,1.80660619 216.146034,2.15369897 L215.982593,1.9147299 C216.176533,1.78075052 217.896187,0.608626804 218.646141,0.694028866 C219.579868,0.800585567 221.738233,1.69064742 221.59747,7.65625567 C221.564626,9.05011134 221.49659,10.2018639 221.434811,11.2172866 C221.232269,14.6035959 221.130607,16.3030186 222.798647,19.7990186 C224.957795,24.3284619 251.13892,67.1932454 251.155342,67.2230186 L250.904315,67.3656165 Z" id="Fill-135" fill="#363B5B"></path>
                        <path d="M202.083269,5.98597938 L192.884411,12.6865155 C192.432405,13.0155876 192.413637,13.8390515 192.8414,14.5677113 L193.41149,15.5400412 L206.236558,7.98626804 L205.107326,6.06119588 C204.638898,5.26280412 202.578285,5.62556701 202.083269,5.98597938" id="Fill-136" fill="#404766"></path>
                        <path d="M193.979781,16.5089237 C194.407544,17.2375835 195.134819,17.621501 195.641566,17.3864495 L205.959489,12.5953155 C206.515503,12.3375423 207.834765,10.7102021 207.366337,9.91181031 L206.236323,7.98595464 L193.411255,15.5397278 L193.979781,16.5089237 Z" id="Fill-137" fill="#363B5B"></path>
                        <polygon id="Fill-138" fill="#272B4C" points="213.979223 1.97811546 214.080104 1.93658969 214.045695 1.8770433 205.702362 6.78962062 206.361602 7.91316701 214.641591 3.03584742"></polygon>
                        <polygon id="Fill-139" fill="#141832" points="214.641357 3.03592577 206.361368 7.91324536 207.019825 9.03522474 215.362376 4.12264742 215.332659 4.07093608 215.303725 4.09365773"></polygon>
                        <path d="M217.660956,1.25776082 L217.640624,1.22250309 C217.434172,0.871492784 217.002499,0.72654433 216.627913,0.881678351 L214.080104,1.93627629 L214.704153,2.99949278 L217.660956,1.25776082 Z" id="Fill-140" fill="#404766"></path>
                        <path d="M214.703996,2.99925773 L215.332737,4.07109278 L217.485628,2.33092784 C217.799217,2.07785567 217.880547,1.63125773 217.67644,1.28338144 L217.6608,1.25752577 L214.703996,2.99925773 Z" id="Fill-141" fill="#363B5B"></path>
                        <polygon id="Fill-142" fill="#231F20" points="214.641357 3.03592577 214.703918 2.99910103 214.079869 1.93666804 213.978989 1.97819381"></polygon>
                        <polygon id="Fill-143" fill="#231F20" points="214.641357 3.03592577 215.303725 4.09365773 215.332659 4.07093608 214.703918 2.99910103"></polygon>
                        <polygon id="Fill-144" fill="#404766" points="209.17866 10.4314309 207.626357 10.9258227 204.186267 5.0620701 205.848834 4.75493608"></polygon>
                        <path d="M214.426771,8.81043711 L213.30536,9.47014845 L208.969079,2.07777732 L210.107695,1.40788041 C210.626172,1.10309691 211.293232,1.32561237 211.526273,1.88111753 L214.426771,8.81043711 Z" id="Fill-145" fill="#404766"></path>
                        <path d="M214.983489,14.3987093 C214.34771,14.7740082 214.134219,15.5951216 214.508805,16.2328948 L215.128944,17.2906268 C215.502748,17.9291835 216.323083,18.1422969 216.959644,17.7677814 L217.518786,17.4379258 L215.542631,14.0696371 L214.983489,14.3987093 Z" id="Fill-146" fill="#F6921E"></path>
                        <path d="M216.101538,13.7406433 L215.542396,14.0697155 L217.518551,17.4380041 L218.077693,17.108932 C218.715036,16.7344165 218.927745,15.9125196 218.553159,15.2747464 L217.93302,14.2170144 C217.558434,13.5784577 216.738099,13.3653443 216.101538,13.7406433" id="Fill-147" fill="#F16522"></path>
                        <polygon id="Fill-148" fill="#272B4C" points="251.030298 66.8675423 251.030298 125.110965 249.189431 125.110965 249.189431 67.4669237 212.294682 10.7497691 214.076115 9.69282062 250.819153 66.7265113 250.772232 66.8675423"></polygon>
                        <polygon id="Fill-149" fill="#272B4C" points="245.004158 127.150351 255.223548 127.150351 255.223548 124.833526 245.004158 124.833526"></polygon>
                        <polygon id="Fill-150" fill="#272B4C" points="202.299809 139.487423 207.416542 139.487423 207.416542 137.997979 202.299809 137.997979"></polygon>
                        <polygon id="Fill-151" fill="#272B4C" points="222.569673 139.487423 227.686406 139.487423 227.686406 137.997979 222.569673 137.997979"></polygon>
                        <path d="M229.131572,121.26607 C220.065657,125.670153 209.922123,125.670153 200.856207,121.26607 L200.856207,119.748421 C210.194264,121.403967 219.792733,121.403967 229.131572,119.748421 L229.131572,121.26607 Z" id="Fill-152" fill="#272B4C"></path>
                        <polygon id="Fill-153" fill="#141832" points="203.398542 120.438845 205.074403 120.438845 205.074403 106.952371 203.398542 106.952371"></polygon>
                        <polygon id="Fill-154" fill="#141832" points="224.911812 120.438845 226.587673 120.438845 226.587673 106.952371 224.911812 106.952371"></polygon>
                        <path d="M226.587673,108.247505 C218.905926,109.466639 211.081071,109.466639 203.399324,108.247505 L203.399324,96.0381443 C211.081071,97.2572784 218.905926,97.2572784 226.587673,96.0381443 L226.587673,108.247505 Z" id="Fill-155" fill="#272B4C"></path>
                        <polygon id="Fill-156" fill="#272B4C" points="200.968817 120.909732 202.655627 120.909732 202.655627 112.212825 200.968817 112.212825"></polygon>
                        <polygon id="Fill-157" fill="#5C5F6D" points="198.697842 113.460948 205.122888 113.460948 205.122888 111.835959 198.697842 111.835959"></polygon>
                        <polygon id="Fill-158" fill="#272B4C" points="226.977977 138.743014 224.652261 138.743014 201.905751 123.241365 204.230686 123.241365"></polygon>
                        <polygon id="Fill-159" fill="#363B5B" points="199.759038 123.241443 204.656025 123.241443 204.656025 118.714351 199.759038 118.714351"></polygon>
                        <polygon id="Fill-160" fill="#272B4C" points="227.331371 120.909732 229.01818 120.909732 229.01818 112.212825 227.331371 112.212825"></polygon>
                        <polygon id="Fill-161" fill="#5C5F6D" points="224.864109 113.460948 231.289155 113.460948 231.289155 111.835959 224.864109 111.835959"></polygon>
                        <polygon id="Fill-162" fill="#272B4C" points="203.008863 138.743014 205.33458 138.743014 228.081872 123.241365 225.756155 123.241365"></polygon>
                        <polygon id="Fill-163" fill="#363B5B" points="225.330973 123.241443 230.228741 123.241443 230.228741 118.714351 225.330973 118.714351"></polygon>
                        <path d="M207.555116,104.58979 C207.897639,104.603893 208.063426,104.393913 208.063426,103.99746 L208.063426,101.766821 C208.063426,101.370367 207.897639,101.147852 207.549641,101.132965 C207.377598,101.125913 207.207118,101.118862 207.035857,101.111027 L207.035857,104.567068 C207.209464,104.574903 207.381508,104.582738 207.555116,104.58979 M207.562154,100.693419 C208.228432,100.720841 208.5342,101.140016 208.5342,101.80913 L208.5342,103.995893 C208.5342,104.658738 208.228432,105.057542 207.562154,105.03012 C207.227451,105.016016 206.892748,105.00113 206.558827,104.98546 L206.558827,100.649542 C206.892748,100.665212 207.227451,100.680099 207.562154,100.693419" id="Fill-164" fill="#FBB03A"></path>
                        <path d="M209.457449,100.762524 L209.457449,105.099225 C209.298699,105.09374 209.13995,105.088256 208.980419,105.083555 L208.980419,100.746854 C209.13995,100.752338 209.298699,100.757823 209.457449,100.762524" id="Fill-165" fill="#FBB03A"></path>
                        <path d="M210.779369,102.842965 C211.158647,102.852367 211.385432,102.732491 211.385432,102.261604 L211.385432,101.84713 C211.385432,101.456161 211.244669,101.249315 210.889633,101.24148 C210.734012,101.237563 210.579173,101.233645 210.424334,101.229728 L210.424334,102.834346 C210.542418,102.83748 210.661284,102.840614 210.779369,102.842965 M210.901363,100.801934 C211.575462,100.816821 211.856987,101.167831 211.856987,101.812656 L211.856987,102.165233 C211.856987,102.642388 211.6912,102.936986 211.323652,103.04746 C211.715443,103.172821 211.863244,103.497192 211.863244,103.96181 L211.863244,104.637192 C211.863244,104.829151 211.8695,105.008573 211.948483,105.159006 C211.787388,105.155872 211.626293,105.153522 211.465197,105.149604 C211.410456,105.025027 211.385432,104.912986 211.385432,104.622305 L211.385432,103.940656 C211.385432,103.450965 211.158647,103.291913 210.761383,103.282511 C210.648772,103.279377 210.536162,103.277027 210.424334,103.273893 L210.424334,105.126099 C210.265584,105.122181 210.106053,105.11748 209.947304,105.113563 L209.947304,100.776862 C210.265584,100.786264 210.583865,100.794099 210.901363,100.801934" id="Fill-166" fill="#FBB03A"></path>
                        <path d="M213.883035,102.765711 L213.883035,103.19899 C213.534256,103.197423 213.184695,103.193505 212.835916,103.189588 L212.835916,104.732309 C213.26446,104.73701 213.693005,104.740928 214.12155,104.743278 L214.12155,105.182825 C213.534256,105.180474 212.94618,105.174206 212.358104,105.165588 L212.358104,100.828887 C212.94618,100.838289 213.534256,100.843773 214.12155,100.846907 L214.12155,101.286454 C213.693005,101.284103 213.26446,101.280969 212.835916,101.275485 L212.835916,102.756309 C213.184695,102.760227 213.534256,102.763361 213.883035,102.765711" id="Fill-167" fill="#FBB03A"></path>
                        <path d="M216.452819,101.889988 L216.452819,102.280173 C216.302672,102.28174 216.150961,102.282524 216.000032,102.283307 L216.000032,101.868833 C216.000032,101.477864 215.847539,101.243596 215.497977,101.245163 C215.155454,101.245946 214.996705,101.480998 214.996705,101.871184 L214.996705,104.162936 C214.996705,104.553122 215.155454,104.788957 215.497977,104.788173 C215.847539,104.78739 216.000032,104.550771 216.000032,104.160586 L216.000032,103.596462 C216.150961,103.595678 216.302672,103.594895 216.452819,103.593328 L216.452819,104.132379 C216.452819,104.788957 216.147051,105.226153 215.486247,105.22772 C214.830917,105.229287 214.524367,104.794441 214.524367,104.137864 L214.524367,101.895472 C214.524367,101.238111 214.830917,100.8064 215.486247,100.804833 C216.147051,100.803266 216.452819,101.23341 216.452819,101.889988" id="Fill-168" fill="#FBB03A"></path>
                        <path d="M217.511278,105.16786 L217.511278,101.271489 C217.248521,101.275406 216.984981,101.27854 216.721442,101.280891 L216.721442,100.841344 C217.40727,100.834293 218.093099,100.824107 218.778927,100.809221 L218.778927,101.249551 C218.515387,101.255035 218.251848,101.259736 217.98909,101.264437 L217.98909,105.160808 C217.829559,105.163159 217.67081,105.166293 217.511278,105.16786" id="Fill-169" fill="#FBB03A"></path>
                        <path d="M219.542722,104.10621 C219.542722,104.502664 219.70851,104.72753 220.051033,104.718128 C220.399812,104.708726 220.559344,104.474458 220.559344,104.078004 L220.559344,101.785468 C220.559344,101.395282 220.399812,101.164932 220.051033,101.175118 C219.70851,101.18452 219.542722,101.424272 219.542722,101.814458 L219.542722,104.10621 Z M219.071166,101.850499 C219.071166,101.18687 219.396485,100.753592 220.051033,100.735571 C220.711837,100.716767 221.036374,101.132025 221.036374,101.79487 L221.036374,104.038045 C221.036374,104.693839 220.711837,105.139654 220.051033,105.158458 C219.396485,105.176478 219.071166,104.749468 219.071166,104.092891 L219.071166,101.850499 Z" id="Fill-170" fill="#FBB03A"></path>
                        <path d="M222.32021,102.745027 C222.699488,102.729357 222.926272,102.595377 222.926272,102.124491 L222.926272,101.709233 C222.926272,101.319047 222.78551,101.121604 222.431256,101.135707 C222.275635,101.142759 222.120796,101.148243 221.965956,101.154511 L221.965956,102.75913 C222.084041,102.754429 222.202125,102.749728 222.32021,102.745027 M222.442986,100.695377 C223.116302,100.667171 223.397046,101.000161 223.397046,101.644986 L223.397046,101.997563 C223.397046,102.474718 223.232041,102.779501 222.864493,102.91348 C223.256283,103.014553 223.403302,103.329522 223.403302,103.793357 L223.403302,104.468738 C223.403302,104.66148 223.409559,104.84012 223.489324,104.985068 C223.328229,104.992903 223.167134,104.999955 223.006038,105.00779 C222.951297,104.885563 222.926272,104.775872 222.926272,104.484408 L222.926272,103.803542 C222.926272,103.313852 222.699488,103.168903 222.302223,103.185357 C222.189613,103.189274 222.077003,103.193975 221.965956,103.198676 L221.965956,105.050882 C221.806425,105.057151 221.647676,105.062635 221.488926,105.068903 L221.488926,100.732986 C221.806425,100.721233 222.124706,100.708697 222.442986,100.695377" id="Fill-171" fill="#FBB03A"></path>
                        <path d="M249.102002,74.8930639 L258.438495,78.5167753 C258.438495,78.5167753 266.032656,76.127868 266.72474,75.7557031 C267.714773,75.2229196 268.90031,75.2135175 269.905983,75.7173113 L269.920059,75.7243629 C269.920059,75.7243629 270.16874,75.9280742 270.298555,76.0338474 C271.541961,77.0484866 271.520065,78.3929814 270.110089,79.1592495 C265.587689,81.6178887 258.261759,82.128734 258.261759,82.128734 C257.604084,82.2893526 249.640811,78.4517443 249.640811,78.4517443 L249.102002,74.8930639 Z" id="Fill-172" fill="#7496B3"></path>
                        <path d="M246.703245,77.0767711 C246.687605,76.974132 246.681349,76.8722763 246.683695,76.7719876 C246.691515,76.2869979 246.897185,75.837266 247.231106,75.5136784 C247.372651,75.3757814 247.538438,75.2613897 247.722212,75.1759876 C247.873923,75.1054722 248.036583,75.0545443 248.210972,75.0279052 L249.101689,74.8931423 L249.64128,78.4510392 L248.747436,78.5865856 C248.627005,78.6046062 248.508139,78.6108742 248.390054,78.6046062 C248.203152,78.5952041 248.022507,78.5575959 247.852809,78.494132 C247.261605,78.2724 246.804907,77.7458845 246.703245,77.0767711" id="Fill-173" fill="#EECA93"></path>
                        <path d="M263.967194,125.501464 L267.739641,125.501464 C268.543554,125.501464 268.326935,122.604845 268.634268,122.256186 L269.959786,125.80468 C270.27963,126.45734 269.343557,127.093546 268.061832,127.093546 L264.290167,127.093546 C263.207856,127.093546 262.330434,127.20167 262.330434,126.632062 L262.330434,125.751402 C262.676867,126.044433 263.264944,125.501464 263.967194,125.501464" id="Fill-174" fill="#0A2138"></path>
                        <path d="M268.896791,123.6368 L269.517712,124.902944 C269.210379,125.250821 268.543319,125.501542 267.740189,125.501542 C267.740189,125.501542 262.676633,126.044511 262.330981,125.75148 L268.896791,123.6368 Z" id="Fill-175" fill="#05101C"></path>
                        <path d="M267.776474,124.625035 L267.846856,124.624252 C269.78,124.593695 270.436112,122.996911 270.400921,121.060087 L270.766123,98.1942722 C271.031226,94.8040454 264.470109,93.5034268 264.470109,93.5034268 L262.896692,104.037654 L263.346351,121.216788 C263.396401,123.135592 265.862098,124.654808 267.776474,124.625035" id="Fill-176" fill="#21618B"></path>
                        <path d="M270.350872,69.6897278 C270.350872,69.6897278 270.07482,73.133233 271.775706,77.4863876 C272.517839,79.3848206 270.654294,91.5730268 270.654294,91.5730268 L265.113708,91.5730268 C265.113708,91.5730268 264.320744,83.3164495 264.495134,80.9847381 C264.865809,76.0329856 266.79739,75.6271299 267.562984,74.2301402 C267.777256,73.8383876 266.572951,69.565934 266.572951,69.565934 L270.350872,69.6897278 Z" id="Fill-177" fill="#EAA563"></path>
                        <path d="M271.502469,76.0786639 C270.837755,73.0598186 266.321611,73.4319835 264.761488,76.0786639 C262.305175,80.2445608 262.934698,79.9209732 262.989439,84.9957361 C263.275657,88.9884784 263.873118,98.1946639 263.873118,98.1946639 L270.766592,98.1946639 C270.766592,98.1946639 271.636194,94.5975918 270.77363,90.4967258 C270.552319,89.4460454 273.103257,83.3488082 271.502469,76.0786639" id="Fill-178" fill="#21618B"></path>
                        <path d="M251.780251,66.7971052 L258.79963,73.9512907 C258.79963,73.9512907 266.701123,74.908734 267.484704,74.8546722 C268.606115,74.7778887 269.68999,75.2581773 270.399279,76.1325691 L270.408663,76.1443216 C270.408663,76.1443216 270.552554,76.4326515 270.627628,76.5830845 C271.343172,78.0208165 270.769954,79.236033 269.170731,79.3527753 C264.03914,79.7272907 257.153486,77.1699299 257.153486,77.1699299 C256.487208,77.0453526 250.809769,70.2617649 250.809769,70.2617649 L251.780251,66.7971052 Z" id="Fill-179" fill="#7496B3"></path>
                        <path d="M248.69723,67.7971711 C248.725383,67.697666 248.760574,67.6012948 248.804366,67.5111918 C249.010819,67.0732124 249.383059,66.7480577 249.820988,66.5897897 C250.006326,66.5239753 250.204176,66.487934 250.4075,66.4855835 C250.573287,66.4840165 250.742985,66.5043876 250.912683,66.5521814 L251.779939,66.7974186 L250.809456,70.2620784 L249.939854,70.0168412 C249.82177,69.983934 249.710723,69.9392742 249.605933,69.8859959 C249.439364,69.8005938 249.290781,69.6909031 249.161748,69.5624082 C248.713653,69.1173773 248.514238,68.4490474 248.69723,67.7971711" id="Fill-180" fill="#EECA93"></path>
                        <path d="M267.036452,64.7920371 C267.490804,63.4655629 269.61085,62.4438722 271.092771,62.9531505 L271.697269,63.1607794 C273.178408,63.6700577 274.828463,65.9853155 274.374893,67.3117897 L272.600498,70.7882021 C271.870877,72.219666 267.548673,71.7762021 265.77506,71.6751299 L265.768022,71.687666 L265.772714,71.6751299 C264.309561,70.6651918 265.90722,68.3178103 266.206733,66.7374804 L267.036452,64.7920371 Z" id="Fill-181" fill="#FCCA9B"></path>
                        <path d="M266.003956,68.3610598 L266.845405,65.9024206 L265.114021,67.3260495 C264.894275,67.6073278 265.017051,68.0218021 265.3541,68.1377608 L266.003956,68.3610598 Z" id="Fill-182" fill="#FCCA9B"></path>
                        <path d="M268.240757,63.054066 C268.240757,63.054066 266.985621,63.4191794 267.648771,64.350767 C268.313485,65.2815711 269.49824,65.1264371 269.251904,65.9326639 C268.597357,68.074767 269.619452,69.3879216 269.54125,69.6174887 C269.494329,69.7546021 270.066765,70.3610351 269.972923,71.3639216 C269.92131,71.9076742 270.48749,72.2947258 270.970776,72.0440041 C272.268923,71.3678392 273.715654,71.8481278 274.648599,69.1191794 L274.733057,68.8739423 C275.558084,66.4623134 274.275577,63.8375711 271.869313,63.0109732 L271.525226,62.8926639 C269.884556,62.3293237 268.240757,63.054066 268.240757,63.054066" id="Fill-183" fill="#082238"></path>
                        <path d="M268.950202,66.5036825 C269.189499,65.9842186 269.782268,65.7170433 270.335153,65.9066515 C270.924012,66.1095794 270.898205,66.6588165 270.695663,67.2495794 C270.594001,67.5488784 269.610224,68.4702804 269.30602,68.3652907 L268.402791,67.9946928 L268.621756,66.7481361 L268.950202,66.5036825 Z" id="Fill-184" fill="#FCCA9B"></path>
                        <path d="M268.537063,62.7781938 L273.249494,71.4594309 L274.101892,70.9948124 C276.461235,69.7098639 277.341785,66.7239258 276.058496,64.3608742 L276.011575,64.2739052 C274.728287,61.9100701 271.748022,61.0278433 269.389461,62.3135753 L268.537063,62.7781938 Z" id="Fill-185" fill="#3D4B63"></path>
                        <path d="M274.751982,74.8341443 C274.751982,74.8341443 274.528325,75.1036701 273.822164,74.4541443 C273.181693,73.8649485 273.083941,72.9654845 272.983061,72.7124124 C272.882181,72.4601237 272.545914,70.1621031 272.545914,70.1621031 L273.972311,71.0976082 L274.751982,74.8341443 Z" id="Fill-186" fill="#3D4B63"></path>
                        <path d="M186.083214,113.404614 C185.88771,113.443006 185.641375,113.460243 185.38722,113.400697 C184.816348,113.267501 182.308422,113.400697 181.569416,113.516656 C180.837449,113.631047 179.708217,113.267501 179.463446,113.009728 C179.393065,113.117068 179.417307,113.339584 179.513495,113.449274 C179.741062,113.709398 180.850743,114.315047 181.569416,114.107419 C182.402263,113.866099 184.842937,113.938965 185.38722,114.107419 C185.636683,114.184986 185.88771,114.145027 186.083214,114.107419 C186.317037,114.061975 186.467966,113.482965 186.428084,113.24713 L186.428084,112.897687 C186.379599,113.041068 186.241182,113.373274 186.083214,113.404614" id="Fill-187" fill="#25B8C1"></path>
                        <path d="M186.032071,110.933596 L183.91046,110.707163 C183.91046,110.707163 182.373016,111.758627 182.164218,111.837761 C181.954637,111.916895 179.782196,112.495905 179.782196,112.495905 C179.782196,112.495905 179.285616,112.839864 179.513182,113.099988 C179.51631,113.102338 179.52022,113.105472 179.522566,113.107823 C179.766556,113.365596 180.837136,113.631204 181.569103,113.516812 C182.308109,113.400854 184.816035,113.267658 185.387689,113.400854 C185.641062,113.4604 185.887398,113.443163 186.082902,113.404771 C186.241651,113.373431 186.356607,113.256689 186.405874,113.112524 C186.428553,113.045142 186.441065,112.97306 186.428553,112.89706 L186.235395,111.760977 L186.032071,110.933596 Z" id="Fill-188" fill="#3A8F9B"></path>
                        <path d="M195.365123,113.404614 C195.170401,113.443006 194.924848,113.460243 194.670692,113.400697 C194.09982,113.267501 191.59033,113.400697 190.851325,113.516656 C190.120139,113.631047 188.990126,113.267501 188.746137,113.009728 C188.674973,113.117068 188.699216,113.339584 188.796186,113.449274 C189.023752,113.709398 190.132651,114.315047 190.851325,114.107419 C191.685736,113.866099 194.125627,113.938965 194.670692,114.107419 C194.919374,114.184986 195.170401,114.145027 195.365123,114.107419 C195.598946,114.061975 195.751439,113.482965 195.710774,113.24713 L195.710774,112.897687 C195.662289,113.041068 195.524654,113.373274 195.365123,113.404614" id="Fill-189" fill="#25B8C1"></path>
                        <path d="M195.313979,110.933596 L193.193151,110.707163 C193.193151,110.707163 191.655707,111.758627 191.446908,111.837761 C191.237328,111.916895 189.064886,112.495905 189.064886,112.495905 C189.064886,112.495905 188.567524,112.839864 188.795873,113.099988 C188.798219,113.102338 188.802129,113.105472 188.805257,113.107823 C189.049246,113.365596 190.119826,113.631204 190.851012,113.516812 C191.590017,113.400854 194.099508,113.267658 194.671162,113.400854 C194.924535,113.4604 195.170088,113.443163 195.36481,113.404771 C195.525123,113.373431 195.639298,113.256689 195.688565,113.112524 C195.711243,113.045142 195.722974,112.97306 195.711243,112.89706 L195.518085,111.760977 L195.313979,110.933596 Z" id="Fill-190" fill="#3A8F9B"></path>
                        <path d="M180.899306,76.9807918 C180.899306,76.9807918 180.088355,75.4498227 179.422859,75.2069361 C178.758928,74.963266 177.556186,74.3160907 177.550712,74.5198021 C177.545238,74.7235134 178.256873,75.7741938 178.658829,75.800833 C179.059222,75.8266887 176.120404,74.8700289 176.120404,74.8700289 C176.120404,74.8700289 175.576903,75.6096577 175.73487,75.9254103 C175.894402,76.2427299 177.912004,78.2210804 177.912004,78.2210804 L180.387086,78.3864 L180.899306,76.9807918 Z" id="Fill-191" fill="#FFC197"></path>
                        <path d="M158.145289,72.1952206 L158.148417,72.2148082 C158.34314,73.5130763 158.880385,74.7345608 159.705412,75.753901 L159.707758,75.755468 L163.212755,78.6708907 C163.635826,79.1190557 164.252055,79.3306021 164.859682,79.2357979 C164.86281,79.2357979 164.865156,79.2350144 164.86672,79.2334474 L170.100755,76.1284165 C170.100755,76.1284165 171.283164,75.7609526 172.101153,75.0346433 C172.374859,74.7909732 172.785417,73.2451175 172.745535,72.8800041 C172.745535,72.8800041 172.642308,70.7911794 172.261466,71.0536536 C172.002619,71.2315093 171.521679,72.8870557 171.521679,72.8870557 C171.337123,73.1369938 170.124216,73.7496948 170.124216,73.7496948 C170.115614,73.7559629 170.05227,73.312499 170.051488,73.3015299 C170.051488,73.3015299 171.005548,72.0823959 170.689614,71.8395093 L169.853638,72.5101897 C169.399287,72.9199629 169.151387,73.5130763 169.181104,74.1249938 L169.181886,74.1343959 C169.203001,74.5708082 169.35784,75.0064371 169.349238,75.0095711 L164.267695,76.9244577 C164.261439,76.9268082 164.255183,76.9252412 164.252055,76.9205402 L163.190859,75.6395093 C163.190077,75.6387258 163.190077,75.6379423 163.189295,75.6363753 C162.507377,73.9878804 161.484499,72.5023546 160.187916,71.2793031 L160.167584,71.260499 C159.205704,70.7809938 158.407265,71.1508082 158.145289,72.1952206" id="Fill-192" fill="#FFC197"></path>
                        <path d="M180.899306,76.5917031 L184.091497,77.4778474 L186.287399,77.9048577 C187.264137,77.9918268 188.157982,77.3548371 188.396497,76.4020948 L189.476462,72.096734 C189.884674,70.5665485 191.735707,69.9710845 192.95878,70.9763216 L192.997099,71.0084454 C193.713426,71.5976412 193.97853,72.5785897 193.655557,73.4490639 L191.447143,79.4389608 C191.114786,80.3439093 188.281541,82.0731052 187.332955,81.9070021 L179.840456,79.0244866 L180.899306,76.5917031 Z" id="Fill-193" fill="#8A9100"></path>
                        <polygon id="Fill-194" fill="#FCB98B" points="191.557251 70.298433 194.89255 70.298433 194.89255 65.0434639 191.557251 65.0434639"></polygon>
                        <polygon id="Fill-195" fill="#1574B3" points="191.852149 111.543398 195.672299 111.543398 195.467411 98.6711918 195.877187 86.6302845 190.65801 86.6302845"></polygon>
                        <path d="M182.53286,111.543398 L186.589961,111.543398 L189.449795,100.144965 C189.449795,100.144965 197.187847,90.5893361 195.467411,87.5556041 C194.620487,86.0614598 188.63728,86.933501 188.63728,86.933501 L184.459749,100.406656 L182.53286,111.543398 Z" id="Fill-196" fill="#319FDD"></path>
                        <path d="M197.40947,64.4297443 C198.757666,62.256301 198.090606,59.3996412 195.922075,58.0496619 C193.751198,56.6996825 190.90153,57.3672289 189.553334,59.5406722 C188.916772,60.5678474 188.316966,63.4832701 188.907388,65.5556412 C189.10602,66.2498268 189.86614,66.6110227 190.454217,66.6180742 C190.454217,66.6180742 192.184819,66.5436412 192.92617,66.580466 C194.664593,66.6674351 196.429604,66.0100742 197.40947,64.4297443" id="Fill-197" fill="#FFD0B0"></path>
                        <path d="M195.058885,57.6681732 C195.058885,57.6681732 191.637564,55.9475959 189.741956,59.0064 C189.090537,60.0555134 188.330417,60.8398021 188.330417,60.8398021 C188.330417,60.8398021 190.537267,60.8061113 191.732188,59.0957196 C192.324956,58.2464 193.260248,58.4375753 193.260248,58.4375753 C193.260248,58.4375753 192.017624,57.3430186 191.320065,59.7585649 C190.622507,62.1741113 192.369531,62.4796784 192.369531,62.4796784 C192.369531,62.4796784 193.329847,59.9661938 193.979703,62.0252454 C194.534934,63.7818639 193.044411,63.8649155 193.044411,63.8649155 C193.044411,63.8649155 194.833665,65.5941113 194.892316,66.1645031 C194.951749,66.7356784 194.604534,67.1000082 195.490558,66.3987711 C196.376583,65.699101 197.248531,65.2211629 197.980498,63.3893278 C198.71403,61.5559258 197.757624,58.3325856 195.058885,57.6681732" id="Fill-198" fill="#071E2B"></path>
                        <path d="M188.248305,78.8040866 L188.665902,87.5550557 L195.877656,88.2696124 L196.676095,79.8014887 C197.094474,75.3762515 196.229564,72.639468 194.892316,68.4007052 C194.892316,68.4007052 193.332975,70.3202928 191.557016,69.2273031 C191.557016,69.2273031 187.093267,72.2367464 188.248305,78.8040866" id="Fill-199" fill="#A1B400"></path>
                        <path d="M157.721437,112.253019 L157.851251,111.854214 C157.794164,112.085348 157.743333,112.354874 157.724565,112.645555 C157.715962,112.521761 157.713616,112.393266 157.721437,112.253019" id="Fill-200" fill="#F9AF7D"></path>
                        <path d="M157.38384,87.7593155 C157.39948,87.614367 160.606529,87.7593155 160.606529,87.7593155 C162.581903,88.0711505 162.457562,94.0704495 162.128333,97.119068 C162.042311,97.9221608 161.239963,100.431728 160.881017,101.154903 L160.866941,101.183109 C160.123243,102.681171 159.60242,105.274573 159.710339,106.945006 L159.890984,109.741336 C160.656578,110.581254 162.104091,112.238367 163.195786,112.820511 C163.344369,112.899645 163.486696,112.96546 163.619638,113.014037 C163.427262,113.122944 163.11211,113.187192 162.573301,113.060264 C162.498227,113.043027 162.417679,113.027357 162.339478,113.01012 C161.144557,112.753913 160.211611,112.600346 159.331843,112.194491 C158.396551,111.761212 158.073578,111.168882 158.073578,111.168882 L158.3379,110.349336 L157.565268,107.111893 C157.138287,105.316099 157.139851,103.445089 157.586382,101.654779 C157.591074,101.636759 157.595766,101.619522 157.600459,101.601501 C157.917957,100.340058 158.047772,99.0386557 157.970352,97.7396041 L157.38384,87.7593155 Z" id="Fill-201" fill="#F9AF7D"></path>
                        <path d="M158.0735,111.167707 L158.0735,111.167707 L157.851408,111.854058 C157.95307,111.447419 158.0735,111.167707 158.0735,111.167707" id="Fill-202" fill="#F9AF7D"></path>
                        <path d="M157.724486,112.645946 C157.743255,112.355266 157.794086,112.08574 157.851173,111.854606 L158.162416,110.892462 C158.162416,110.892462 158.408751,111.421328 159.344824,111.854606 C160.223029,112.260462 161.144244,112.75407 162.339165,113.010276 C162.417366,113.02673 162.497914,113.0424 162.572988,113.060421 C163.112579,113.187348 163.42695,113.123101 163.619326,113.014194 C163.627928,113.017328 163.638094,113.022029 163.646696,113.025163 L164.908089,113.402029 C165.223241,113.512503 165.190396,113.926977 164.87759,114.04607 C163.922748,114.411184 163.145424,114.298359 162.196056,114.236462 C161.189601,114.170647 160.8635,113.800049 159.884416,113.445122 L159.764767,114.087596 L158.432211,114.087596 C158.432211,114.087596 158.09829,113.496833 157.963001,113.130153 C157.928593,113.038482 157.71823,112.740751 157.724486,112.645946" id="Fill-203" fill="#F26522"></path>
                        <path d="M163.898896,112.435575 L164.015417,112.03207 C163.964586,112.264771 163.923139,112.535864 163.914537,112.827328 C163.902025,112.703534 163.894986,112.575039 163.898896,112.435575" id="Fill-204" fill="#F9AF7D"></path>
                        <path d="M158.145289,87.9651423 C158.156238,87.8194103 161.364851,87.8609361 161.364851,87.8609361 C163.35039,88.1085237 165.44072,94.1078227 165.210807,97.1658433 C165.150592,97.9712866 165.102107,100.505926 164.766622,101.240854 L164.753328,101.268276 C164.058897,102.790627 164.969946,105.398915 165.131041,107.064647 L166.075717,109.854709 C166.867118,110.668771 168.367807,112.278091 169.477488,112.825761 C169.629199,112.89941 169.77309,112.95974 169.907597,113.005184 C169.718349,113.119575 169.405543,113.194792 168.863605,113.085101 C168.78775,113.070214 168.70642,113.056111 168.627437,113.042008 C167.425477,112.825761 166.48784,112.701967 165.596341,112.324318 C164.646191,111.922379 164.30445,111.339452 164.30445,111.339452 L164.543747,110.51207 L162.993009,107.300482 C162.506595,105.521142 161.100529,103.650915 161.489973,101.847287 C161.494665,101.829266 161.498575,101.810462 161.502486,101.792441 C161.778537,100.521596 161.192025,99.2162763 161.074723,97.9203588 L158.145289,87.9651423 Z" id="Fill-205" fill="#F9AF7D"></path>
                        <path d="M164.304372,111.339452 L164.304372,111.339452 L164.104958,112.03207 C164.192544,111.622297 164.304372,111.339452 164.304372,111.339452" id="Fill-206" fill="#F9AF7D"></path>
                        <path d="M164.00353,112.826936 C164.014478,112.536256 164.055143,112.265163 164.105192,112.032462 L164.385154,111.060915 C164.385154,111.060915 164.648694,111.581163 165.59728,111.983885 C166.488778,112.361534 167.425634,112.825369 168.627593,113.041616 C168.706577,113.056503 168.787906,113.069823 168.863762,113.084709 C169.405699,113.1944 169.718506,113.119967 169.907754,113.004792 C169.916356,113.007926 169.926522,113.011843 169.935124,113.014977 L171.207465,113.350318 C171.525746,113.450606 171.506977,113.865864 171.198863,113.995142 C170.255751,114.391596 169.473735,114.30306 168.523585,114.272503 C167.515566,114.239596 167.178517,113.879184 166.187702,113.556379 L166.08995,114.202771 L164.758176,114.24508 C164.758176,114.24508 164.404705,113.66607 164.256904,113.304091 C164.220149,113.213204 164.000402,112.922524 164.00353,112.826936" id="Fill-207" fill="#F26522"></path>
                        <path d="M160.069753,70.7950186 C159.224394,70.2034722 158.64883,69.7827299 158.035729,69.7043794 C157.769843,69.6699052 157.466421,69.6174103 157.207574,69.5680495 C157.256059,69.3282969 157.311582,69.0916784 157.377271,68.8558433 L159.098489,67.063967 L160.538181,68.2666474 L160.110418,69.8226887 L160.990187,71.0324206 C160.75871,71.0825649 160.448249,71.0590598 160.069753,70.7950186" id="Fill-208" fill="#F9AF7D"></path>
                        <path d="M157.168473,73.5475505 C156.923702,72.2281278 156.93856,70.8773649 157.207574,69.5673443 C157.466421,69.6167052 157.841007,69.5328701 158.108456,69.5673443 C158.720775,69.6456948 160.069753,69.7671381 160.990187,71.032499 L162.547963,73.1761691 C163.096157,73.929901 163.310429,74.8763753 163.13995,75.7930763 L162.199184,80.8560866 L166.289129,94.4083753 L155.667783,94.975633 C155.667783,94.975633 156.235527,87.678066 156.280102,87.2549732 C156.604639,84.2243753 158.074048,81.0339423 158.074048,81.0339423 C158.330549,79.7795505 158.313345,78.4852 158.024781,77.2378598 L157.168473,73.5475505 Z" id="Fill-209" fill="#2B59A1"></path>
                        <path d="M156.397952,65.3877361 C155.479865,63.6177979 156.727181,61.4459216 158.605584,60.7854268 C160.483987,60.1257155 162.539908,61.116066 163.198366,62.9972619 C163.510391,63.8873237 163.365718,66.1532206 162.675197,67.6834062 C162.058186,69.0521897 160.831985,68.340767 160.383107,68.2467464 C160.383107,68.2467464 157.736764,67.9740866 156.397952,65.3877361" id="Fill-210" fill="#FFD0B0"></path>
                        <path d="M159.414502,60.0875588 C159.414502,60.0875588 162.813927,59.745167 163.213537,62.5226928 C163.480205,64.3772495 160.629755,64.7212082 160.629755,64.7212082 C160.629755,64.7212082 160.320859,62.6457031 159.479409,64.1030227 C158.760736,65.3448784 159.881366,65.6606309 159.881366,65.6606309 C159.881366,65.6606309 159.584199,66.5420742 159.39808,66.7841773 C159.117336,67.1516412 158.914793,67.7721773 158.164058,67.4493732 C157.24206,67.0529196 156.324755,65.8392701 156.076856,64.3208371 C155.828175,62.8031876 156.538246,60.5937031 159.414502,60.0875588" id="Fill-211" fill="#071E2B"></path>
                        <path d="M157.204367,72.0792619 L155.749035,72.3550557 C155.749035,72.3550557 154.915405,63.897901 156.330073,62.292499 C157.743177,60.6863134 158.743375,65.6780247 158.743375,65.6780247 L159.881209,65.6607876 L159.950027,69.0925402 C159.793623,70.5866845 158.677686,71.801901 157.204367,72.0792619" id="Fill-212" fill="#071E2B"></path>
                        <path d="M159.722304,71.7330309 C159.722304,71.7330309 158.596982,71.0983918 158.144977,72.6849897 C157.694535,74.2715876 157.973715,76.6949691 157.973715,76.6949691 L157.72738,81.0543918 L160.433156,87.3608247 L160.433156,89.1848247 C160.433156,89.1848247 160.822601,90.9124536 161.146355,91.1694433 C161.94714,91.8025155 162.556331,91.9639175 162.599342,91.5854845 C162.656429,91.0848247 162.094159,90.1978969 162.094159,90.1978969 L162.24196,88.4318763 L162.662685,89.0469278 C162.662685,89.0469278 162.778423,89.8625567 162.998952,89.979299 C163.089666,90.0263093 163.309413,89.3830515 163.210096,88.9677938 C163.062295,88.3519588 163.056039,88.1223918 162.78859,87.8567835 L161.904129,86.8860206 L160.433156,82.0439588 L159.94987,81.014433 L160.673235,76.0963711 C160.673235,76.0963711 162.254472,73.1613608 159.722304,71.7330309" id="Fill-213" fill="#F9AF7D"></path>
                        <path d="M195.087898,88.2811299 C195.087898,88.2811299 193.735792,89.3631505 193.620835,90.0628206 C193.505097,90.7624907 193.092974,92.0662433 193.293953,92.0349031 C193.494149,92.0019959 194.393468,91.105666 194.344983,90.7060784 C194.296498,90.3057072 193.901579,93.3770474 193.901579,93.3770474 C193.901579,93.3770474 194.726607,93.7766351 195.00735,93.5611711 C195.289658,93.3464907 196.856819,90.9928412 196.856819,90.9928412 L196.561217,88.526367 L195.087898,88.2811299 Z" id="Fill-214" fill="#FFC197"></path>
                        <path d="M196.515234,71.0624289 C194.526567,67.6714186 194.599294,70.7944701 193.825098,72.8253155 C193.049338,74.8561608 196.006142,80.654099 196.006142,80.654099 L194.777594,88.3794598 L196.936741,88.9404495 C196.936741,88.9404495 200.992278,78.6922021 196.515234,71.0624289" id="Fill-215" fill="#B4CE46"></path>
                    </g>
                </g>
            </g>
        </g>
    </g>
</svg>